<?xml version="1.0" standalone="no"?>
<!DOCTYPE svg PUBLIC "-//W3C//DTD SVG 1.1//EN" "http://www.w3.org/Graphics/SVG/1.1/DTD/svg11.dtd" >
<svg xmlns="http://www.w3.org/2000/svg" xmlns:xlink="http://www.w3.org/1999/xlink" version="1.1">
<metadata>
Created by FontForge 20170731 at Sat Jul 30 08:06:20 2022
 By Aleksey,,,
(c) 2012 - 2016 by Stawix Ruecha &#38; Foundry. All rights reserved. @KASE27.
</metadata>
<defs>
<font id="SoinSansNeue-Medium" horiz-adv-x="1024" >
  <font-face 
    font-family="Soin Sans Neue Medium"
    font-weight="500"
    font-style="italic"
    font-stretch="normal"
    units-per-em="2048"
    panose-1="2 11 6 4 3 2 0 1 1 2"
    ascent="1536"
    descent="-512"
    x-height="901"
    cap-height="1434"
    bbox="-262 -555 2812 2408"
    underline-thickness="112"
    underline-position="-317"
    slope="-180"
    unicode-range="U+000D-FB02"
  />
<missing-glyph horiz-adv-x="1146" 
d="M61 0v1446h1024v-1446h-1024zM618 723l377 -576v1151zM526 723l-374 575v-1151zM573 651l-368 -569h737zM205 1364l368 -569l369 569h-737z" />
    <glyph glyph-name=".notdef" horiz-adv-x="1146" 
d="M61 0v1446h1024v-1446h-1024zM618 723l377 -576v1151zM526 723l-374 575v-1151zM573 651l-368 -569h737zM205 1364l368 -569l369 569h-737z" />
    <glyph glyph-name=".null" horiz-adv-x="0" 
 />
    <glyph glyph-name="nonmarkingreturn" horiz-adv-x="682" 
 />
    <glyph glyph-name="NULL" horiz-adv-x="0" 
 />
    <glyph glyph-name="NULL" horiz-adv-x="0" 
 />
    <glyph glyph-name="CR" unicode="&#xd;" 
 />
    <glyph glyph-name="space" unicode=" " horiz-adv-x="468" 
 />
    <glyph glyph-name="exclam" unicode="!" horiz-adv-x="591" 
d="M369 436h-146q-43 430 -43 850v148h230v-148q0 -440 -41 -850zM154 129q0 60 40 100.5t101 40.5t101 -40.5t40 -100.5t-40 -100.5t-101 -40.5t-101 40.5t-40 100.5z" />
    <glyph glyph-name="quotedbl" unicode="&#x22;" horiz-adv-x="937" 
d="M162 1454h215l-23 -612h-170zM561 1454h215l-22 -612h-170z" />
    <glyph glyph-name="numbersign" unicode="#" horiz-adv-x="1454" 
d="M182 905v168h250l68 361h192l-67 -361h333l68 361h193l-68 -361h201v-168h-232l-69 -377h221v-168h-254l-66 -360h-192l65 360h-333l-66 -360h-193l66 360h-199v168h232l69 377h-219zM594 905l-70 -377h334l70 377h-334z" />
    <glyph glyph-name="dollar" unicode="$" horiz-adv-x="1341" 
d="M762 1638v-190q187 -21 293 -116t125 -249h-211q-25 140 -207 170v-446l86 -19q191 -41 283 -136t92 -249q0 -189 -122.5 -296.5t-338.5 -122.5v-189h-172v189q-215 17 -338.5 118.5t-140.5 274.5h211q21 -173 268 -201v465l-41 10q-412 90 -412 402q0 176 117 280
t336 119v186h172zM764 604h-2v-428q116 14 180 69.5t64 147.5q0 156 -242 211zM354 1055q0 -80 59 -129t177 -80v411q-236 -21 -236 -202z" />
    <glyph glyph-name="percent" unicode="%" horiz-adv-x="2011" 
d="M668 0h-203l878 1434h203zM467 1446q163 0 271 -109t108 -270q0 -162 -108 -271.5t-271 -109.5q-162 0 -270.5 109.5t-108.5 271.5q0 160 108.5 269.5t270.5 109.5zM467 850q89 0 146 61.5t57 155.5q0 93 -57 154t-146 61t-145 -61t-56 -154q0 -94 56 -155.5t145 -61.5z
M1544 748q162 0 270.5 -109.5t108.5 -271.5q0 -160 -108.5 -269.5t-270.5 -109.5q-163 0 -271 109t-108 270q0 162 108 271.5t271 109.5zM1544 152q89 0 145 61t56 154q0 94 -56 155.5t-145 61.5t-146 -61.5t-57 -155.5q0 -93 57 -154t146 -61z" />
    <glyph glyph-name="ampersand" unicode="&#x26;" horiz-adv-x="1443" 
d="M1245 739l141 -121q-182 -224 -256 -303l279 -315h-244l-164 184q-112 -103 -223 -155t-235 -52q-120 0 -216 44t-155 134.5t-59 213.5q0 47 10.5 91t23 76t42 69t48 57.5t62.5 55.5t63.5 48.5t71.5 50.5l4 2q-39 43 -61 70t-49.5 69t-40.5 86t-13 91q0 149 94.5 234
t254.5 85q150 0 246 -81t96 -220q0 -61 -18 -112t-55 -94.5t-75 -75.5t-98 -74l-8 -6l297 -336q84 91 237 284zM553 166q155 0 328 156l-322 362l-10 -6q-40 -30 -55 -41t-46 -36t-43 -39t-31 -38t-26.5 -44t-13.5 -47.5t-6 -57.5q0 -96 64 -152.5t161 -56.5zM473 1139
q0 -36 19.5 -76t39.5 -65.5t60 -71.5l6 4q46 32 68.5 49.5t51 46t40.5 57t12 62.5q-2 64 -41.5 103.5t-103.5 39.5q-72 0 -112 -40t-40 -109z" />
    <glyph glyph-name="quotesingle" unicode="'" horiz-adv-x="540" 
d="M162 1454h215l-23 -612h-170z" />
    <glyph glyph-name="parenleft" unicode="(" horiz-adv-x="880" 
d="M139 578q0 369 181.5 635t486.5 333v-194q-209 -59 -329 -262t-120 -512q0 -310 119.5 -513t329.5 -262v-194q-202 44 -354 181t-233 341t-81 447z" />
    <glyph glyph-name="parenright" unicode=")" horiz-adv-x="880" 
d="M741 578q0 -244 -80 -447.5t-231.5 -340.5t-353.5 -181v194q209 59 327.5 261.5t118.5 513.5q0 309 -118.5 512t-327.5 262v194q202 -44 353.5 -181t231.5 -340t80 -447z" />
    <glyph glyph-name="asterisk" unicode="*" horiz-adv-x="929" 
d="M465 969l-148 -228l-139 101l170 207l-262 71l55 164l248 -96l-10 266h172l-10 -266l247 96l54 -164l-260 -71l170 -207l-142 -101z" />
    <glyph glyph-name="plus" unicode="+" horiz-adv-x="1255" 
d="M717 84h-178v336h-336v170h336v338h178v-338h336v-170h-336v-336z" />
    <glyph glyph-name="comma" unicode="," horiz-adv-x="509" 
d="M74 -272l82 546h235l-153 -546h-164z" />
    <glyph glyph-name="hyphen" unicode="-" horiz-adv-x="811" 
d="M90 362v177h633v-177h-633z" />
    <glyph glyph-name="period" unicode="." horiz-adv-x="520" 
d="M119 129q0 60 40 100.5t101 40.5t101 -40.5t40 -100.5t-40 -100.5t-101 -40.5t-101 40.5t-40 100.5z" />
    <glyph glyph-name="slash" unicode="/" horiz-adv-x="1081" 
d="M1092 1638l-893 -1843h-209l893 1843h209z" />
    <glyph glyph-name="zero" unicode="0" horiz-adv-x="1429" 
d="M715 1456q270 0 431 -198.5t161 -540.5t-161 -541t-431 -199q-271 0 -431.5 198.5t-160.5 541.5t160.5 541t431.5 198zM715 172q173 0 271.5 143t98.5 402t-98.5 402t-271.5 143t-273 -143t-100 -402t100 -402t273 -143z" />
    <glyph glyph-name="one" unicode="1" horiz-adv-x="1026" 
d="M487 0v1229l-335 -105l-62 172l426 144h186v-1440h-215z" />
    <glyph glyph-name="two" unicode="2" horiz-adv-x="1277" 
d="M631 1266q-290 0 -309 -275h-213q5 100 38 182t95 146.5t162.5 100.5t230.5 36q232 0 367 -121.5t135 -312.5q0 -67 -17.5 -127.5t-42.5 -107.5t-73 -100.5t-89 -92t-110 -96.5l-352 -305h710v-193h-1042v154l520 450q77 68 120 110.5t84 95t58 102t17 106.5
q0 112 -76.5 180t-212.5 68z" />
    <glyph glyph-name="three" unicode="3" horiz-adv-x="1282" 
d="M631 1266q-147 0 -225.5 -66.5t-86.5 -183.5h-210q14 199 147 319.5t379 120.5q134 0 246 -43.5t183 -133.5t71 -210q0 -122 -55.5 -203t-145.5 -112q108 -23 176 -110.5t68 -227.5q0 -134 -72.5 -235t-193.5 -152.5t-273 -51.5q-259 0 -397 120t-152 321h209
q22 -250 338 -250q152 0 238 67t86 189q0 227 -283 227h-160v176h141q259 0 259 226q0 101 -81.5 157t-205.5 56z" />
    <glyph glyph-name="four" unicode="4" horiz-adv-x="1370" 
d="M1075 1436v-906h230v-188h-230v-342h-213v342h-782v164l794 930h201zM330 530h532v623z" />
    <glyph glyph-name="five" unicode="5" horiz-adv-x="1255" 
d="M623 168q139 0 228 81.5t89 207.5q0 122 -84 201t-240 79q-87 0 -165.5 -22t-124.5 -56l-185 58l33 717h885v-193h-690l-19 -397q43 30 128 49.5t173 19.5q229 0 367.5 -126t138.5 -326q0 -144 -71.5 -255.5t-192 -170t-268.5 -58.5q-250 0 -388 121.5t-151 315.5h207
q11 -108 96.5 -177t233.5 -69z" />
    <glyph glyph-name="six" unicode="6" horiz-adv-x="1316" 
d="M721 946q214 0 358 -136t144 -335q0 -220 -147.5 -359t-377.5 -139q-95 0 -178.5 24.5t-157 79t-126 134.5t-83 198t-30.5 263q0 122 18 231t61.5 211t109 176t167.5 118t230 44q98 0 183 -30t143.5 -80t95.5 -113t47 -131h-207q-15 76 -88 123t-178 47q-79 0 -141 -28
t-101.5 -74t-66.5 -112t-39.5 -134t-16.5 -148q59 79 157 124.5t224 45.5zM688 164q146 0 234 84.5t88 222.5q0 130 -89 213.5t-233 83.5q-139 0 -234.5 -84t-95.5 -211q0 -132 96 -220.5t234 -88.5z" />
    <glyph glyph-name="seven" unicode="7" horiz-adv-x="1236" 
d="M1124 1278l-643 -1278h-229l627 1241h-773v193h1018v-156z" />
    <glyph glyph-name="eight" unicode="8" horiz-adv-x="1339" 
d="M670 -23q-253 0 -408.5 111.5t-155.5 298.5q0 128 73.5 220.5t201.5 127.5q-108 35 -169.5 122.5t-61.5 199.5q0 176 142 287.5t378 111.5t379 -111.5t143 -287.5q0 -113 -62 -200t-172 -122q129 -36 203 -128t74 -220q0 -187 -156 -298.5t-409 -111.5zM670 637
q-159 0 -253.5 -66.5t-94.5 -173.5q0 -110 93 -172.5t255 -62.5t255 62.5t93 172.5q0 107 -94.5 173.5t-253.5 66.5zM670 813q144 0 225.5 64.5t81.5 164.5q0 110 -85.5 171t-221.5 61t-222 -61.5t-86 -170.5q0 -100 82.5 -164.5t225.5 -64.5z" />
    <glyph glyph-name="nine" unicode="9" horiz-adv-x="1316" 
d="M596 487q-214 0 -357 136t-143 335q0 221 146.5 359.5t375.5 138.5q95 0 179 -24.5t158 -79t127 -134.5t83.5 -197.5t30.5 -262.5q0 -122 -18.5 -231t-62 -211.5t-109 -176t-168 -118t-230.5 -44.5q-191 0 -318 105.5t-149 249.5h205q15 -75 88.5 -122.5t177.5 -47.5
q339 0 367 497q-59 -79 -158.5 -125.5t-224.5 -46.5zM629 1270q-146 0 -234 -84.5t-88 -222.5q0 -130 89 -213.5t233 -83.5q139 0 235.5 84.5t96.5 210.5q0 132 -96.5 220.5t-235.5 88.5z" />
    <glyph glyph-name="colon" unicode=":" horiz-adv-x="536" 
d="M127 129q0 60 40 100.5t101 40.5t101.5 -40.5t40.5 -100.5t-40.5 -100.5t-101.5 -40.5t-101 40.5t-40 100.5zM127 774q0 60 40 100.5t101 40.5t101.5 -40.5t40.5 -100.5t-40.5 -100.5t-101.5 -40.5t-101 40.5t-40 100.5z" />
    <glyph glyph-name="semicolon" unicode=";" horiz-adv-x="536" 
d="M127 774q0 60 40 100.5t101 40.5t101.5 -40.5t40.5 -100.5t-40.5 -100.5t-101.5 -40.5t-101 40.5t-40 100.5zM76 -272l82 546h235l-153 -546h-164z" />
    <glyph glyph-name="less" unicode="&#x3c;" horiz-adv-x="1255" 
d="M211 418v170l823 403v-211l-596 -276l596 -279v-211z" />
    <glyph glyph-name="equal" unicode="=" horiz-adv-x="1255" 
d="M1049 788v-170h-840v170h840zM1049 391v-170h-840v170h840z" />
    <glyph glyph-name="greater" unicode="&#x3e;" horiz-adv-x="1255" 
d="M1044 588v-170l-823 -404v211l596 279l-596 276v211z" />
    <glyph glyph-name="question" unicode="?" horiz-adv-x="1226" 
d="M1114 1036q0 -67 -25 -127.5t-62.5 -105t-90.5 -83.5t-100.5 -64t-100.5 -46l-16 -174h-164l-18 262q71 26 127 53t113 66.5t88.5 91.5t31.5 113q0 112 -75.5 178t-219.5 66q-303 0 -319 -275h-211q5 100 38 182t95.5 146.5t164.5 100.5t236 36q239 0 373.5 -117.5
t134.5 -302.5zM494 129q0 60 40 100.5t101 40.5t101 -40.5t40 -100.5t-40 -100.5t-101 -40.5t-101 40.5t-40 100.5z" />
    <glyph glyph-name="at" unicode="@" horiz-adv-x="1986" 
d="M1393 -117v-153q-169 -76 -404 -76q-185 0 -345.5 64.5t-273 175.5t-177 264t-64.5 325q0 179 65.5 335.5t180.5 269t278.5 177t352.5 64.5q187 0 346 -59t270 -163.5t173.5 -252t62.5 -319.5q0 -209 -98.5 -334t-258.5 -125q-83 0 -144.5 42t-90.5 120
q-112 -160 -295 -160q-165 0 -278 118.5t-113 295.5q0 174 113 292.5t278 118.5q156 0 260 -119v105h166v-471q0 -102 26.5 -147.5t85.5 -45.5q77 0 124.5 81t47.5 229q0 293 -184.5 466t-490.5 173q-204 0 -363.5 -87.5t-248.5 -245t-89 -358.5q0 -143 51 -268t141 -214
t217.5 -140t274.5 -51q224 0 404 73zM760 489q0 -114 65 -185t170 -71q99 0 167.5 72t68.5 184t-68.5 184t-167.5 72q-105 0 -170 -71t-65 -185z" />
    <glyph glyph-name="A" unicode="A" horiz-adv-x="1542" 
d="M1274 0l-154 358h-702l-152 -358h-219l629 1438h192l627 -1438h-221zM770 1188l-268 -631h534z" />
    <glyph glyph-name="B" unicode="B" horiz-adv-x="1449" 
d="M178 1434h627q232 0 362.5 -100.5t130.5 -280.5q0 -125 -61 -209t-160 -111q120 -17 194.5 -109.5t74.5 -224.5q0 -192 -134.5 -295.5t-382.5 -103.5h-651v1434zM393 625v-432h424q155 0 231 52t76 167q0 114 -76 163.5t-239 49.5h-416zM393 1239v-420h389
q143 0 219 50.5t76 166.5q0 107 -70.5 155t-213.5 48h-400z" />
    <glyph glyph-name="C" unicode="C" horiz-adv-x="1669" 
d="M123 717q0 153 57.5 289.5t156 235.5t238 156.5t297.5 57.5q174 0 321.5 -65t244 -182.5t123.5 -268.5h-226q-35 137 -156.5 224t-304.5 87q-230 0 -379 -150.5t-149 -383.5t149 -384t379 -151q183 0 304.5 87.5t158.5 226.5h226q-41 -230 -233.5 -374.5t-457.5 -144.5
q-158 0 -297.5 58t-238 156.5t-156 235.5t-57.5 290z" />
    <glyph glyph-name="D" unicode="D" horiz-adv-x="1562" 
d="M1440 719q0 -152 -55.5 -285t-153.5 -228.5t-238.5 -150.5t-304.5 -55h-510v1434h510q218 0 390.5 -93.5t267 -256.5t94.5 -365zM393 201h289q248 0 391.5 144t143.5 374q0 228 -143.5 371t-389.5 143h-291v-1032z" />
    <glyph glyph-name="E" unicode="E" horiz-adv-x="1335" 
d="M1208 0h-1030v1434h1022v-197h-807v-418h756v-194h-756v-428h815v-197z" />
    <glyph glyph-name="F" unicode="F" horiz-adv-x="1290" 
d="M393 0h-215v1434h1008v-199h-793v-457h731v-198h-731v-580z" />
    <glyph glyph-name="G" unicode="G" horiz-adv-x="1691" 
d="M866 180q209 0 342 118.5t144 301.5h-480v188h695q8 -55 8 -102q0 -216 -96 -379t-256 -246.5t-359 -83.5q-158 0 -296 57.5t-235.5 156.5t-153.5 236t-56 290q0 152 57.5 289t156 235.5t237.5 156.5t296 58q252 0 438 -135.5t232 -351.5h-227q-38 127 -154 205.5
t-287 78.5q-228 0 -377 -152t-149 -384q0 -234 146 -385.5t374 -151.5z" />
    <glyph glyph-name="H" unicode="H" horiz-adv-x="1570" 
d="M393 823h785v611h215v-1434h-215v621h-785v-621h-215v1434h215v-611z" />
    <glyph glyph-name="I" unicode="I" horiz-adv-x="585" 
d="M401 1434v-1434h-217v1434h217z" />
    <glyph glyph-name="J" unicode="J" horiz-adv-x="1222" 
d="M1057 1434v-926q0 -256 -136 -393.5t-364 -137.5q-222 0 -346.5 112t-142.5 300h208q29 -207 277 -207q138 0 213.5 85t75.5 265v902h215z" />
    <glyph glyph-name="K" unicode="K" horiz-adv-x="1447" 
d="M1391 1434l-615 -641l647 -793h-264l-524 645l-242 -252v-393h-215v1434h215v-762l727 762h271z" />
    <glyph glyph-name="L" unicode="L" horiz-adv-x="1232" 
d="M1169 0h-991v1434h215v-1233h776v-201z" />
    <glyph glyph-name="M" unicode="M" horiz-adv-x="1894" 
d="M866 262l-475 803v-1065h-213v1436h211l559 -940l559 940h209v-1436h-217v1063l-473 -801h-160z" />
    <glyph glyph-name="N" unicode="N" horiz-adv-x="1597" 
d="M178 1436h201l829 -1096v1094h211v-1436h-198l-830 1092v-1090h-213v1436z" />
    <glyph glyph-name="O" unicode="O" horiz-adv-x="1736" 
d="M868 1456q153 0 291.5 -57.5t238 -156t158 -235.5t58.5 -290t-58.5 -290t-158 -235.5t-238 -156.5t-291.5 -58q-205 0 -376 98t-270 268t-99 374q0 153 58.5 290t157.5 235.5t237.5 156t291.5 57.5zM868 182q144 0 263 68.5t188.5 191.5t69.5 275t-69.5 274.5t-188.5 191
t-263 68.5t-263.5 -68.5t-189 -191t-69.5 -274.5q0 -114 41 -213.5t111 -170t166 -111t204 -40.5z" />
    <glyph glyph-name="P" unicode="P" horiz-adv-x="1413" 
d="M393 700h375q160 0 242 68.5t82 202.5q0 131 -81.5 198.5t-242.5 67.5h-375v-537zM393 504v-504h-215v1434h615q249 0 384.5 -124t135.5 -337q0 -212 -139 -340t-386 -129h-395z" />
    <glyph glyph-name="Q" unicode="Q" horiz-adv-x="1740" 
d="M868 0q-153 0 -291.5 57.5t-237.5 155.5t-157.5 232.5t-58.5 283.5q0 148 58.5 282.5t157.5 232t237.5 155t291.5 57.5q204 0 376 -97.5t271 -263t99 -360.5q0 -167 -69.5 -304.5t-196.5 -237.5h276v-193h-756zM868 205q219 0 370 150.5t151 373.5q0 146 -69 266
t-188.5 188t-263.5 68t-263.5 -68t-189 -188t-69.5 -266q0 -223 151.5 -373.5t370.5 -150.5z" />
    <glyph glyph-name="R" unicode="R" horiz-adv-x="1449" 
d="M393 512v-512h-215v1434h637q248 0 384 -124t136 -333q0 -178 -104.5 -298.5t-292.5 -154.5l408 -524h-246l-400 512h-307zM393 707h395q159 0 242.5 68.5t83.5 197.5t-82.5 196.5t-243.5 67.5h-395v-530z" />
    <glyph glyph-name="S" unicode="S" horiz-adv-x="1302" 
d="M657 172q145 0 231.5 58.5t86.5 162.5q0 80 -59.5 132t-190.5 81l-184 41q-209 45 -312.5 144.5t-103.5 261.5q0 188 135.5 294.5t372.5 106.5q226 0 359.5 -99t154.5 -272h-209q-15 86 -95 132.5t-210 46.5q-137 0 -214 -52.5t-77 -154.5q0 -88 68.5 -138.5t214.5 -82.5
l184 -41q201 -44 292 -139t91 -251q0 -137 -69.5 -233.5t-188.5 -143t-277 -46.5q-245 0 -394.5 104t-168.5 293h211q13 -100 105 -152.5t247 -52.5z" />
    <glyph glyph-name="T" unicode="T" horiz-adv-x="1259" 
d="M1204 1434v-199h-467v-1235h-215v1235h-467v199h1149z" />
    <glyph glyph-name="U" unicode="U" horiz-adv-x="1552" 
d="M776 -23q-175 0 -310 66.5t-215.5 205t-80.5 333.5v852h217v-824q0 -214 103.5 -322t287.5 -108t287.5 108t103.5 322v824h215v-852q0 -195 -81 -333.5t-216.5 -205t-310.5 -66.5z" />
    <glyph glyph-name="V" unicode="V" horiz-adv-x="1503" 
d="M283 1434l473 -1160l473 1160h227l-600 -1438h-209l-600 1438h236z" />
    <glyph glyph-name="W" unicode="W" horiz-adv-x="2275" 
d="M1239 1434l373 -1125l379 1125h219l-494 -1438h-207l-372 1104l-373 -1104h-205l-493 1438h229l369 -1117l378 1117h197z" />
    <glyph glyph-name="X" unicode="X" horiz-adv-x="1488" 
d="M1409 1434l-530 -707l544 -727h-256l-426 573l-426 -573h-249l542 723l-528 711h256l409 -555l414 555h250z" />
    <glyph glyph-name="Y" unicode="Y" horiz-adv-x="1413" 
d="M268 1434l439 -684l440 684h244l-578 -887v-547h-215v545l-575 889h245z" />
    <glyph glyph-name="Z" unicode="Z" horiz-adv-x="1392" 
d="M1264 197v-197h-1139v156l840 1081h-830v197h1118v-156l-837 -1081h848z" />
    <glyph glyph-name="bracketleft" unicode="[" horiz-adv-x="804" 
d="M188 1528h541v-185h-328v-1531h328v-185h-541v1901z" />
    <glyph glyph-name="backslash" unicode="\" horiz-adv-x="1081" 
d="M199 1638l893 -1843h-209l-893 1843h209z" />
    <glyph glyph-name="bracketright" unicode="]" horiz-adv-x="804" 
d="M616 -373h-540v185h325v1531h-325v185h540v-1901z" />
    <glyph glyph-name="asciicircum" unicode="^" horiz-adv-x="1241" 
d="M723 1434l418 -727h-234l-286 510l-285 -510h-236l418 727h205z" />
    <glyph glyph-name="underscore" unicode="_" horiz-adv-x="876" 
d="M0 -262v151h877v-151h-877z" />
    <glyph glyph-name="grave" unicode="`" 
d="M215 1296l139 144l277 -310l-90 -90z" />
    <glyph glyph-name="a" unicode="a" horiz-adv-x="1163" 
d="M84 451q0 199 126.5 335t317.5 136q187 0 306 -142v121h190v-901h-190v121q-118 -141 -306 -141q-192 0 -318 135.5t-126 335.5zM287 451q0 -130 75.5 -213.5t192.5 -83.5q115 0 193.5 84t78.5 213t-78.5 213t-193.5 84q-117 0 -192.5 -83.5t-75.5 -213.5z" />
    <glyph glyph-name="b" unicode="b" horiz-adv-x="1163" 
d="M1079 451q0 -199 -127 -335t-319 -136q-185 0 -303 141v-121h-191v1434h197v-648q119 136 299 136q191 0 317.5 -136t126.5 -335zM877 451q0 131 -75.5 214t-193.5 83q-117 0 -194.5 -83t-77.5 -214q0 -129 78 -213t194 -84q117 0 193 83.5t76 213.5z" />
    <glyph glyph-name="c" unicode="c" horiz-adv-x="1069" 
d="M84 451q0 199 135.5 335t335.5 136q98 0 179.5 -29.5t135.5 -79t86.5 -110.5t40.5 -128h-198q-18 75 -79.5 121.5t-160.5 46.5q-120 0 -196 -81t-76 -211q0 -129 76 -211t196 -82q100 0 160.5 47t79.5 123h198q-7 -67 -39 -128.5t-86 -111t-136.5 -79t-180.5 -29.5
q-132 0 -240 63t-169.5 171t-61.5 237z" />
    <glyph glyph-name="d" unicode="d" horiz-adv-x="1163" 
d="M84 451q0 199 126.5 335t317.5 136q180 0 299 -136v648h197v-1434h-190v121q-118 -141 -306 -141q-191 0 -317.5 136t-126.5 335zM287 451q0 -130 75.5 -213.5t192.5 -83.5q115 0 193.5 84t78.5 213q0 130 -78 213.5t-194 83.5q-117 0 -192.5 -83t-75.5 -214z" />
    <glyph glyph-name="e" unicode="e" horiz-adv-x="1067" 
d="M545 -20q-200 0 -330.5 133.5t-130.5 337.5q0 203 129.5 337t325.5 134q130 0 233 -62t159 -167.5t56 -233.5q0 -51 -4 -78h-700q19 -111 91.5 -173.5t178.5 -62.5q89 0 149.5 35.5t75.5 95.5h189q-27 -129 -140.5 -212.5t-281.5 -83.5zM543 756q-103 0 -171 -61.5
t-87 -170.5h506q-15 110 -82 171t-166 61z" />
    <glyph glyph-name="f" unicode="f" horiz-adv-x="741" 
d="M57 901h164v148q0 401 340 401q92 0 158 -20v-168q-49 8 -119 8q-99 0 -140.5 -58.5t-41.5 -187.5v-123h280v-174h-280v-727h-197v727h-164v174z" />
    <glyph glyph-name="g" unicode="g" horiz-adv-x="1165" 
d="M834 29v108q-119 -139 -306 -139q-126 0 -228.5 62.5t-159 168t-56.5 230.5t56.5 231t159 169t228.5 63q186 0 306 -140v119h192v-895q0 -203 -126.5 -322.5t-338.5 -119.5q-199 0 -316 93t-130 228h194q13 -70 75.5 -111.5t172.5 -41.5q277 0 277 297zM829 459
q0 122 -79 206.5t-195 84.5q-118 0 -194 -84t-76 -207t76 -206t194 -83q117 0 195.5 83.5t78.5 205.5z" />
    <glyph glyph-name="h" unicode="h" horiz-adv-x="1124" 
d="M631 922q165 0 264.5 -102t99.5 -269v-551h-196v496q0 115 -58.5 181t-165.5 66t-173 -70t-66 -186v-487h-197v1434h197v-650q47 64 123.5 101t171.5 37z" />
    <glyph glyph-name="i" unicode="i" horiz-adv-x="479" 
d="M338 901v-901h-197v901h197zM117 1196q0 56 34 90.5t89 34.5q56 0 90.5 -34.5t34.5 -90.5q0 -54 -35 -88.5t-90 -34.5t-89 34.5t-34 88.5z" />
    <glyph glyph-name="j" unicode="j" horiz-adv-x="485" 
d="M147 -98v999h197v-1024q0 -332 -287 -332q-39 0 -127 15v172q44 -6 80 -6q74 0 105.5 42t31.5 134zM123 1196q0 56 34 90.5t89 34.5q56 0 90.5 -34.5t34.5 -90.5q0 -54 -35 -88.5t-90 -34.5t-89 34.5t-34 88.5z" />
    <glyph glyph-name="k" unicode="k" horiz-adv-x="1026" 
d="M995 901l-407 -377l413 -524h-233l-313 399l-119 -108v-291h-197v1434h197v-914l405 381h254z" />
    <glyph glyph-name="l" unicode="l" horiz-adv-x="479" 
d="M338 1434v-1434h-197v1434h197z" />
    <glyph glyph-name="m" unicode="m" horiz-adv-x="1755" 
d="M1270 922q161 0 259.5 -102t98.5 -267v-553h-196v498q0 113 -58 179t-160 66t-167.5 -69.5t-65.5 -184.5v-489h-197v498q0 114 -56.5 179.5t-158.5 65.5t-167.5 -69.5t-65.5 -184.5v-489h-197v901h191v-121q45 64 124 103t171 39q101 0 182 -44t127 -122q50 78 142 122
t194 44z" />
    <glyph glyph-name="n" unicode="n" horiz-adv-x="1124" 
d="M631 922q165 0 264.5 -102t99.5 -269v-551h-196v496q0 115 -58.5 181t-165.5 66t-173 -70t-66 -186v-487h-197v901h191v-125q45 67 124 106.5t177 39.5z" />
    <glyph glyph-name="o" unicode="o" horiz-adv-x="1118" 
d="M559 922q198 0 336.5 -136.5t138.5 -334.5q0 -196 -138.5 -333.5t-336.5 -137.5t-336.5 137.5t-138.5 333.5q0 198 138.5 334.5t336.5 136.5zM559 156q116 0 194 83.5t78 211.5q0 129 -77.5 211.5t-194.5 82.5t-194.5 -82.5t-77.5 -211.5q0 -128 78 -211.5t194 -83.5z
" />
    <glyph glyph-name="p" unicode="p" horiz-adv-x="1163" 
d="M1079 451q0 -199 -127 -335t-319 -136q-180 0 -297 133v-555h-197v1343h191v-123q118 144 305 144q191 0 317.5 -136t126.5 -335zM877 451q0 131 -75.5 214t-193.5 83q-117 0 -194.5 -83t-77.5 -214q0 -129 78 -213t194 -84q117 0 193 83.5t76 213.5z" />
    <glyph glyph-name="q" unicode="q" horiz-adv-x="1163" 
d="M84 451q0 199 126.5 335t317.5 136q187 0 306 -142v121h190v-1343h-197v555q-117 -133 -299 -133q-191 0 -317.5 136t-126.5 335zM287 451q0 -130 75.5 -213.5t192.5 -83.5q115 0 193.5 84t78.5 213q0 130 -78 213.5t-194 83.5q-117 0 -192.5 -83t-75.5 -214z" />
    <glyph glyph-name="r" unicode="r" horiz-adv-x="743" 
d="M694 903v-184q-27 6 -80 6q-136 0 -207 -82t-71 -221v-422h-197v901h191v-153q41 76 116.5 118.5t178.5 42.5q42 0 69 -6z" />
    <glyph glyph-name="s" unicode="s" horiz-adv-x="856" 
d="M430 139q78 0 125 28.5t47 82.5q0 51 -32.5 75.5t-125.5 43.5l-90 20q-137 27 -204.5 90.5t-67.5 171.5q0 123 92.5 196t245.5 73q89 0 156.5 -20.5t108 -58t62.5 -83.5t27 -103h-180q-14 107 -168 107q-70 0 -112 -28t-42 -77q0 -54 37.5 -77.5t124.5 -40.5l88 -19
q136 -25 204.5 -89t68.5 -175q0 -128 -96.5 -201t-266.5 -73q-174 0 -268 74.5t-107 197.5h181q8 -55 56.5 -85t135.5 -30z" />
    <glyph glyph-name="t" unicode="t" horiz-adv-x="815" 
d="M55 901h172v277h191v-277h315v-174h-315v-397q0 -94 40.5 -130t131.5 -36q74 0 149 22v-172q-81 -30 -188 -30q-160 0 -245 72.5t-85 242.5v428h-166v174z" />
    <glyph glyph-name="u" unicode="u" horiz-adv-x="1120" 
d="M492 -20q-165 0 -264 102.5t-99 267.5v551h197v-495q0 -116 56.5 -181t162.5 -65q108 0 173.5 69t65.5 185v487h197v-901h-190v127q-43 -68 -122 -107.5t-177 -39.5z" />
    <glyph glyph-name="v" unicode="v" 
d="M424 -2l-387 903h213l264 -655l268 655h207l-389 -903h-176z" />
    <glyph glyph-name="w" unicode="w" horiz-adv-x="1593" 
d="M1030 -2l-231 639l-240 -639h-170l-342 903h211l225 -635l240 635h174l221 -639l236 639h192l-342 -903h-174z" />
    <glyph glyph-name="x" unicode="x" horiz-adv-x="1026" 
d="M977 901l-350 -444l358 -457h-231l-244 319l-242 -319h-225l356 455l-348 446h230l233 -311l238 311h225z" />
    <glyph glyph-name="y" unicode="y" horiz-adv-x="1034" 
d="M250 901l276 -577l262 577h213l-630 -1343h-211l264 557l-389 786h215z" />
    <glyph glyph-name="z" unicode="z" horiz-adv-x="980" 
d="M115 729v172h770v-135l-516 -592h520v-174h-795v137l518 592h-497z" />
    <glyph glyph-name="braceleft" unicode="{" horiz-adv-x="909" 
d="M109 485v193q113 0 174 68t51 184l-12 164q-11 219 88 326.5t333 107.5h93v-185h-82q-122 0 -172 -55.5t-47 -181.5l10 -164q9 -144 -41 -236.5t-152 -123.5q102 -31 152 -124t41 -237l-10 -164q-3 -126 47 -181.5t172 -55.5h82v-185h-93q-234 0 -333 108t-88 327l12 163
q10 116 -51 184t-174 68z" />
    <glyph glyph-name="bar" unicode="|" horiz-adv-x="694" 
d="M451 1434v-1770h-205v1770h205z" />
    <glyph glyph-name="braceright" unicode="}" horiz-adv-x="909" 
d="M801 678v-193q-113 0 -174.5 -68t-51.5 -184l13 -163q12 -219 -87.5 -327t-332.5 -108h-92v185h82q121 0 170.5 55.5t46.5 181.5l-10 164q-9 145 41 237.5t153 123.5q-103 31 -153 123.5t-41 236.5l10 164q3 126 -46.5 181.5t-170.5 55.5h-82v185h92q233 0 332.5 -107.5
t87.5 -326.5l-13 -164q-10 -116 51.5 -184t174.5 -68z" />
    <glyph glyph-name="asciitilde" unicode="~" horiz-adv-x="1026" 
d="M774 594l129 -19q-16 -103 -70.5 -170t-144.5 -67q-32 0 -66 8t-55 16.5t-59 24.5q-8 3 -34 15t-38.5 17t-33.5 10t-40 5q-85 0 -110 -98l-129 18q16 104 70.5 171t144.5 67q32 0 66 -8t55 -16.5t59 -24.5q8 -3 34 -15t38.5 -17t33.5 -10t40 -5q85 0 110 98z" />
    <glyph glyph-name="uni00A0" unicode="&#xa0;" horiz-adv-x="468" 
 />
    <glyph glyph-name="exclamdown" unicode="&#xa1;" horiz-adv-x="591" 
d="M223 465h146q41 -410 41 -848v-149h-230v149q0 418 43 848zM154 772q0 60 40 100.5t101 40.5t101 -40.5t40 -100.5t-40 -100.5t-101 -40.5t-101 40.5t-40 100.5z" />
    <glyph glyph-name="cent" unicode="&#xa2;" horiz-adv-x="1341" 
d="M782 1106v-193q156 -24 251 -120t108 -218h-199q-30 122 -160 158v-565q66 17 107 59.5t55 100.5h199q-9 -80 -52 -150.5t-123.5 -122.5t-185.5 -67v-193h-172v191q-174 28 -285.5 158t-111.5 307q0 178 111.5 307t285.5 157v191h172zM418 451q0 -105 52 -180t140 -101
v561q-88 -25 -140 -100t-52 -180z" />
    <glyph glyph-name="sterling" unicode="&#xa3;" horiz-adv-x="1341" 
d="M92 788h160v111q0 117 33 217.5t96.5 176.5t163 119.5t225.5 43.5q116 0 206.5 -35.5t147 -96.5t87.5 -137t36 -163h-207q-8 106 -75 174t-191 68q-309 0 -309 -379v-99h444v-182h-444v-413h782v-193h-1155v193h160v413h-160v182z" />
    <glyph glyph-name="currency" unicode="&#xa4;" horiz-adv-x="1331" 
d="M295 1186l119 -121q118 80 252 80q135 0 249 -80l121 121l101 -101l-121 -120q80 -110 80 -248q0 -140 -80 -250l121 -119l-101 -100l-121 119q-111 -78 -249 -78q-137 0 -252 78l-119 -119l-100 100l118 119q-77 110 -77 250q0 138 77 248l-118 120zM666 408
q125 0 208.5 88t83.5 221t-83.5 221t-208.5 88t-209 -88t-84 -221t84 -221t209 -88z" />
    <glyph glyph-name="yen" unicode="&#xa5;" horiz-adv-x="1341" 
d="M172 453h391v61l-51 88h-340v172h240l-383 660h235l408 -725l407 725h234l-385 -660h241v-172h-342l-49 -86v-63h391v-172h-391v-281h-215v281h-391v172z" />
    <glyph glyph-name="brokenbar" unicode="&#xa6;" horiz-adv-x="694" 
d="M451 1434v-691h-205v691h205zM451 354v-690h-205v690h205z" />
    <glyph glyph-name="section" unicode="&#xa7;" horiz-adv-x="1341" 
d="M657 -172q124 0 194.5 45t70.5 129q0 63 -47 101.5t-144 60.5l-176 45q-183 42 -281 124.5t-98 219.5q0 97 55 171t156 114q-172 85 -172 274q0 160 120 252t333 92t327.5 -87t132.5 -239h-200q-12 71 -77 109.5t-181 38.5t-180 -42t-64 -120q0 -71 55 -109.5t164 -62.5
l180 -41q165 -34 252.5 -119t87.5 -217q0 -206 -198 -286q166 -87 166 -273q0 -169 -127 -263.5t-347 -94.5q-223 0 -350.5 91t-142.5 249h205q9 -79 82.5 -120.5t203.5 -41.5zM387 565q0 -79 60 -123t176 -67l79 -19q117 7 183.5 60.5t66.5 134.5q0 141 -198 184l-113 25
q-114 -6 -184 -58.5t-70 -136.5z" />
    <glyph glyph-name="dieresis" unicode="&#xa8;" 
d="M182 1184q0 54 34 88.5t89 34.5t90 -34.5t35 -88.5q0 -56 -35 -90.5t-90 -34.5t-89 34.5t-34 90.5zM594 1184q0 54 35 88.5t90 34.5t89 -34.5t34 -88.5q0 -56 -34 -90.5t-89 -34.5t-90 34.5t-35 90.5z" />
    <glyph glyph-name="copyright" unicode="&#xa9;" horiz-adv-x="1720" 
d="M860 1456q153 0 291 -58t237.5 -156.5t158.5 -235.5t59 -289q0 -203 -99.5 -373t-271 -268.5t-375.5 -98.5q-153 0 -291 58t-237.5 157t-158 236t-58.5 289t58.5 289t158 235.5t237.5 156.5t291 58zM860 135q161 0 293.5 76.5t208.5 210t76 295.5t-76 295t-208.5 209.5
t-293.5 76.5t-293 -76.5t-207 -209.5t-75 -295q0 -121 44.5 -229t120.5 -185.5t183 -122.5t227 -45zM479 717q0 166 112.5 278.5t278.5 112.5q157 0 253.5 -84.5t109.5 -200.5h-172q-14 57 -63 93t-124 36q-100 0 -161.5 -65.5t-61.5 -169.5q0 -103 62 -169.5t161 -66.5
q78 0 126.5 36.5t62.5 94.5h172q-13 -116 -110 -201t-255 -85q-165 0 -278 113t-113 278z" />
    <glyph glyph-name="ordfeminine" unicode="&#xaa;" horiz-adv-x="978" 
d="M66 1047q0 170 109.5 286.5t268.5 116.5q158 0 261 -121v105h165v-775h-165v105q-103 -121 -261 -121t-268 117t-110 287zM246 1047q0 -108 64 -177t167 -69q96 0 162 70t66 176t-65.5 174.5t-162.5 68.5q-104 0 -167.5 -67.5t-63.5 -175.5z" />
    <glyph glyph-name="guillemotleft" unicode="&#xab;" horiz-adv-x="1026" 
d="M516 846l-223 -379l223 -377h-207l-225 377l225 379h207zM936 846l-223 -379l223 -377h-207l-225 377l225 379h207z" />
    <glyph glyph-name="logicalnot" unicode="&#xac;" horiz-adv-x="1150" 
d="M86 850h924v-533h-199v355h-725v178z" />
    <glyph glyph-name="uni00AD" unicode="&#xad;" horiz-adv-x="811" 
d="M90 362v177h633v-177h-633z" />
    <glyph glyph-name="registered" unicode="&#xae;" horiz-adv-x="1005" 
d="M502 1456q181 0 306.5 -125t125.5 -303q0 -179 -125.5 -303.5t-306.5 -124.5t-305.5 124.5t-124.5 303.5q0 178 124.5 303t305.5 125zM502 698q140 0 233.5 94.5t93.5 235.5q0 140 -94 235t-233 95q-138 0 -232 -95t-94 -235q0 -141 94 -235.5t232 -94.5zM451 963v-134
h-107v402h188q77 0 119.5 -35.5t42.5 -95.5q0 -46 -25.5 -80t-72.5 -49l102 -142h-112l-94 134h-41zM451 1047h77q31 0 45.5 12t14.5 39q0 49 -60 49h-77v-100z" />
    <glyph glyph-name="macron" unicode="&#xaf;" 
d="M838 1243v-160h-652v160h652z" />
    <glyph glyph-name="degree" unicode="&#xb0;" horiz-adv-x="772" 
d="M387 1460q134 0 226 -93t92 -228q0 -134 -92.5 -227t-225.5 -93q-136 0 -227.5 93t-91.5 227q0 136 91.5 228.5t227.5 92.5zM387 958q75 0 124.5 52t49.5 129q0 79 -49.5 130.5t-124.5 51.5q-76 0 -125 -51t-49 -131q0 -77 49 -129t125 -52z" />
    <glyph glyph-name="plusminus" unicode="&#xb1;" horiz-adv-x="1255" 
d="M717 250h-178v285h-336v170h336v284h178v-284h336v-170h-336v-285zM1053 160v-160h-850v160h850z" />
    <glyph glyph-name="two.superior" unicode="&#xb2;" horiz-adv-x="806" 
d="M399 1679q-142 0 -151 -135h-160q6 128 85 206.5t233 78.5q139 0 217.5 -69t78.5 -177q0 -83 -44.5 -145.5t-131.5 -126.5l-143 -109h338v-147h-621v116l299 222q76 58 107 96t31 86t-37 76t-101 28z" />
    <glyph glyph-name="three.superior" unicode="&#xb3;" horiz-adv-x="806" 
d="M395 1683q-147 0 -153 -120h-158q6 124 87.5 195t229.5 71q129 0 213 -58t84 -167q0 -57 -27 -97t-67 -53q54 -16 85.5 -60t31.5 -116q0 -109 -88 -174.5t-225 -65.5q-159 0 -242 69t-92 198h159q9 -121 166 -121q154 0 154 106q0 92 -123 92h-82v127h82q53 0 79 21
t26 57q0 96 -140 96z" />
    <glyph glyph-name="acute" unicode="&#xb4;" 
d="M670 1440l139 -144l-326 -256l-90 90z" />
    <glyph glyph-name="mu" unicode="&#xb5;" horiz-adv-x="1128" 
d="M545 -20q-142 0 -209 77v-497h-197v1341h197v-498q0 -116 57 -179.5t162 -63.5q108 0 174 69t66 185v487h196v-901h-190v125q-43 -68 -113.5 -106.5t-142.5 -38.5z" />
    <glyph glyph-name="paragraph" unicode="&#xb6;" horiz-adv-x="1196" 
d="M608 1434h522v-179h-159q-68 0 -94.5 -27.5t-26.5 -94.5v-1252q0 -162 -75.5 -250t-221.5 -88q-51 0 -150 17v180q54 -8 93 -8q79 0 112 43t33 139v479h-33q-142 0 -260 67.5t-187 187t-69 265.5q0 147 69 266.5t187 187t260 67.5z" />
    <glyph glyph-name="periodcentered" unicode="&#xb7;" horiz-adv-x="520" 
d="M119 453q0 60 40 99.5t101 39.5t101 -39.5t40 -99.5t-40 -101t-101 -41t-101 41t-40 101z" />
    <glyph glyph-name="cedilla" unicode="&#xb8;" 
d="M545 -330h-199l125 334h172z" />
    <glyph glyph-name="one.superior" unicode="&#xb9;" horiz-adv-x="806" 
d="M391 1055v585l-201 -63l-45 141l275 97h135v-760h-164z" />
    <glyph glyph-name="ordmasculine" unicode="&#xba;" horiz-adv-x="948" 
d="M473 1450q172 0 291 -116.5t119 -286.5t-119 -287t-291 -117q-171 0 -289 117t-118 287t118 286.5t289 116.5zM473 801q98 0 163.5 69t65.5 177q0 107 -65.5 175t-163.5 68t-162.5 -67.5t-64.5 -175.5t64.5 -177t162.5 -69z" />
    <glyph glyph-name="guillemotright" unicode="&#xbb;" horiz-adv-x="1026" 
d="M90 90l223 377l-223 379h207l223 -379l-223 -377h-207zM510 90l223 377l-223 379h207l223 -379l-223 -377h-207z" />
    <glyph glyph-name="onequarter" unicode="&#xbc;" horiz-adv-x="1888" 
d="M1722 760v-461h121v-143h-121v-156h-163v156h-418v123l440 481h141zM1325 299h236v254zM639 0h-193l881 1434h193zM391 676v586l-201 -64l-45 141l275 97h135v-760h-164z" />
    <glyph glyph-name="onehalf" unicode="&#xbd;" horiz-adv-x="1888" 
d="M584 0h-193l881 1434h192zM1479 625q-143 0 -152 -136h-160q6 128 85 206.5t233 78.5q139 0 218 -69t79 -177q0 -83 -44.5 -145.5t-131.5 -126.5l-144 -109h338v-147h-620v117l299 221q75 57 106 95.5t31 86.5t-36.5 76.5t-100.5 28.5zM391 676v586l-201 -64l-45 141
l275 97h135v-760h-164z" />
    <glyph glyph-name="threequarters" unicode="&#xbe;" horiz-adv-x="1888" 
d="M395 1305q-146 0 -153 -121h-158q6 124 87.5 195t229.5 71q129 0 213 -58t84 -167q0 -57 -27 -97t-67 -53q54 -16 85.5 -60t31.5 -116q0 -109 -88 -174.5t-225 -65.5q-159 0 -242 69t-92 198h159q9 -121 166 -121q154 0 154 106q0 93 -123 93h-82v126h82q53 0 79 21
t26 57q0 97 -140 97zM668 0h-193l881 1434h192zM1722 760v-461h121v-143h-121v-156h-163v156h-418v123l440 481h141zM1325 299h236v254z" />
    <glyph glyph-name="questiondown" unicode="&#xbf;" horiz-adv-x="1171" 
d="M113 -133q0 66 25 126.5t62.5 104.5t90.5 83t100.5 64t100.5 46l16 174h162l20 -262q-56 -20 -101 -40t-95.5 -50t-84.5 -62.5t-56.5 -76.5t-22.5 -93q0 -113 75.5 -178t219.5 -65q300 0 319 272h211q-5 -99 -38.5 -181t-96 -147t-164.5 -101t-235 -36
q-239 0 -373.5 118.5t-134.5 303.5zM449 772q0 60 40.5 100.5t102.5 40.5q61 0 101 -40.5t40 -100.5t-40 -100.5t-101 -40.5q-62 0 -102.5 40.5t-40.5 100.5z" />
    <glyph glyph-name="Agrave" unicode="&#xc0;" horiz-adv-x="1542" 
d="M1274 0l-154 358h-702l-152 -358h-219l629 1438h192l627 -1438h-221zM770 1188l-268 -631h534zM457 1769l139 148l262 -285l-90 -92z" />
    <glyph glyph-name="Aacute" unicode="&#xc1;" horiz-adv-x="1542" 
d="M1274 0l-154 358h-702l-152 -358h-219l629 1438h192l627 -1438h-221zM770 1188l-268 -631h534zM942 1917l139 -148l-311 -229l-90 92z" />
    <glyph glyph-name="Acircumflex" unicode="&#xc2;" horiz-adv-x="1542" 
d="M1274 0l-154 358h-702l-152 -358h-219l629 1438h192l627 -1438h-221zM770 1188l-268 -631h534zM666 1847h208l252 -299h-192l-164 156l-164 -156h-192z" />
    <glyph glyph-name="Atilde" unicode="&#xc3;" horiz-adv-x="1542" 
d="M1274 0l-154 358h-702l-152 -358h-219l629 1438h192l627 -1438h-221zM770 1188l-268 -631h534zM989 1778l129 -23q-21 -97 -71.5 -156t-135.5 -59q-55 0 -143.5 40t-126.5 40q-65 0 -90 -76l-129 21q21 98 71.5 157.5t135.5 59.5q55 0 143.5 -40t126.5 -40q66 0 90 76z
" />
    <glyph glyph-name="Adieresis" unicode="&#xc4;" horiz-adv-x="1542" 
d="M1274 0l-154 358h-702l-152 -358h-219l629 1438h192l627 -1438h-221zM770 1188l-268 -631h534zM422 1663q0 54 35 89.5t90 35.5q57 0 92 -35t35 -90q0 -56 -35 -91.5t-92 -35.5q-55 0 -90 35.5t-35 91.5zM866 1663q0 55 35 90t92 35q55 0 90 -35.5t35 -89.5
q0 -56 -35 -91.5t-90 -35.5q-57 0 -92 35.5t-35 91.5z" />
    <glyph glyph-name="Aring" unicode="&#xc5;" horiz-adv-x="1542" 
d="M1274 0l-154 358h-702l-152 -358h-219l629 1438h192l627 -1438h-221zM770 1188l-268 -631h534zM770 1540q-96 0 -160.5 62.5t-64.5 154.5q0 94 64 156.5t161 62.5t161 -62.5t64 -156.5q0 -92 -64.5 -154.5t-160.5 -62.5zM770 1649q46 0 77.5 30.5t31.5 77.5t-31.5 78
t-77.5 31t-76 -31t-30 -78t30 -77.5t76 -30.5z" />
    <glyph glyph-name="AE" unicode="&#xc6;" horiz-adv-x="2293" 
d="M2157 1434v-197h-803v-418h753v-194h-753v-428h813v-197h-1030v352h-619l-250 -352h-245l1028 1434h1106zM653 545h484v680z" />
    <glyph glyph-name="Ccedilla" unicode="&#xc7;" horiz-adv-x="1669" 
d="M870 -340h-208l120 322q-189 20 -339.5 121.5t-235 262.5t-84.5 351q0 153 57.5 289.5t156 235.5t238 156.5t297.5 57.5q174 0 321.5 -65t244 -182.5t123.5 -268.5h-226q-35 137 -156.5 224t-304.5 87q-230 0 -379 -150.5t-149 -383.5t149 -384t379 -151
q183 0 304.5 87.5t158.5 226.5h226q-38 -210 -201.5 -348.5t-396.5 -163.5z" />
    <glyph glyph-name="Egrave" unicode="&#xc8;" horiz-adv-x="1335" 
d="M1208 0h-1030v1434h1022v-197h-807v-418h756v-194h-756v-428h815v-197zM403 1769l140 148l262 -285l-90 -92z" />
    <glyph glyph-name="Eacute" unicode="&#xc9;" horiz-adv-x="1335" 
d="M1208 0h-1030v1434h1022v-197h-807v-418h756v-194h-756v-428h815v-197zM889 1917l139 -148l-311 -229l-90 92z" />
    <glyph glyph-name="Ecircumflex" unicode="&#xca;" horiz-adv-x="1335" 
d="M1208 0h-1030v1434h1022v-197h-807v-418h756v-194h-756v-428h815v-197zM612 1847h209l252 -299h-192l-164 156l-164 -156h-193z" />
    <glyph glyph-name="Edieresis" unicode="&#xcb;" horiz-adv-x="1335" 
d="M1208 0h-1030v1434h1022v-197h-807v-418h756v-194h-756v-428h815v-197zM369 1663q0 54 35 89.5t90 35.5q56 0 91.5 -35t35.5 -90q0 -56 -35 -91.5t-92 -35.5q-55 0 -90 35.5t-35 91.5zM813 1663q0 55 35.5 90t91.5 35q55 0 90 -35.5t35 -89.5q0 -56 -35 -91.5t-90 -35.5
q-57 0 -92 35.5t-35 91.5z" />
    <glyph glyph-name="Igrave" unicode="&#xcc;" horiz-adv-x="585" 
d="M401 1434v-1434h-217v1434h217zM-18 1769l139 148l262 -285l-90 -92z" />
    <glyph glyph-name="Iacute" unicode="&#xcd;" horiz-adv-x="585" 
d="M401 1434v-1434h-217v1434h217zM465 1917l139 -148l-311 -229l-90 92z" />
    <glyph glyph-name="Icircumflex" unicode="&#xce;" horiz-adv-x="585" 
d="M401 1434v-1434h-217v1434h217zM188 1847h209l252 -299h-192l-164 156l-164 -156h-192z" />
    <glyph glyph-name="Idieresis" unicode="&#xcf;" horiz-adv-x="585" 
d="M401 1434v-1434h-217v1434h217zM-55 1663q0 54 35 89.5t90 35.5q56 0 91.5 -35t35.5 -90q0 -56 -35 -91.5t-92 -35.5q-55 0 -90 35.5t-35 91.5zM389 1663q0 55 35.5 90t91.5 35q55 0 90 -35.5t35 -89.5q0 -56 -35 -91.5t-90 -35.5q-57 0 -92 35.5t-35 91.5z" />
    <glyph glyph-name="Eth" unicode="&#xd0;" horiz-adv-x="1564" 
d="M1442 719q0 -152 -55.5 -285t-153.5 -228.5t-238.5 -150.5t-304.5 -55h-510v639h-160v162h160v633h510q218 0 390.5 -93.5t267 -256.5t94.5 -365zM395 201h289q248 0 391.5 144t143.5 374q0 228 -143.5 371t-389.5 143h-291v-432h371v-162h-371v-438z" />
    <glyph glyph-name="Ntilde" unicode="&#xd1;" horiz-adv-x="1597" 
d="M178 1436h201l829 -1096v1094h211v-1436h-198l-830 1092v-1090h-213v1436zM1018 1778l129 -23q-21 -97 -71.5 -156t-135.5 -59q-55 0 -143.5 40t-126.5 40q-65 0 -90 -76l-129 21q46 217 206 217q55 0 144 -40t127 -40q66 0 90 76z" />
    <glyph glyph-name="Ograve" unicode="&#xd2;" horiz-adv-x="1736" 
d="M868 1456q153 0 291.5 -57.5t238 -156t158 -235.5t58.5 -290t-58.5 -290t-158 -235.5t-238 -156.5t-291.5 -58q-205 0 -376 98t-270 268t-99 374q0 153 58.5 290t157.5 235.5t237.5 156t291.5 57.5zM868 182q144 0 263 68.5t188.5 191.5t69.5 275t-69.5 274.5t-188.5 191
t-263 68.5t-263.5 -68.5t-189 -191t-69.5 -274.5q0 -114 41 -213.5t111 -170t166 -111t204 -40.5zM555 1769l139 148l262 -285l-90 -92z" />
    <glyph glyph-name="Oacute" unicode="&#xd3;" horiz-adv-x="1736" 
d="M868 1456q153 0 291.5 -57.5t238 -156t158 -235.5t58.5 -290t-58.5 -290t-158 -235.5t-238 -156.5t-291.5 -58q-205 0 -376 98t-270 268t-99 374q0 153 58.5 290t157.5 235.5t237.5 156t291.5 57.5zM868 182q144 0 263 68.5t188.5 191.5t69.5 275t-69.5 274.5t-188.5 191
t-263 68.5t-263.5 -68.5t-189 -191t-69.5 -274.5q0 -114 41 -213.5t111 -170t166 -111t204 -40.5zM1040 1917l140 -148l-312 -229l-90 92z" />
    <glyph glyph-name="Ocircumflex" unicode="&#xd4;" horiz-adv-x="1736" 
d="M868 1456q153 0 291.5 -57.5t238 -156t158 -235.5t58.5 -290t-58.5 -290t-158 -235.5t-238 -156.5t-291.5 -58q-205 0 -376 98t-270 268t-99 374q0 153 58.5 290t157.5 235.5t237.5 156t291.5 57.5zM868 182q144 0 263 68.5t188.5 191.5t69.5 275t-69.5 274.5t-188.5 191
t-263 68.5t-263.5 -68.5t-189 -191t-69.5 -274.5q0 -114 41 -213.5t111 -170t166 -111t204 -40.5zM764 1847h209l252 -299h-193l-164 156l-163 -156h-193z" />
    <glyph glyph-name="Otilde" unicode="&#xd5;" horiz-adv-x="1736" 
d="M868 1456q153 0 291.5 -57.5t238 -156t158 -235.5t58.5 -290t-58.5 -290t-158 -235.5t-238 -156.5t-291.5 -58q-205 0 -376 98t-270 268t-99 374q0 153 58.5 290t157.5 235.5t237.5 156t291.5 57.5zM868 182q144 0 263 68.5t188.5 191.5t69.5 275t-69.5 274.5t-188.5 191
t-263 68.5t-263.5 -68.5t-189 -191t-69.5 -274.5q0 -114 41 -213.5t111 -170t166 -111t204 -40.5zM1087 1778l130 -23q-21 -97 -71.5 -156t-135.5 -59q-55 0 -144 40t-127 40q-65 0 -90 -76l-129 21q21 98 71.5 157.5t135.5 59.5q55 0 143.5 -40t126.5 -40q66 0 90 76z" />
    <glyph glyph-name="Odieresis" unicode="&#xd6;" horiz-adv-x="1736" 
d="M868 1456q153 0 291.5 -57.5t238 -156t158 -235.5t58.5 -290t-58.5 -290t-158 -235.5t-238 -156.5t-291.5 -58q-205 0 -376 98t-270 268t-99 374q0 153 58.5 290t157.5 235.5t237.5 156t291.5 57.5zM868 182q144 0 263 68.5t188.5 191.5t69.5 275t-69.5 274.5t-188.5 191
t-263 68.5t-263.5 -68.5t-189 -191t-69.5 -274.5q0 -114 41 -213.5t111 -170t166 -111t204 -40.5zM520 1663q0 54 35 89.5t90 35.5q57 0 92 -35t35 -90q0 -56 -35 -91.5t-92 -35.5q-55 0 -90 35.5t-35 91.5zM965 1663q0 55 35.5 90t91.5 35q55 0 90 -35.5t35 -89.5
q0 -56 -35 -91.5t-90 -35.5q-57 0 -92 35.5t-35 91.5z" />
    <glyph glyph-name="multiply" unicode="&#xd7;" horiz-adv-x="1255" 
d="M250 760l123 123l254 -256l256 256l125 -123l-256 -256l256 -254l-125 -123l-256 254l-254 -254l-123 123l254 254z" />
    <glyph glyph-name="Oslash" unicode="&#xd8;" horiz-adv-x="1740" 
d="M870 1456q251 0 451 -147l135 143l117 -113l-135 -141q178 -207 178 -481q0 -153 -58.5 -290t-158 -235.5t-238 -156.5t-291.5 -58q-251 0 -452 148l-133 -143l-119 112l133 142q-174 206 -174 481q0 153 58.5 290t157.5 235.5t237.5 156t291.5 57.5zM870 182
q108 0 204 41t166 111.5t110.5 170t40.5 212.5q0 184 -105 327l-725 -763q135 -99 309 -99zM350 717q0 -188 103 -328l725 764q-138 98 -308 98q-144 0 -263 -69t-188 -191.5t-69 -273.5z" />
    <glyph glyph-name="Ugrave" unicode="&#xd9;" horiz-adv-x="1552" 
d="M776 -23q-175 0 -310 66.5t-215.5 205t-80.5 333.5v852h217v-824q0 -214 103.5 -322t287.5 -108t287.5 108t103.5 322v824h215v-852q0 -195 -81 -333.5t-216.5 -205t-310.5 -66.5zM465 1769l139 148l262 -285l-90 -92z" />
    <glyph glyph-name="Uacute" unicode="&#xda;" horiz-adv-x="1552" 
d="M776 -23q-175 0 -310 66.5t-215.5 205t-80.5 333.5v852h217v-824q0 -214 103.5 -322t287.5 -108t287.5 108t103.5 322v824h215v-852q0 -195 -81 -333.5t-216.5 -205t-310.5 -66.5zM950 1917l140 -148l-312 -229l-90 92z" />
    <glyph glyph-name="Ucircumflex" unicode="&#xdb;" horiz-adv-x="1552" 
d="M776 -23q-175 0 -310 66.5t-215.5 205t-80.5 333.5v852h217v-824q0 -214 103.5 -322t287.5 -108t287.5 108t103.5 322v824h215v-852q0 -195 -81 -333.5t-216.5 -205t-310.5 -66.5zM674 1847h209l252 -299h-193l-164 156l-164 -156h-192z" />
    <glyph glyph-name="Udieresis" unicode="&#xdc;" horiz-adv-x="1552" 
d="M776 -23q-175 0 -310 66.5t-215.5 205t-80.5 333.5v852h217v-824q0 -214 103.5 -322t287.5 -108t287.5 108t103.5 322v824h215v-852q0 -195 -81 -333.5t-216.5 -205t-310.5 -66.5zM430 1663q0 54 35 89.5t90 35.5q57 0 92 -35t35 -90q0 -56 -35 -91.5t-92 -35.5
q-55 0 -90 35.5t-35 91.5zM874 1663q0 55 35 90t92 35q55 0 90 -35.5t35 -89.5q0 -56 -35 -91.5t-90 -35.5q-57 0 -92 35.5t-35 91.5z" />
    <glyph glyph-name="Yacute" unicode="&#xdd;" horiz-adv-x="1413" 
d="M268 1434l439 -684l440 684h244l-578 -887v-547h-215v545l-575 889h245zM879 1917l139 -148l-311 -229l-91 92z" />
    <glyph glyph-name="Thorn" unicode="&#xde;" horiz-adv-x="1404" 
d="M393 324v-324h-215v1434h215v-224h393q246 0 381.5 -118.5t135.5 -321.5t-139 -324.5t-384 -121.5h-387zM393 518h367q321 0 321 248q0 123 -81.5 185.5t-239.5 62.5h-367v-496z" />
    <glyph glyph-name="germandbls" unicode="&#xdf;" horiz-adv-x="1355" 
d="M139 911q0 244 146.5 394.5t412.5 150.5q231 0 370.5 -114.5t139.5 -284.5q0 -129 -60.5 -215t-150.5 -113q111 -17 192 -105t81 -233q0 -205 -128 -309.5t-354 -104.5q-169 0 -272 35v166q118 -28 250 -28q153 0 228 59t75 188q0 123 -86.5 181.5t-239.5 58.5h-120v166
h94q146 0 220.5 56t74.5 185q0 108 -83.5 175t-228.5 67q-184 0 -274 -101t-90 -288v-897h-197v911z" />
    <glyph glyph-name="agrave" unicode="&#xe0;" horiz-adv-x="1163" 
d="M84 451q0 199 126.5 335t317.5 136q187 0 306 -142v121h190v-901h-190v121q-118 -141 -306 -141q-192 0 -318 135.5t-126 335.5zM287 451q0 -130 75.5 -213.5t192.5 -83.5q115 0 193.5 84t78.5 213t-78.5 213t-193.5 84q-117 0 -192.5 -83.5t-75.5 -213.5zM225 1296
l140 144l276 -310l-90 -90z" />
    <glyph glyph-name="aacute" unicode="&#xe1;" horiz-adv-x="1163" 
d="M84 451q0 199 126.5 335t317.5 136q187 0 306 -142v121h190v-901h-190v121q-118 -141 -306 -141q-192 0 -318 135.5t-126 335.5zM287 451q0 -130 75.5 -213.5t192.5 -83.5q115 0 193.5 84t78.5 213t-78.5 213t-193.5 84q-117 0 -192.5 -83.5t-75.5 -213.5zM737 1440
l140 -144l-326 -256l-90 90z" />
    <glyph glyph-name="acircumflex" unicode="&#xe2;" horiz-adv-x="1163" 
d="M84 451q0 199 126.5 335t317.5 136q187 0 306 -142v121h190v-901h-190v121q-118 -141 -306 -141q-192 0 -318 135.5t-126 335.5zM287 451q0 -130 75.5 -213.5t192.5 -83.5q115 0 193.5 84t78.5 213t-78.5 213t-193.5 84q-117 0 -192.5 -83.5t-75.5 -213.5zM446 1362h209
l246 -305h-190l-160 166l-160 -166h-190z" />
    <glyph glyph-name="atilde" unicode="&#xe3;" horiz-adv-x="1163" 
d="M84 451q0 199 126.5 335t317.5 136q187 0 306 -142v121h190v-901h-190v121q-118 -141 -306 -141q-192 0 -318 135.5t-126 335.5zM287 451q0 -130 75.5 -213.5t192.5 -83.5q115 0 193.5 84t78.5 213t-78.5 213t-193.5 84q-117 0 -192.5 -83.5t-75.5 -213.5zM891 1268
q-46 -219 -203 -219q-50 0 -137.5 40.5t-124.5 40.5q-64 0 -88 -75l-127 20q21 97 70.5 157t132.5 60q50 0 137.5 -41t124.5 -41q35 0 55.5 18.5t32.5 57.5z" />
    <glyph glyph-name="adieresis" unicode="&#xe4;" horiz-adv-x="1163" 
d="M84 451q0 199 126.5 335t317.5 136q187 0 306 -142v121h190v-901h-190v121q-118 -141 -306 -141q-192 0 -318 135.5t-126 335.5zM287 451q0 -130 75.5 -213.5t192.5 -83.5q115 0 193.5 84t78.5 213t-78.5 213t-193.5 84q-117 0 -192.5 -83.5t-75.5 -213.5zM221 1184
q0 54 34 88.5t89 34.5t90 -34.5t35 -88.5q0 -56 -34.5 -90.5t-90.5 -34.5q-55 0 -89 34.5t-34 90.5zM633 1184q0 54 35 88.5t90 34.5t89 -34.5t34 -88.5q0 -56 -34 -90.5t-89 -34.5q-56 0 -90.5 34.5t-34.5 90.5z" />
    <glyph glyph-name="aring" unicode="&#xe5;" horiz-adv-x="1163" 
d="M84 451q0 199 126.5 335t317.5 136q187 0 306 -142v121h190v-901h-190v121q-118 -141 -306 -141q-192 0 -318 135.5t-126 335.5zM287 451q0 -130 75.5 -213.5t192.5 -83.5q115 0 193.5 84t78.5 213t-78.5 213t-193.5 84q-117 0 -192.5 -83.5t-75.5 -213.5zM551 1032
q-95 0 -159 62.5t-64 154.5t64 154.5t159 62.5q96 0 159.5 -62t63.5 -155t-63.5 -155t-159.5 -62zM551 1141q47 0 77.5 30.5t30.5 77.5t-30.5 78t-77.5 31t-78 -31t-31 -78t31 -77.5t78 -30.5z" />
    <glyph glyph-name="ae" unicode="&#xe6;" horiz-adv-x="1683" 
d="M1599 373h-684q21 -106 92.5 -166t168.5 -60q85 0 143.5 35.5t75.5 96.5h188q-27 -129 -139 -214t-277 -85q-107 0 -197 45t-151 125q-119 -166 -385 -166q-71 0 -132 15t-111.5 46t-79.5 84.5t-29 124.5q0 125 89 193.5t255 68.5h299q2 22 10 57q-8 86 -61.5 133.5
t-151.5 47.5q-88 0 -138.5 -31t-61.5 -80h-191q11 119 114.5 198t280.5 79q222 0 320 -140q61 67 144 104.5t175 37.5q124 0 225.5 -62.5t157.5 -169.5t56 -235q0 -14 -5 -82zM1169 754q-100 0 -169.5 -63.5t-86.5 -174.5h494q-15 111 -82 174.5t-156 63.5zM735 326
q-4 13 -8 47h-264q-101 0 -145 -28.5t-44 -88.5q0 -115 175 -115q125 0 201 47.5t85 137.5z" />
    <glyph glyph-name="ccedilla" unicode="&#xe7;" horiz-adv-x="1069" 
d="M551 -334h-199l119 322q-169 28 -278 157.5t-109 305.5q0 199 135.5 335t335.5 136q98 0 179.5 -29.5t135.5 -79t86.5 -110.5t40.5 -128h-198q-18 75 -79.5 121.5t-160.5 46.5q-120 0 -196 -81t-76 -211q0 -129 76 -211t196 -82q100 0 160.5 47t79.5 123h198
q-13 -124 -105.5 -220t-246.5 -120z" />
    <glyph glyph-name="egrave" unicode="&#xe8;" horiz-adv-x="1067" 
d="M545 -20q-200 0 -330.5 133.5t-130.5 337.5q0 203 129.5 337t325.5 134q130 0 233 -62t159 -167.5t56 -233.5q0 -51 -4 -78h-700q19 -111 91.5 -173.5t178.5 -62.5q89 0 149.5 35.5t75.5 95.5h189q-27 -129 -140.5 -212.5t-281.5 -83.5zM543 756q-103 0 -171 -61.5
t-87 -170.5h506q-15 110 -82 171t-166 61zM213 1296l139 144l277 -310l-90 -90z" />
    <glyph glyph-name="eacute" unicode="&#xe9;" horiz-adv-x="1067" 
d="M545 -20q-200 0 -330.5 133.5t-130.5 337.5q0 203 129.5 337t325.5 134q130 0 233 -62t159 -167.5t56 -233.5q0 -51 -4 -78h-700q19 -111 91.5 -173.5t178.5 -62.5q89 0 149.5 35.5t75.5 95.5h189q-27 -129 -140.5 -212.5t-281.5 -83.5zM543 756q-103 0 -171 -61.5
t-87 -170.5h506q-15 110 -82 171t-166 61zM727 1440l139 -144l-325 -256l-90 90z" />
    <glyph glyph-name="ecircumflex" unicode="&#xea;" horiz-adv-x="1067" 
d="M545 -20q-200 0 -330.5 133.5t-130.5 337.5q0 203 129.5 337t325.5 134q130 0 233 -62t159 -167.5t56 -233.5q0 -51 -4 -78h-700q19 -111 91.5 -173.5t178.5 -62.5q89 0 149.5 35.5t75.5 95.5h189q-27 -129 -140.5 -212.5t-281.5 -83.5zM436 1362h209l246 -305h-191
l-159 166l-160 -166h-191zM543 756q-103 0 -171 -61.5t-87 -170.5h506q-15 110 -82 171t-166 61z" />
    <glyph glyph-name="edieresis" unicode="&#xeb;" horiz-adv-x="1067" 
d="M545 -20q-200 0 -330.5 133.5t-130.5 337.5q0 203 129.5 337t325.5 134q130 0 233 -62t159 -167.5t56 -233.5q0 -51 -4 -78h-700q19 -111 91.5 -173.5t178.5 -62.5q89 0 149.5 35.5t75.5 95.5h189q-27 -129 -140.5 -212.5t-281.5 -83.5zM543 756q-103 0 -171 -61.5
t-87 -170.5h506q-15 110 -82 171t-166 61zM211 1184q0 54 34 88.5t89 34.5t90 -34.5t35 -88.5q0 -56 -34.5 -90.5t-90.5 -34.5q-55 0 -89 34.5t-34 90.5zM623 1184q0 54 35 88.5t90 34.5t88.5 -34.5t33.5 -88.5q0 -56 -33.5 -90.5t-88.5 -34.5q-56 0 -90.5 34.5t-34.5 90.5z
" />
    <glyph glyph-name="igrave" unicode="&#xec;" horiz-adv-x="479" 
d="M338 901v-901h-197v901h197zM-86 1296l139 144l277 -310l-90 -90z" />
    <glyph glyph-name="iacute" unicode="&#xed;" horiz-adv-x="479" 
d="M338 901v-901h-197v901h197zM428 1440l139 -144l-325 -256l-90 90z" />
    <glyph glyph-name="icircumflex" unicode="&#xee;" horiz-adv-x="479" 
d="M338 901v-901h-197v901h197zM137 1362h205l219 -303h-186l-135 166l-136 -166h-186z" />
    <glyph glyph-name="idieresis" unicode="&#xef;" horiz-adv-x="479" 
d="M338 901v-901h-197v901h197zM-76 1184q0 54 35 88.5t90 34.5t89 -34.5t34 -88.5q0 -56 -34 -90.5t-89 -34.5t-90 34.5t-35 90.5zM307 1184q0 54 34 88.5t89 34.5t90 -34.5t35 -88.5q0 -56 -34.5 -90.5t-90.5 -34.5q-55 0 -89 34.5t-34 90.5z" />
    <glyph glyph-name="eth" unicode="&#xf0;" horiz-adv-x="1120" 
d="M868 1440l78 -123l-237 -137q148 -152 236.5 -331.5t88.5 -365.5q0 -229 -135.5 -366t-343.5 -137q-96 0 -183 36t-150 97t-100.5 146.5t-37.5 180.5q0 196 136.5 326.5t334.5 130.5q105 0 213 -55q-83 136 -205 252l-239 -138l-76 123l196 115q-95 70 -196 119l98 135
q129 -66 250 -166zM555 156q115 0 192.5 79.5t77.5 202.5q0 124 -77.5 203.5t-192.5 79.5q-114 0 -191 -79.5t-77 -203.5q0 -123 77 -202.5t191 -79.5z" />
    <glyph glyph-name="ntilde" unicode="&#xf1;" horiz-adv-x="1124" 
d="M631 922q165 0 264.5 -102t99.5 -269v-551h-196v496q0 115 -58.5 181t-165.5 66t-173 -70t-66 -186v-487h-197v901h191v-125q45 67 124 106.5t177 39.5zM920 1268q-46 -219 -203 -219q-50 0 -137.5 40.5t-124.5 40.5q-64 0 -88 -75l-127 20q46 217 202 217q50 0 138 -41
t125 -41q35 0 55.5 18.5t32.5 57.5z" />
    <glyph glyph-name="ograve" unicode="&#xf2;" horiz-adv-x="1118" 
d="M559 922q198 0 336.5 -136.5t138.5 -334.5q0 -196 -138.5 -333.5t-336.5 -137.5t-336.5 137.5t-138.5 333.5q0 198 138.5 334.5t336.5 136.5zM559 156q116 0 194 83.5t78 211.5q0 129 -77.5 211.5t-194.5 82.5t-194.5 -82.5t-77.5 -211.5q0 -128 78 -211.5t194 -83.5z
M233 1296l140 144l276 -310l-90 -90z" />
    <glyph glyph-name="oacute" unicode="&#xf3;" horiz-adv-x="1118" 
d="M559 922q198 0 336.5 -136.5t138.5 -334.5q0 -196 -138.5 -333.5t-336.5 -137.5t-336.5 137.5t-138.5 333.5q0 198 138.5 334.5t336.5 136.5zM559 156q116 0 194 83.5t78 211.5q0 129 -77.5 211.5t-194.5 82.5t-194.5 -82.5t-77.5 -211.5q0 -128 78 -211.5t194 -83.5z
M745 1440l140 -144l-326 -256l-90 90z" />
    <glyph glyph-name="ocircumflex" unicode="&#xf4;" horiz-adv-x="1118" 
d="M559 922q198 0 336.5 -136.5t138.5 -334.5q0 -196 -138.5 -333.5t-336.5 -137.5t-336.5 137.5t-138.5 333.5q0 198 138.5 334.5t336.5 136.5zM559 156q116 0 194 83.5t78 211.5q0 129 -77.5 211.5t-194.5 82.5t-194.5 -82.5t-77.5 -211.5q0 -128 78 -211.5t194 -83.5z
M455 1362h209l245 -305h-190l-160 166l-160 -166h-190z" />
    <glyph glyph-name="otilde" unicode="&#xf5;" horiz-adv-x="1118" 
d="M559 922q198 0 336.5 -136.5t138.5 -334.5q0 -196 -138.5 -333.5t-336.5 -137.5t-336.5 137.5t-138.5 333.5q0 198 138.5 334.5t336.5 136.5zM559 156q116 0 194 83.5t78 211.5q0 129 -77.5 211.5t-194.5 82.5t-194.5 -82.5t-77.5 -211.5q0 -128 78 -211.5t194 -83.5z
M899 1268q-46 -219 -203 -219q-50 0 -137.5 40.5t-124.5 40.5q-64 0 -88 -75l-127 20q21 97 70.5 157t132.5 60q50 0 137.5 -41t124.5 -41q35 0 55.5 18.5t32.5 57.5z" />
    <glyph glyph-name="odieresis" unicode="&#xf6;" horiz-adv-x="1118" 
d="M559 922q198 0 336.5 -136.5t138.5 -334.5q0 -196 -138.5 -333.5t-336.5 -137.5t-336.5 137.5t-138.5 333.5q0 198 138.5 334.5t336.5 136.5zM559 156q116 0 194 83.5t78 211.5q0 129 -77.5 211.5t-194.5 82.5t-194.5 -82.5t-77.5 -211.5q0 -128 78 -211.5t194 -83.5z
M229 1184q0 54 34 88.5t89 34.5t90 -34.5t35 -88.5q0 -56 -34.5 -90.5t-90.5 -34.5q-55 0 -89 34.5t-34 90.5zM641 1184q0 54 35 88.5t90 34.5t89 -34.5t34 -88.5q0 -56 -34 -90.5t-89 -34.5q-56 0 -90.5 34.5t-34.5 90.5z" />
    <glyph glyph-name="divide" unicode="&#xf7;" horiz-adv-x="1255" 
d="M1049 590v-170h-840v170h840zM487 864q0 60 40.5 100t101.5 40q60 0 99.5 -40t39.5 -100q0 -59 -39.5 -99t-99.5 -40q-61 0 -101.5 40t-40.5 99zM487 145q0 60 40.5 101t101.5 41q60 0 99.5 -41t39.5 -101q0 -59 -39.5 -99t-99.5 -40q-61 0 -101.5 40t-40.5 99z" />
    <glyph glyph-name="oslash" unicode="&#xf8;" horiz-adv-x="1120" 
d="M559 922q150 0 277 -86l69 73l92 -86l-69 -73q106 -125 106 -299q0 -197 -138 -334t-337 -137q-152 0 -274 83l-70 -73l-92 86l70 74q-107 129 -107 301q0 198 137.5 334.5t335.5 136.5zM289 451q0 -93 41 -164l385 409q-71 49 -156 49q-117 0 -193.5 -82.5t-76.5 -211.5
zM559 156q117 0 194.5 83t77.5 212q0 89 -40 161l-383 -409q65 -47 151 -47z" />
    <glyph glyph-name="ugrave" unicode="&#xf9;" horiz-adv-x="1120" 
d="M492 -20q-165 0 -264 102.5t-99 267.5v551h197v-495q0 -116 56.5 -181t162.5 -65q108 0 173.5 69t65.5 185v487h197v-901h-190v127q-43 -68 -122 -107.5t-177 -39.5zM229 1296l140 144l276 -310l-90 -90z" />
    <glyph glyph-name="uacute" unicode="&#xfa;" horiz-adv-x="1120" 
d="M492 -20q-165 0 -264 102.5t-99 267.5v551h197v-495q0 -116 56.5 -181t162.5 -65q108 0 173.5 69t65.5 185v487h197v-901h-190v127q-43 -68 -122 -107.5t-177 -39.5zM741 1440l140 -144l-326 -256l-90 90z" />
    <glyph glyph-name="ucircumflex" unicode="&#xfb;" horiz-adv-x="1120" 
d="M492 -20q-165 0 -264 102.5t-99 267.5v551h197v-495q0 -116 56.5 -181t162.5 -65q108 0 173.5 69t65.5 185v487h197v-901h-190v127q-43 -68 -122 -107.5t-177 -39.5zM451 1362h208l246 -305h-190l-160 166l-160 -166h-190z" />
    <glyph glyph-name="udieresis" unicode="&#xfc;" horiz-adv-x="1120" 
d="M492 -20q-165 0 -264 102.5t-99 267.5v551h197v-495q0 -116 56.5 -181t162.5 -65q108 0 173.5 69t65.5 185v487h197v-901h-190v127q-43 -68 -122 -107.5t-177 -39.5zM637 1184q0 54 35 88.5t90 34.5t89 -34.5t34 -88.5q0 -56 -34 -90.5t-89 -34.5q-56 0 -90.5 34.5
t-34.5 90.5zM225 1184q0 54 34 88.5t89 34.5t90 -34.5t35 -88.5q0 -56 -34.5 -90.5t-90.5 -34.5q-55 0 -89 34.5t-34 90.5z" />
    <glyph glyph-name="yacute" unicode="&#xfd;" horiz-adv-x="1034" 
d="M250 901l276 -577l262 577h213l-630 -1343h-211l264 557l-389 786h215zM715 1440l139 -144l-326 -256l-90 90z" />
    <glyph glyph-name="thorn" unicode="&#xfe;" horiz-adv-x="1163" 
d="M1079 451q0 -199 -127 -335t-319 -136q-180 0 -297 133v-555h-197v1876h197v-648q119 136 299 136q191 0 317.5 -136t126.5 -335zM877 451q0 131 -75.5 214t-193.5 83q-117 0 -194.5 -83t-77.5 -214q0 -129 78 -213t194 -84q117 0 193 83.5t76 213.5z" />
    <glyph glyph-name="ydieresis" unicode="&#xff;" horiz-adv-x="1034" 
d="M250 901l276 -577l262 577h213l-630 -1343h-211l264 557l-389 786h215zM608 1184q0 54 35 88.5t90 34.5t89 -34.5t34 -88.5q0 -56 -34 -90.5t-89 -34.5t-90 34.5t-35 90.5zM197 1184q0 54 33.5 88.5t88.5 34.5t90 -34.5t35 -88.5q0 -56 -35 -90.5t-90 -34.5t-88.5 34.5
t-33.5 90.5z" />
    <glyph glyph-name="Amacron" unicode="&#x100;" horiz-adv-x="1542" 
d="M1274 0l-154 358h-702l-152 -358h-219l629 1438h192l627 -1438h-221zM770 1188l-268 -631h534zM1106 1708v-160h-672v160h672z" />
    <glyph glyph-name="amacron" unicode="&#x101;" horiz-adv-x="1163" 
d="M84 451q0 199 126.5 335t317.5 136q187 0 306 -142v121h190v-901h-190v121q-118 -141 -306 -141q-192 0 -318 135.5t-126 335.5zM287 451q0 -130 75.5 -213.5t192.5 -83.5q115 0 193.5 84t78.5 213t-78.5 213t-193.5 84q-117 0 -192.5 -83.5t-75.5 -213.5zM877 1243v-160
h-652v160h652z" />
    <glyph glyph-name="Abreve" unicode="&#x102;" horiz-adv-x="1542" 
d="M1274 0l-154 358h-702l-152 -358h-219l629 1438h192l627 -1438h-221zM770 1188l-268 -631h534zM770 1540q-83 0 -149 26t-106.5 69.5t-63.5 92.5t-31 103h170q8 -59 56 -96t124 -37q77 0 124.5 37t55.5 96h170q-8 -54 -31 -103t-63.5 -92.5t-106.5 -69.5t-149 -26z" />
    <glyph glyph-name="abreve" unicode="&#x103;" horiz-adv-x="1163" 
d="M84 451q0 199 126.5 335t317.5 136q187 0 306 -142v121h190v-901h-190v121q-118 -141 -306 -141q-192 0 -318 135.5t-126 335.5zM287 451q0 -130 75.5 -213.5t192.5 -83.5q115 0 193.5 84t78.5 213t-78.5 213t-193.5 84q-117 0 -192.5 -83.5t-75.5 -213.5zM551 1051
q-83 0 -148.5 26.5t-105 71t-61.5 94.5t-29 105h168q8 -61 55 -101.5t121 -40.5t121 40.5t55 101.5h168q-7 -55 -29 -105t-61.5 -94.5t-105 -71t-148.5 -26.5z" />
    <glyph glyph-name="Aogonek" unicode="&#x104;" horiz-adv-x="1542" 
d="M1274 0l-154 358h-702l-152 -358h-219l629 1438h192l623 -1430l6 -8q-190 -81 -190 -180q0 -31 24 -47.5t64 -16.5q62 0 118 29l52 -109q-36 -31 -94.5 -52t-122.5 -21q-97 0 -158.5 43.5t-61.5 124.5q0 132 179 229h-33zM770 1188l-268 -631h534z" />
    <glyph glyph-name="aogonek" unicode="&#x105;" horiz-adv-x="1163" 
d="M84 451q0 199 126.5 335t317.5 136q187 0 306 -142v121h190v-901h-8q-92 -43 -138.5 -87t-46.5 -95q0 -29 22.5 -45.5t59.5 -16.5q56 0 113 31l51 -109q-34 -29 -92 -50t-119 -21q-92 0 -152.5 43.5t-60.5 120.5q0 134 181 235v115q-118 -141 -306 -141
q-192 0 -318 135.5t-126 335.5zM287 451q0 -130 75.5 -213.5t192.5 -83.5q115 0 193.5 84t78.5 213t-78.5 213t-193.5 84q-117 0 -192.5 -83.5t-75.5 -213.5z" />
    <glyph glyph-name="Cacute" unicode="&#x106;" horiz-adv-x="1669" 
d="M123 717q0 153 57.5 289.5t156 235.5t238 156.5t297.5 57.5q174 0 321.5 -65t244 -182.5t123.5 -268.5h-226q-35 137 -156.5 224t-304.5 87q-230 0 -379 -150.5t-149 -383.5t149 -384t379 -151q183 0 304.5 87.5t158.5 226.5h226q-41 -230 -233.5 -374.5t-457.5 -144.5
q-158 0 -297.5 58t-238 156.5t-156 235.5t-57.5 290zM1044 1917l140 -148l-312 -229l-90 92z" />
    <glyph glyph-name="cacute" unicode="&#x107;" horiz-adv-x="1069" 
d="M84 451q0 199 135.5 335t335.5 136q98 0 179.5 -29.5t135.5 -79t86.5 -110.5t40.5 -128h-198q-18 75 -79.5 121.5t-160.5 46.5q-120 0 -196 -81t-76 -211q0 -129 76 -211t196 -82q100 0 160.5 47t79.5 123h198q-7 -67 -39 -128.5t-86 -111t-136.5 -79t-180.5 -29.5
q-132 0 -240 63t-169.5 171t-61.5 237zM741 1440l140 -144l-326 -256l-90 90z" />
    <glyph glyph-name="Ccircumflex" unicode="&#x108;" horiz-adv-x="1669" 
d="M123 717q0 153 57.5 289.5t156 235.5t238 156.5t297.5 57.5q174 0 321.5 -65t244 -182.5t123.5 -268.5h-226q-35 137 -156.5 224t-304.5 87q-230 0 -379 -150.5t-149 -383.5t149 -384t379 -151q183 0 304.5 87.5t158.5 226.5h226q-41 -230 -233.5 -374.5t-457.5 -144.5
q-158 0 -297.5 58t-238 156.5t-156 235.5t-57.5 290zM768 1847h209l252 -299h-193l-164 156l-163 -156h-193z" />
    <glyph glyph-name="ccircumflex" unicode="&#x109;" horiz-adv-x="1069" 
d="M84 451q0 199 135.5 335t335.5 136q98 0 179.5 -29.5t135.5 -79t86.5 -110.5t40.5 -128h-198q-18 75 -79.5 121.5t-160.5 46.5q-120 0 -196 -81t-76 -211q0 -129 76 -211t196 -82q100 0 160.5 47t79.5 123h198q-7 -67 -39 -128.5t-86 -111t-136.5 -79t-180.5 -29.5
q-132 0 -240 63t-169.5 171t-61.5 237zM451 1362h208l246 -305h-190l-160 166l-160 -166h-190z" />
    <glyph glyph-name="Cdotaccent" unicode="&#x10a;" horiz-adv-x="1669" 
d="M123 717q0 153 57.5 289.5t156 235.5t238 156.5t297.5 57.5q174 0 321.5 -65t244 -182.5t123.5 -268.5h-226q-35 137 -156.5 224t-304.5 87q-230 0 -379 -150.5t-149 -383.5t149 -384t379 -151q183 0 304.5 87.5t158.5 226.5h226q-41 -230 -233.5 -374.5t-457.5 -144.5
q-158 0 -297.5 58t-238 156.5t-156 235.5t-57.5 290zM743 1669q0 57 36 94t93 37t93 -37t36 -94q0 -56 -36 -92.5t-93 -36.5t-93 36.5t-36 92.5z" />
    <glyph glyph-name="cdotaccent" unicode="&#x10b;" horiz-adv-x="1069" 
d="M84 451q0 199 135.5 335t335.5 136q98 0 179.5 -29.5t135.5 -79t86.5 -110.5t40.5 -128h-198q-18 75 -79.5 121.5t-160.5 46.5q-120 0 -196 -81t-76 -211q0 -129 76 -211t196 -82q100 0 160.5 47t79.5 123h198q-7 -67 -39 -128.5t-86 -111t-136.5 -79t-180.5 -29.5
q-132 0 -240 63t-169.5 171t-61.5 237zM430 1192q0 56 35 90.5t90 34.5t90 -34.5t35 -90.5q0 -54 -35 -89.5t-90 -35.5t-90 35.5t-35 89.5z" />
    <glyph glyph-name="Ccaron" unicode="&#x10c;" horiz-adv-x="1669" 
d="M123 717q0 153 57.5 289.5t156 235.5t238 156.5t297.5 57.5q174 0 321.5 -65t244 -182.5t123.5 -268.5h-226q-35 137 -156.5 224t-304.5 87q-230 0 -379 -150.5t-149 -383.5t149 -384t379 -151q183 0 304.5 87.5t158.5 226.5h226q-41 -230 -233.5 -374.5t-457.5 -144.5
q-158 0 -297.5 58t-238 156.5t-156 235.5t-57.5 290zM977 1548h-209l-252 299h193l163 -155l164 155h193z" />
    <glyph glyph-name="ccaron" unicode="&#x10d;" horiz-adv-x="1069" 
d="M84 451q0 199 135.5 335t335.5 136q98 0 179.5 -29.5t135.5 -79t86.5 -110.5t40.5 -128h-198q-18 75 -79.5 121.5t-160.5 46.5q-120 0 -196 -81t-76 -211q0 -129 76 -211t196 -82q100 0 160.5 47t79.5 123h198q-7 -67 -39 -128.5t-86 -111t-136.5 -79t-180.5 -29.5
q-132 0 -240 63t-169.5 171t-61.5 237zM659 1057h-208l-246 305h190l160 -166l160 166h190z" />
    <glyph glyph-name="Dcaron" unicode="&#x10e;" horiz-adv-x="1562" 
d="M1440 719q0 -152 -55.5 -285t-153.5 -228.5t-238.5 -150.5t-304.5 -55h-510v1434h510q218 0 390.5 -93.5t267 -256.5t94.5 -365zM393 201h289q248 0 391.5 144t143.5 374q0 228 -143.5 371t-389.5 143h-291v-1032zM885 1548h-209l-252 299h192l164 -155l164 155h193z" />
    <glyph glyph-name="dcaron" unicode="&#x10f;" horiz-adv-x="1247" 
d="M84 451q0 199 126.5 335t317.5 136q180 0 299 -136v648h197v-1434h-190v121q-118 -141 -306 -141q-191 0 -317.5 136t-126.5 335zM287 451q0 -130 75.5 -213.5t192.5 -83.5q115 0 193.5 84t78.5 213q0 130 -78 213.5t-194 83.5q-117 0 -192.5 -83t-75.5 -214zM1126 1010
l15 424h207l-70 -424h-152z" />
    <glyph glyph-name="Dcroat" unicode="&#x110;" horiz-adv-x="1564" 
d="M1442 719q0 -152 -55.5 -285t-153.5 -228.5t-238.5 -150.5t-304.5 -55h-510v639h-160v162h160v633h510q218 0 390.5 -93.5t267 -256.5t94.5 -365zM395 201h289q248 0 391.5 144t143.5 374q0 228 -143.5 371t-389.5 143h-291v-432h371v-162h-371v-438z" />
    <glyph glyph-name="dcroat" unicode="&#x111;" horiz-adv-x="1163" 
d="M1159 1227v-158h-135v-1069h-190v121q-118 -141 -306 -141q-191 0 -317.5 136t-126.5 335t126.5 335t317.5 136q180 0 299 -136v283h-401v158h401v207h197v-207h135zM287 451q0 -130 75.5 -213.5t192.5 -83.5q115 0 193.5 84t78.5 213q0 130 -78 213.5t-194 83.5
q-117 0 -192.5 -83t-75.5 -214z" />
    <glyph glyph-name="Emacron" unicode="&#x112;" horiz-adv-x="1335" 
d="M1208 0h-1030v1434h1022v-197h-807v-418h756v-194h-756v-428h815v-197zM1053 1708v-160h-672v160h672z" />
    <glyph glyph-name="emacron" unicode="&#x113;" horiz-adv-x="1067" 
d="M545 -20q-200 0 -330.5 133.5t-130.5 337.5q0 203 129.5 337t325.5 134q130 0 233 -62t159 -167.5t56 -233.5q0 -51 -4 -78h-700q19 -111 91.5 -173.5t178.5 -62.5q89 0 149.5 35.5t75.5 95.5h189q-27 -129 -140.5 -212.5t-281.5 -83.5zM866 1243v-160h-651v160h651z
M543 756q-103 0 -171 -61.5t-87 -170.5h506q-15 110 -82 171t-166 61z" />
    <glyph glyph-name="Ebreve" unicode="&#x114;" horiz-adv-x="1335" 
d="M1208 0h-1030v1434h1022v-197h-807v-418h756v-194h-756v-428h815v-197zM717 1540q-83 0 -149 26t-106.5 69.5t-63.5 92.5t-31 103h170q8 -59 56 -96t124 -37q77 0 124.5 37t55.5 96h170q-8 -54 -31 -103t-63.5 -92.5t-106.5 -69.5t-149 -26z" />
    <glyph glyph-name="ebreve" unicode="&#x115;" horiz-adv-x="1067" 
d="M545 -20q-200 0 -330.5 133.5t-130.5 337.5q0 203 129.5 337t325.5 134q130 0 233 -62t159 -167.5t56 -233.5q0 -51 -4 -78h-700q19 -111 91.5 -173.5t178.5 -62.5q89 0 149.5 35.5t75.5 95.5h189q-27 -129 -140.5 -212.5t-281.5 -83.5zM541 1051q-83 0 -148.5 26.5
t-105 71t-61.5 94.5t-29 105h168q8 -61 55 -101.5t121 -40.5t121 40.5t55 101.5h168q-7 -55 -29 -105t-61.5 -94.5t-105 -71t-148.5 -26.5zM543 756q-103 0 -171 -61.5t-87 -170.5h506q-15 110 -82 171t-166 61z" />
    <glyph glyph-name="Edotaccent" unicode="&#x116;" horiz-adv-x="1335" 
d="M1208 0h-1030v1434h1022v-197h-807v-418h756v-194h-756v-428h815v-197zM588 1669q0 57 36 94t93 37t93 -37t36 -94q0 -56 -36 -92.5t-93 -36.5t-93 36.5t-36 92.5z" />
    <glyph glyph-name="edotaccent" unicode="&#x117;" horiz-adv-x="1067" 
d="M545 -20q-200 0 -330.5 133.5t-130.5 337.5q0 203 129.5 337t325.5 134q130 0 233 -62t159 -167.5t56 -233.5q0 -51 -4 -78h-700q19 -111 91.5 -173.5t178.5 -62.5q89 0 149.5 35.5t75.5 95.5h189q-27 -129 -140.5 -212.5t-281.5 -83.5zM543 756q-103 0 -171 -61.5
t-87 -170.5h506q-15 110 -82 171t-166 61zM416 1192q0 56 35 90.5t90 34.5t90 -34.5t35 -90.5q0 -54 -35 -89.5t-90 -35.5t-90 35.5t-35 89.5z" />
    <glyph glyph-name="Eogonek" unicode="&#x118;" horiz-adv-x="1335" 
d="M1169 -215l52 -109q-36 -31 -94.5 -52t-122.5 -21q-97 0 -158.5 43.5t-61.5 124.5q0 132 179 229h-785v1434h1022v-197h-807v-418h756v-194h-756v-428h815v-197h-55q-190 -81 -190 -180q0 -31 24 -47.5t64 -16.5q62 0 118 29z" />
    <glyph glyph-name="eogonek" unicode="&#x119;" horiz-adv-x="1067" 
d="M915 -307q-44 -38 -106.5 -62t-126.5 -24q-109 0 -177.5 55t-68.5 141q0 101 92 177q-194 6 -319 139t-125 332q0 203 129.5 337t325.5 134q130 0 233 -62t159 -167.5t56 -233.5q0 -51 -4 -78h-700q19 -111 91.5 -173.5t178.5 -62.5q89 0 149.5 35.5t75.5 95.5h189
q-18 -81 -70 -146t-133 -103q-81 -43 -119.5 -85t-38.5 -94q0 -44 32.5 -68t82.5 -24q69 0 125 43zM543 756q-103 0 -171 -61.5t-87 -170.5h506q-15 110 -82 171t-166 61z" />
    <glyph glyph-name="Ecaron" unicode="&#x11a;" horiz-adv-x="1335" 
d="M1208 0h-1030v1434h1022v-197h-807v-418h756v-194h-756v-428h815v-197zM821 1546h-209l-252 299h193l164 -155l164 155h192z" />
    <glyph glyph-name="ecaron" unicode="&#x11b;" horiz-adv-x="1067" 
d="M545 -20q-200 0 -330.5 133.5t-130.5 337.5q0 203 129.5 337t325.5 134q130 0 233 -62t159 -167.5t56 -233.5q0 -51 -4 -78h-700q19 -111 91.5 -173.5t178.5 -62.5q89 0 149.5 35.5t75.5 95.5h189q-27 -129 -140.5 -212.5t-281.5 -83.5zM645 1057h-209l-246 305h191
l160 -166l159 166h191zM543 756q-103 0 -171 -61.5t-87 -170.5h506q-15 110 -82 171t-166 61z" />
    <glyph glyph-name="Gcircumflex" unicode="&#x11c;" horiz-adv-x="1691" 
d="M866 180q209 0 342 118.5t144 301.5h-480v188h695q8 -55 8 -102q0 -216 -96 -379t-256 -246.5t-359 -83.5q-158 0 -296 57.5t-235.5 156.5t-153.5 236t-56 290q0 152 57.5 289t156 235.5t237.5 156.5t296 58q252 0 438 -135.5t232 -351.5h-227q-38 127 -154 205.5
t-287 78.5q-228 0 -377 -152t-149 -384q0 -234 146 -385.5t374 -151.5zM758 1849h209l252 -299h-193l-164 156l-164 -156h-192z" />
    <glyph glyph-name="gcircumflex" unicode="&#x11d;" horiz-adv-x="1165" 
d="M834 29v108q-119 -139 -306 -139q-126 0 -228.5 62.5t-159 168t-56.5 230.5t56.5 231t159 169t228.5 63q186 0 306 -140v119h192v-895q0 -203 -126.5 -322.5t-338.5 -119.5q-199 0 -316 93t-130 228h194q13 -70 75.5 -111.5t172.5 -41.5q277 0 277 297zM829 459
q0 122 -79 206.5t-195 84.5q-118 0 -194 -84t-76 -207t76 -206t194 -83q117 0 195.5 83.5t78.5 205.5zM449 1362h208l246 -305h-190l-160 166l-160 -166h-190z" />
    <glyph glyph-name="Gbreve" unicode="&#x11e;" horiz-adv-x="1691" 
d="M866 180q209 0 342 118.5t144 301.5h-480v188h695q8 -55 8 -102q0 -216 -96 -379t-256 -246.5t-359 -83.5q-158 0 -296 57.5t-235.5 156.5t-153.5 236t-56 290q0 152 57.5 289t156 235.5t237.5 156.5t296 58q252 0 438 -135.5t232 -351.5h-227q-38 127 -154 205.5
t-287 78.5q-228 0 -377 -152t-149 -384q0 -234 146 -385.5t374 -151.5zM862 1542q-83 0 -149 26t-106.5 69.5t-63.5 92.5t-31 103h170q8 -59 56 -96t124 -37q77 0 124.5 37t55.5 96h170q-8 -54 -31 -103t-63.5 -92.5t-106.5 -69.5t-149 -26z" />
    <glyph glyph-name="gbreve" unicode="&#x11f;" horiz-adv-x="1165" 
d="M834 29v108q-119 -139 -306 -139q-126 0 -228.5 62.5t-159 168t-56.5 230.5t56.5 231t159 169t228.5 63q186 0 306 -140v119h192v-895q0 -203 -126.5 -322.5t-338.5 -119.5q-199 0 -316 93t-130 228h194q13 -70 75.5 -111.5t172.5 -41.5q277 0 277 297zM829 459
q0 122 -79 206.5t-195 84.5q-118 0 -194 -84t-76 -207t76 -206t194 -83q117 0 195.5 83.5t78.5 205.5zM553 1051q-83 0 -148.5 26.5t-105 71t-61.5 94.5t-29 105h168q8 -61 55 -101.5t121 -40.5t121 40.5t55 101.5h168q-7 -55 -29 -105t-61.5 -94.5t-105 -71t-148.5 -26.5z
" />
    <glyph glyph-name="Gdotaccent" unicode="&#x120;" horiz-adv-x="1691" 
d="M866 180q209 0 342 118.5t144 301.5h-480v188h695q8 -55 8 -102q0 -216 -96 -379t-256 -246.5t-359 -83.5q-158 0 -296 57.5t-235.5 156.5t-153.5 236t-56 290q0 152 57.5 289t156 235.5t237.5 156.5t296 58q252 0 438 -135.5t232 -351.5h-227q-38 127 -154 205.5
t-287 78.5q-228 0 -377 -152t-149 -384q0 -234 146 -385.5t374 -151.5zM733 1671q0 57 36 94t93 37t93 -37t36 -94q0 -56 -36 -92.5t-93 -36.5t-93 36.5t-36 92.5z" />
    <glyph glyph-name="gdotaccent" unicode="&#x121;" horiz-adv-x="1165" 
d="M834 29v108q-119 -139 -306 -139q-126 0 -228.5 62.5t-159 168t-56.5 230.5t56.5 231t159 169t228.5 63q186 0 306 -140v119h192v-895q0 -203 -126.5 -322.5t-338.5 -119.5q-199 0 -316 93t-130 228h194q13 -70 75.5 -111.5t172.5 -41.5q277 0 277 297zM829 459
q0 122 -79 206.5t-195 84.5q-118 0 -194 -84t-76 -207t76 -206t194 -83q117 0 195.5 83.5t78.5 205.5zM428 1192q0 56 35 90.5t90 34.5t90 -34.5t35 -90.5q0 -54 -35 -89.5t-90 -35.5t-90 35.5t-35 89.5z" />
    <glyph glyph-name="Gcommaaccent" unicode="&#x122;" horiz-adv-x="1691" 
d="M866 180q209 0 342 118.5t144 301.5h-480v188h695q8 -55 8 -102q0 -216 -96 -379t-256 -246.5t-359 -83.5q-158 0 -296 57.5t-235.5 156.5t-153.5 236t-56 290q0 152 57.5 289t156 235.5t237.5 156.5t296 58q252 0 438 -135.5t232 -351.5h-227q-38 127 -154 205.5
t-287 78.5q-228 0 -377 -152t-149 -384q0 -234 146 -385.5t374 -151.5zM983 -88l-90 -369h-168l45 369h213z" />
    <glyph glyph-name="gcommaaccent" unicode="&#x123;" horiz-adv-x="1165" 
d="M834 29v108q-119 -139 -306 -139q-126 0 -228.5 62.5t-159 168t-56.5 230.5t56.5 231t159 169t228.5 63q186 0 306 -140v119h192v-895q0 -203 -126.5 -322.5t-338.5 -119.5q-199 0 -316 93t-130 228h194q13 -70 75.5 -111.5t172.5 -41.5q277 0 277 297zM829 459
q0 122 -79 206.5t-195 84.5q-118 0 -194 -84t-76 -207t76 -206t194 -83q117 0 195.5 83.5t78.5 205.5zM449 1059l86 360h161l-45 -360h-202z" />
    <glyph glyph-name="Hcircumflex" unicode="&#x124;" horiz-adv-x="1570" 
d="M393 823h785v611h215v-1434h-215v621h-785v-621h-215v1434h215v-611zM680 1847h209l252 -299h-193l-164 156l-163 -156h-193z" />
    <glyph glyph-name="hcircumflex" unicode="&#x125;" horiz-adv-x="1124" 
d="M631 922q165 0 264.5 -102t99.5 -269v-551h-196v496q0 115 -58.5 181t-165.5 66t-173 -70t-66 -186v-487h-197v1434h197v-650q47 64 123.5 101t171.5 37zM475 1847h209l252 -299h-193l-163 156l-164 -156h-193z" />
    <glyph glyph-name="Hbar" unicode="&#x126;" horiz-adv-x="1574" 
d="M1552 1221v-162h-157v-1059h-215v621h-785v-621h-215v1059h-157v162h157v213h215v-213h785v213h215v-213h157zM395 823h785v236h-785v-236z" />
    <glyph glyph-name="hbar" unicode="&#x127;" horiz-adv-x="1124" 
d="M735 1227v-158h-399v-285q47 64 123.5 101t171.5 37q165 0 264.5 -102t99.5 -269v-551h-196v496q0 115 -58.5 181t-165.5 66t-173 -70t-66 -186v-487h-197v1069h-137v158h137v207h197v-207h399z" />
    <glyph glyph-name="Itilde" unicode="&#x128;" horiz-adv-x="585" 
d="M401 1434v-1434h-217v1434h217zM512 1778l129 -23q-21 -97 -71.5 -156t-135.5 -59q-55 0 -143.5 40t-126.5 40q-65 0 -90 -76l-129 21q21 98 71.5 157.5t135.5 59.5q55 0 143.5 -40t126.5 -40q66 0 90 76z" />
    <glyph glyph-name="itilde" unicode="&#x129;" horiz-adv-x="479" 
d="M338 901v-901h-197v901h197zM557 1268q-45 -215 -195 -215q-45 0 -122.5 36.5t-110.5 36.5q-30 0 -48 -16.5t-30 -54.5l-129 20q20 96 68.5 154.5t126.5 58.5q45 0 123 -37t110 -37q30 0 48 16.5t32 55.5z" />
    <glyph glyph-name="Imacron" unicode="&#x12a;" horiz-adv-x="585" 
d="M401 1434v-1434h-217v1434h217zM629 1708v-160h-672v160h672z" />
    <glyph glyph-name="imacron" unicode="&#x12b;" horiz-adv-x="479" 
d="M338 901v-901h-197v901h197zM528 1249v-157h-577v157h577z" />
    <glyph glyph-name="Ibreve" unicode="&#x12c;" horiz-adv-x="585" 
d="M401 1434v-1434h-217v1434h217zM293 1540q-83 0 -149 26t-106.5 69.5t-63.5 92.5t-31 103h170q8 -59 56 -96t124 -37q77 0 124.5 37t55.5 96h170q-8 -54 -31 -103t-63.5 -92.5t-106.5 -69.5t-149 -26z" />
    <glyph glyph-name="ibreve" unicode="&#x12d;" horiz-adv-x="479" 
d="M338 901v-901h-197v901h197zM240 1049q-76 0 -136.5 26.5t-97.5 71t-58 95t-26 104.5h168q5 -60 45 -101t105 -41t104.5 41t44.5 101h168q-5 -54 -25.5 -104.5t-57.5 -95t-97.5 -71t-136.5 -26.5z" />
    <glyph glyph-name="Iogonek" unicode="&#x12e;" horiz-adv-x="585" 
d="M410 -219l51 -109q-88 -69 -211 -69q-96 0 -157.5 44.5t-61.5 127.5q0 131 153 225v1434h217v-1434h-30q-160 -69 -160 -176q0 -33 23 -50.5t63 -17.5q61 0 113 25z" />
    <glyph glyph-name="iogonek" unicode="&#x12f;" horiz-adv-x="479" 
d="M397 -215l52 -102q-34 -31 -88.5 -53.5t-116.5 -22.5q-95 0 -154 46.5t-59 129.5q0 120 137 217h-27v901h197v-901q-76 -37 -106.5 -76t-30.5 -90q0 -38 24.5 -58t63.5 -20q60 0 108 29zM117 1196q0 56 34 90.5t89 34.5q56 0 90.5 -34.5t34.5 -90.5q0 -54 -35 -88.5
t-90 -34.5t-89 34.5t-34 88.5z" />
    <glyph glyph-name="Idotaccent" unicode="&#x130;" horiz-adv-x="585" 
d="M401 1434v-1434h-217v1434h217zM164 1669q0 57 36 94t93 37t93 -37t36 -94q0 -56 -36 -92.5t-93 -36.5t-93 36.5t-36 92.5z" />
    <glyph glyph-name="dotlessi" unicode="&#x131;" horiz-adv-x="479" 
d="M338 901v-901h-197v901h197z" />
    <glyph glyph-name="IJ" unicode="&#x132;" horiz-adv-x="1806" 
d="M401 1434v-1434h-217v1434h217zM1642 1434v-926q0 -256 -135.5 -393.5t-363.5 -137.5q-222 0 -347 112t-143 300h209q29 -207 277 -207q137 0 212.5 85t75.5 265v902h215z" />
    <glyph glyph-name="ij" unicode="&#x133;" horiz-adv-x="966" 
d="M338 901v-901h-197v901h197zM117 1196q0 56 34 90.5t89 34.5q56 0 90.5 -34.5t34.5 -90.5q0 -54 -35 -88.5t-90 -34.5t-89 34.5t-34 88.5zM627 -98v999h196v-1024q0 -332 -286 -332q-39 0 -127 15v172q44 -6 79 -6q74 0 106 42t32 134zM602 1196q0 56 34 90.5t89 34.5
t90 -34.5t35 -90.5q0 -54 -35 -88.5t-90 -34.5t-89 34.5t-34 88.5z" />
    <glyph glyph-name="Jcircumflex" unicode="&#x134;" horiz-adv-x="1222" 
d="M1057 1434v-926q0 -256 -136 -393.5t-364 -137.5q-222 0 -346.5 112t-142.5 300h208q29 -207 277 -207q138 0 213.5 85t75.5 265v902h215zM844 1847h209l252 -299h-193l-164 156l-164 -156h-192z" />
    <glyph glyph-name="jcircumflex" unicode="&#x135;" horiz-adv-x="485" 
d="M147 -98v999h197v-1024q0 -332 -287 -332q-39 0 -127 15v172q44 -6 80 -6q74 0 105.5 42t31.5 134zM141 1362h209l246 -305h-190l-160 166l-160 -166h-190z" />
    <glyph glyph-name="Kcommaaccent" unicode="&#x136;" horiz-adv-x="1447" 
d="M1391 1434l-615 -641l647 -793h-264l-524 645l-242 -252v-393h-215v1434h215v-762l727 762h271zM883 -88l-90 -369h-168l45 369h213z" />
    <glyph glyph-name="kcommaaccent" unicode="&#x137;" horiz-adv-x="1026" 
d="M995 901l-407 -377l413 -524h-233l-313 399l-119 -108v-291h-197v1434h197v-914l405 381h254zM668 -88l-88 -361h-162l45 361h205z" />
    <glyph glyph-name="kgreenlandic" unicode="&#x138;" horiz-adv-x="1026" 
d="M995 901l-407 -377l413 -524h-233l-313 399l-119 -108v-291h-197v901h197v-381l405 381h254z" />
    <glyph glyph-name="Lacute" unicode="&#x139;" horiz-adv-x="1232" 
d="M1169 0h-991v1434h215v-1233h776v-201zM461 1917l139 -148l-311 -229l-90 92z" />
    <glyph glyph-name="lacute" unicode="&#x13a;" horiz-adv-x="479" 
d="M338 1434v-1434h-197v1434h197zM414 1907l139 -148l-311 -229l-90 92z" />
    <glyph glyph-name="Lcommaaccent" unicode="&#x13b;" horiz-adv-x="1232" 
d="M1169 0h-991v1434h215v-1233h776v-201zM827 -88l-90 -369h-168l45 369h213z" />
    <glyph glyph-name="lcommaaccent" unicode="&#x13c;" horiz-adv-x="479" 
d="M338 1434v-1434h-197v1434h197zM344 -88l-88 -361h-162l45 361h205z" />
    <glyph glyph-name="Lcaron" unicode="&#x13d;" horiz-adv-x="1232" 
d="M1169 0h-991v1434h215v-1233h776v-201zM612 1004l15 430h211l-72 -430h-154z" />
    <glyph glyph-name="lcaron" unicode="&#x13e;" horiz-adv-x="563" 
d="M338 1434v-1434h-197v1434h197zM440 1010l15 424h207l-70 -424h-152z" />
    <glyph glyph-name="Ldot" unicode="&#x13f;" horiz-adv-x="1232" 
d="M1169 0h-991v1434h215v-1233h776v-201zM686 729q0 60 40 99.5t101 39.5t101.5 -39.5t40.5 -99.5t-40.5 -100.5t-101.5 -40.5t-101 40.5t-40 100.5z" />
    <glyph glyph-name="ldot" unicode="&#x140;" horiz-adv-x="686" 
d="M338 1434v-1434h-197v1434h197zM444 520q0 59 39 97t99 38t98.5 -38t38.5 -97t-39 -99t-98 -40q-60 0 -99 40t-39 99z" />
    <glyph glyph-name="Lslash" unicode="&#x141;" horiz-adv-x="1239" 
d="M760 1008l82 -140l-443 -254v-413h777v-201h-992v489l-90 -51l-82 140l172 98v758h215v-633z" />
    <glyph glyph-name="lslash" unicode="&#x142;" horiz-adv-x="563" 
d="M483 918l80 -138l-182 -106v-674h-197v559l-104 -59l-80 139l184 106v689h197v-576z" />
    <glyph glyph-name="Nacute" unicode="&#x143;" horiz-adv-x="1597" 
d="M178 1436h201l829 -1096v1094h211v-1436h-198l-830 1092v-1090h-213v1436zM973 1917l139 -148l-311 -229l-90 92z" />
    <glyph glyph-name="nacute" unicode="&#x144;" horiz-adv-x="1124" 
d="M631 922q165 0 264.5 -102t99.5 -269v-551h-196v496q0 115 -58.5 181t-165.5 66t-173 -70t-66 -186v-487h-197v901h191v-125q45 67 124 106.5t177 39.5zM766 1440l139 -144l-325 -256l-91 90z" />
    <glyph glyph-name="Ncommaaccent" unicode="&#x145;" horiz-adv-x="1597" 
d="M178 1436h201l829 -1096v1094h211v-1436h-198l-830 1092v-1090h-213v1436zM907 -88l-90 -369h-168l45 369h213z" />
    <glyph glyph-name="ncommaaccent" unicode="&#x146;" horiz-adv-x="1124" 
d="M631 922q165 0 264.5 -102t99.5 -269v-551h-196v496q0 115 -58.5 181t-165.5 66t-173 -70t-66 -186v-487h-197v901h191v-125q45 67 124 106.5t177 39.5zM674 -88l-88 -361h-162l45 361h205z" />
    <glyph glyph-name="Ncaron" unicode="&#x147;" horiz-adv-x="1597" 
d="M178 1436h201l829 -1096v1094h211v-1436h-198l-830 1092v-1090h-213v1436zM903 1546h-209l-252 299h193l164 -155l164 155h192z" />
    <glyph glyph-name="ncaron" unicode="&#x148;" horiz-adv-x="1124" 
d="M631 922q165 0 264.5 -102t99.5 -269v-551h-196v496q0 115 -58.5 181t-165.5 66t-173 -70t-66 -186v-487h-197v901h191v-125q45 67 124 106.5t177 39.5zM684 1057h-209l-246 305h191l160 -166l159 166h191z" />
    <glyph glyph-name="napostrophe" unicode="&#x149;" horiz-adv-x="1435" 
d="M942 922q165 0 265 -102.5t100 -268.5v-551h-197v496q0 116 -58 181.5t-165 65.5t-173.5 -70t-66.5 -186v-487h-196v901h190v-125q45 67 124 106.5t177 39.5zM51 846l94 608h236l-166 -608h-164z" />
    <glyph glyph-name="Eng" unicode="&#x14a;" horiz-adv-x="1597" 
d="M1219 -2l-828 1092v-1090h-213v1436h201l829 -1096v1094h211v-1536q0 -170 -84 -261.5t-245 -91.5q-129 0 -209 25v170q68 -14 149 -14q101 0 145 46t44 148v78z" />
    <glyph glyph-name="eng" unicode="&#x14b;" horiz-adv-x="1124" 
d="M799 -98v594q0 115 -58.5 181t-165.5 66t-173 -70t-66 -186v-487h-197v901h191v-125q45 67 124 106.5t177 39.5q165 0 264.5 -102t99.5 -269v-674q0 -332 -286 -332q-39 0 -127 15v172q41 -6 80 -6q74 0 105.5 42t31.5 134z" />
    <glyph glyph-name="Omacron" unicode="&#x14c;" horiz-adv-x="1736" 
d="M868 1456q153 0 291.5 -57.5t238 -156t158 -235.5t58.5 -290t-58.5 -290t-158 -235.5t-238 -156.5t-291.5 -58q-205 0 -376 98t-270 268t-99 374q0 153 58.5 290t157.5 235.5t237.5 156t291.5 57.5zM868 182q144 0 263 68.5t188.5 191.5t69.5 275t-69.5 274.5t-188.5 191
t-263 68.5t-263.5 -68.5t-189 -191t-69.5 -274.5q0 -114 41 -213.5t111 -170t166 -111t204 -40.5zM1204 1708v-160h-672v160h672z" />
    <glyph glyph-name="omacron" unicode="&#x14d;" horiz-adv-x="1118" 
d="M559 922q198 0 336.5 -136.5t138.5 -334.5q0 -196 -138.5 -333.5t-336.5 -137.5t-336.5 137.5t-138.5 333.5q0 198 138.5 334.5t336.5 136.5zM559 156q116 0 194 83.5t78 211.5q0 129 -77.5 211.5t-194.5 82.5t-194.5 -82.5t-77.5 -211.5q0 -128 78 -211.5t194 -83.5z
M885 1243v-160h-652v160h652z" />
    <glyph glyph-name="Obreve" unicode="&#x14e;" horiz-adv-x="1736" 
d="M868 1456q153 0 291.5 -57.5t238 -156t158 -235.5t58.5 -290t-58.5 -290t-158 -235.5t-238 -156.5t-291.5 -58q-205 0 -376 98t-270 268t-99 374q0 153 58.5 290t157.5 235.5t237.5 156t291.5 57.5zM868 182q144 0 263 68.5t188.5 191.5t69.5 275t-69.5 274.5t-188.5 191
t-263 68.5t-263.5 -68.5t-189 -191t-69.5 -274.5q0 -114 41 -213.5t111 -170t166 -111t204 -40.5zM868 1540q-83 0 -149 26t-106.5 69.5t-63.5 92.5t-31 103h170q8 -59 56 -96t124 -37q77 0 125 37t56 96h170q-8 -54 -31.5 -103t-63.5 -92.5t-106.5 -69.5t-149.5 -26z" />
    <glyph glyph-name="obreve" unicode="&#x14f;" horiz-adv-x="1118" 
d="M559 922q198 0 336.5 -136.5t138.5 -334.5q0 -196 -138.5 -333.5t-336.5 -137.5t-336.5 137.5t-138.5 333.5q0 198 138.5 334.5t336.5 136.5zM559 156q116 0 194 83.5t78 211.5q0 129 -77.5 211.5t-194.5 82.5t-194.5 -82.5t-77.5 -211.5q0 -128 78 -211.5t194 -83.5z
M559 1051q-83 0 -148.5 26.5t-105 71t-61.5 94.5t-29 105h168q8 -61 55 -101.5t121 -40.5t121 40.5t55 101.5h168q-7 -55 -29 -105t-61.5 -94.5t-105 -71t-148.5 -26.5z" />
    <glyph glyph-name="Ohungarumlaut" unicode="&#x150;" horiz-adv-x="1736" 
d="M868 1456q153 0 291.5 -57.5t238 -156t158 -235.5t58.5 -290t-58.5 -290t-158 -235.5t-238 -156.5t-291.5 -58q-205 0 -376 98t-270 268t-99 374q0 153 58.5 290t157.5 235.5t237.5 156t291.5 57.5zM868 182q144 0 263 68.5t188.5 191.5t69.5 275t-69.5 274.5t-188.5 191
t-263 68.5t-263.5 -68.5t-189 -191t-69.5 -274.5q0 -114 41 -213.5t111 -170t166 -111t204 -40.5zM918 1825l-216 -287l-114 64l157 325zM1309 1825l-215 -287l-115 64l158 325z" />
    <glyph glyph-name="ohungarumlaut" unicode="&#x151;" horiz-adv-x="1118" 
d="M559 922q198 0 336.5 -136.5t138.5 -334.5q0 -196 -138.5 -333.5t-336.5 -137.5t-336.5 137.5t-138.5 333.5q0 198 138.5 334.5t336.5 136.5zM559 156q116 0 194 83.5t78 211.5q0 129 -77.5 211.5t-194.5 82.5t-194.5 -82.5t-77.5 -211.5q0 -128 78 -211.5t194 -83.5z
M627 1354l-224 -305l-112 63l168 342zM999 1354l-223 -305l-112 63l167 342z" />
    <glyph glyph-name="OE" unicode="&#x152;" horiz-adv-x="2318" 
d="M2189 0h-1315q-218 0 -390 94t-266.5 258t-94.5 367q0 151 55.5 283.5t153 227.5t237.5 149.5t303 54.5h1309v-197h-805v-418h754v-194h-754v-428h813v-197zM881 201h278v1032h-280q-246 0 -389.5 -143t-143.5 -371q0 -230 143.5 -374t391.5 -144z" />
    <glyph glyph-name="oe" unicode="&#x153;" horiz-adv-x="1802" 
d="M1286 -20q-112 0 -204.5 47.5t-155.5 132.5q-64 -85 -159.5 -132.5t-207.5 -47.5q-198 0 -336.5 137.5t-138.5 333.5q0 198 138.5 334.5t336.5 136.5q113 0 208.5 -49t160.5 -134q61 86 154 134.5t204 48.5q123 0 223.5 -62.5t156.5 -168.5t56 -232q0 -26 -4 -80h-688
q20 -109 92 -170.5t172 -61.5q86 0 143.5 35.5t75.5 96.5h189q-27 -130 -137.5 -214.5t-278.5 -84.5zM559 156q116 0 194 83.5t78 211.5q0 129 -77.5 211.5t-194.5 82.5t-194.5 -82.5t-77.5 -211.5q0 -128 78 -211.5t194 -83.5zM1284 754q-95 0 -165.5 -62t-88.5 -168h494
q-17 107 -84 168.5t-156 61.5z" />
    <glyph glyph-name="Racute" unicode="&#x154;" horiz-adv-x="1449" 
d="M393 512v-512h-215v1434h637q248 0 384 -124t136 -333q0 -178 -104.5 -298.5t-292.5 -154.5l408 -524h-246l-400 512h-307zM393 707h395q159 0 242.5 68.5t83.5 197.5t-82.5 196.5t-243.5 67.5h-395v-530zM901 1917l139 -148l-311 -229l-90 92z" />
    <glyph glyph-name="racute" unicode="&#x155;" horiz-adv-x="743" 
d="M694 903v-184q-27 6 -80 6q-136 0 -207 -82t-71 -221v-422h-197v901h191v-153q41 76 116.5 118.5t178.5 42.5q42 0 69 -6zM625 1440l139 -144l-326 -256l-90 90z" />
    <glyph glyph-name="Rcommaaccent" unicode="&#x156;" horiz-adv-x="1449" 
d="M393 512v-512h-215v1434h637q248 0 384 -124t136 -333q0 -178 -104.5 -298.5t-292.5 -154.5l408 -524h-246l-400 512h-307zM393 707h395q159 0 242.5 68.5t83.5 197.5t-82.5 196.5t-243.5 67.5h-395v-530zM834 -88l-91 -369h-168l46 369h213z" />
    <glyph glyph-name="rcommaaccent" unicode="&#x157;" horiz-adv-x="743" 
d="M694 903v-184q-27 6 -80 6q-136 0 -207 -82t-71 -221v-422h-197v901h191v-153q41 76 116.5 118.5t178.5 42.5q42 0 69 -6zM342 -90l-88 -361h-162l45 361h205z" />
    <glyph glyph-name="Rcaron" unicode="&#x158;" horiz-adv-x="1449" 
d="M393 512v-512h-215v1434h637q248 0 384 -124t136 -333q0 -178 -104.5 -298.5t-292.5 -154.5l408 -524h-246l-400 512h-307zM393 707h395q159 0 242.5 68.5t83.5 197.5t-82.5 196.5t-243.5 67.5h-395v-530zM831 1548h-208l-252 299h192l164 -155l164 155h192z" />
    <glyph glyph-name="rcaron" unicode="&#x159;" horiz-adv-x="743" 
d="M694 903v-184q-27 6 -80 6q-136 0 -207 -82t-71 -221v-422h-197v901h191v-153q41 76 116.5 118.5t178.5 42.5q42 0 69 -6zM541 1057h-209l-246 305h190l160 -166l160 166h190z" />
    <glyph glyph-name="Sacute" unicode="&#x15a;" horiz-adv-x="1302" 
d="M657 172q145 0 231.5 58.5t86.5 162.5q0 80 -59.5 132t-190.5 81l-184 41q-209 45 -312.5 144.5t-103.5 261.5q0 188 135.5 294.5t372.5 106.5q226 0 359.5 -99t154.5 -272h-209q-15 86 -95 132.5t-210 46.5q-137 0 -214 -52.5t-77 -154.5q0 -88 68.5 -138.5t214.5 -82.5
l184 -41q201 -44 292 -139t91 -251q0 -137 -69.5 -233.5t-188.5 -143t-277 -46.5q-245 0 -394.5 104t-168.5 293h211q13 -100 105 -152.5t247 -52.5zM801 1919l139 -147l-311 -230l-90 92z" />
    <glyph glyph-name="sacute" unicode="&#x15b;" horiz-adv-x="856" 
d="M430 139q78 0 125 28.5t47 82.5q0 51 -32.5 75.5t-125.5 43.5l-90 20q-137 27 -204.5 90.5t-67.5 171.5q0 123 92.5 196t245.5 73q89 0 156.5 -20.5t108 -58t62.5 -83.5t27 -103h-180q-14 107 -168 107q-70 0 -112 -28t-42 -77q0 -54 37.5 -77.5t124.5 -40.5l88 -19
q136 -25 204.5 -89t68.5 -175q0 -128 -96.5 -201t-266.5 -73q-174 0 -268 74.5t-107 197.5h181q8 -55 56.5 -85t135.5 -30zM606 1440l139 -144l-325 -256l-90 90z" />
    <glyph glyph-name="Scircumflex" unicode="&#x15c;" horiz-adv-x="1302" 
d="M657 172q145 0 231.5 58.5t86.5 162.5q0 80 -59.5 132t-190.5 81l-184 41q-209 45 -312.5 144.5t-103.5 261.5q0 188 135.5 294.5t372.5 106.5q226 0 359.5 -99t154.5 -272h-209q-15 86 -95 132.5t-210 46.5q-137 0 -214 -52.5t-77 -154.5q0 -88 68.5 -138.5t214.5 -82.5
l184 -41q201 -44 292 -139t91 -251q0 -137 -69.5 -233.5t-188.5 -143t-277 -46.5q-245 0 -394.5 104t-168.5 293h211q13 -100 105 -152.5t247 -52.5zM532 1847h209l252 -299h-192l-164 156l-164 -156h-192z" />
    <glyph glyph-name="scircumflex" unicode="&#x15d;" horiz-adv-x="856" 
d="M430 139q78 0 125 28.5t47 82.5q0 51 -32.5 75.5t-125.5 43.5l-90 20q-137 27 -204.5 90.5t-67.5 171.5q0 123 92.5 196t245.5 73q89 0 156.5 -20.5t108 -58t62.5 -83.5t27 -103h-180q-14 107 -168 107q-70 0 -112 -28t-42 -77q0 -54 37.5 -77.5t124.5 -40.5l88 -19
q136 -25 204.5 -89t68.5 -175q0 -128 -96.5 -201t-266.5 -73q-174 0 -268 74.5t-107 197.5h181q8 -55 56.5 -85t135.5 -30zM315 1362h209l246 -305h-190l-160 166l-160 -166h-190z" />
    <glyph glyph-name="Scedilla" unicode="&#x15e;" horiz-adv-x="1302" 
d="M649 -340h-209l123 324q-206 19 -329 121t-140 272h211q13 -100 105 -152.5t247 -52.5q145 0 231.5 58.5t86.5 162.5q0 80 -59.5 132t-190.5 81l-184 41q-209 45 -312.5 144.5t-103.5 261.5q0 188 135.5 294.5t372.5 106.5q226 0 359.5 -99t154.5 -272h-209
q-15 86 -95 132.5t-210 46.5q-137 0 -214 -52.5t-77 -154.5q0 -88 68.5 -138.5t214.5 -82.5l184 -41q201 -44 292 -139t91 -251q0 -185 -121.5 -292.5t-327.5 -126.5z" />
    <glyph glyph-name="scedilla" unicode="&#x15f;" horiz-adv-x="856" 
d="M428 -334h-199l119 322q-133 17 -206.5 88t-84.5 178h181q8 -55 56.5 -85t135.5 -30q78 0 125 28.5t47 82.5q0 51 -32.5 75.5t-125.5 43.5l-90 20q-137 27 -204.5 90.5t-67.5 171.5q0 123 92.5 196t245.5 73q89 0 156.5 -20.5t108 -58t62.5 -83.5t27 -103h-180
q-14 107 -168 107q-70 0 -112 -28t-42 -77q0 -54 37.5 -77.5t124.5 -40.5l88 -19q136 -25 204.5 -89t68.5 -175q0 -109 -72 -179t-201 -89z" />
    <glyph glyph-name="Scaron" unicode="&#x160;" horiz-adv-x="1302" 
d="M657 172q145 0 231.5 58.5t86.5 162.5q0 80 -59.5 132t-190.5 81l-184 41q-209 45 -312.5 144.5t-103.5 261.5q0 188 135.5 294.5t372.5 106.5q226 0 359.5 -99t154.5 -272h-209q-15 86 -95 132.5t-210 46.5q-137 0 -214 -52.5t-77 -154.5q0 -88 68.5 -138.5t214.5 -82.5
l184 -41q201 -44 292 -139t91 -251q0 -137 -69.5 -233.5t-188.5 -143t-277 -46.5q-245 0 -394.5 104t-168.5 293h211q13 -100 105 -152.5t247 -52.5zM741 1548h-209l-251 299h192l164 -155l164 155h192z" />
    <glyph glyph-name="scaron" unicode="&#x161;" horiz-adv-x="856" 
d="M430 139q78 0 125 28.5t47 82.5q0 51 -32.5 75.5t-125.5 43.5l-90 20q-137 27 -204.5 90.5t-67.5 171.5q0 123 92.5 196t245.5 73q89 0 156.5 -20.5t108 -58t62.5 -83.5t27 -103h-180q-14 107 -168 107q-70 0 -112 -28t-42 -77q0 -54 37.5 -77.5t124.5 -40.5l88 -19
q136 -25 204.5 -89t68.5 -175q0 -128 -96.5 -201t-266.5 -73q-174 0 -268 74.5t-107 197.5h181q8 -55 56.5 -85t135.5 -30zM524 1057h-209l-245 305h190l160 -166l160 166h190z" />
    <glyph glyph-name="Tcommaaccent" unicode="&#x162;" horiz-adv-x="1259" 
d="M1204 1434v-199h-467v-1235h-215v1235h-467v199h1149zM737 -88l-90 -369h-168l45 369h213z" />
    <glyph glyph-name="tcommaaccent" unicode="&#x163;" horiz-adv-x="815" 
d="M55 901h172v277h191v-277h315v-174h-315v-397q0 -94 40.5 -130t131.5 -36q74 0 149 22v-172q-81 -30 -188 -30q-160 0 -245 72.5t-85 242.5v428h-166v174zM627 -88l-88 -361h-162l45 361h205z" />
    <glyph glyph-name="Tcaron" unicode="&#x164;" horiz-adv-x="1259" 
d="M1204 1434v-199h-467v-1235h-215v1235h-467v199h1149zM733 1548h-209l-252 299h193l164 -155l164 155h192z" />
    <glyph glyph-name="tcaron" unicode="&#x165;" horiz-adv-x="815" 
d="M55 901h172v277h191v-277h315v-174h-315v-397q0 -94 40.5 -130t131.5 -36q74 0 149 22v-172q-81 -30 -188 -30q-160 0 -245 72.5t-85 242.5v428h-166v174zM553 1036l14 424h207l-69 -424h-152z" />
    <glyph glyph-name="Tbar" unicode="&#x166;" horiz-adv-x="1259" 
d="M1001 772v-162h-264v-610h-215v610h-266v162h266v463h-467v199h1149v-199h-467v-463h264z" />
    <glyph glyph-name="tbar" unicode="&#x167;" horiz-adv-x="815" 
d="M418 1178v-277h315v-174h-315v-190h276v-152h-276v-55q0 -94 40.5 -130t131.5 -36q74 0 149 22v-172q-81 -30 -188 -30q-160 0 -245 72.5t-85 242.5v86h-162v152h162v190h-166v174h172v277h191z" />
    <glyph glyph-name="Utilde" unicode="&#x168;" horiz-adv-x="1552" 
d="M776 -23q-175 0 -310 66.5t-215.5 205t-80.5 333.5v852h217v-824q0 -214 103.5 -322t287.5 -108t287.5 108t103.5 322v824h215v-852q0 -195 -81 -333.5t-216.5 -205t-310.5 -66.5zM997 1778l129 -23q-21 -97 -71 -156t-135 -59q-55 0 -144 40t-127 40q-65 0 -90 -76
l-129 21q21 98 71.5 157.5t135.5 59.5q55 0 143.5 -40t126.5 -40q66 0 90 76z" />
    <glyph glyph-name="utilde" unicode="&#x169;" horiz-adv-x="1120" 
d="M492 -20q-165 0 -264 102.5t-99 267.5v551h197v-495q0 -116 56.5 -181t162.5 -65q108 0 173.5 69t65.5 185v487h197v-901h-190v127q-43 -68 -122 -107.5t-177 -39.5zM895 1268q-46 -219 -203 -219q-50 0 -137.5 40.5t-124.5 40.5q-64 0 -88 -75l-127 20q21 97 70.5 157
t132.5 60q50 0 137.5 -41t124.5 -41q35 0 55.5 18.5t32.5 57.5z" />
    <glyph glyph-name="Umacron" unicode="&#x16a;" horiz-adv-x="1552" 
d="M776 -23q-175 0 -310 66.5t-215.5 205t-80.5 333.5v852h217v-824q0 -214 103.5 -322t287.5 -108t287.5 108t103.5 322v824h215v-852q0 -195 -81 -333.5t-216.5 -205t-310.5 -66.5zM1114 1708v-160h-672v160h672z" />
    <glyph glyph-name="umacron" unicode="&#x16b;" horiz-adv-x="1120" 
d="M492 -20q-165 0 -264 102.5t-99 267.5v551h197v-495q0 -116 56.5 -181t162.5 -65q108 0 173.5 69t65.5 185v487h197v-901h-190v127q-43 -68 -122 -107.5t-177 -39.5zM881 1243v-160h-652v160h652z" />
    <glyph glyph-name="Ubreve" unicode="&#x16c;" horiz-adv-x="1552" 
d="M776 -23q-175 0 -310 66.5t-215.5 205t-80.5 333.5v852h217v-824q0 -214 103.5 -322t287.5 -108t287.5 108t103.5 322v824h215v-852q0 -195 -81 -333.5t-216.5 -205t-310.5 -66.5zM778 1540q-83 0 -149 26t-106.5 69.5t-63.5 92.5t-31 103h170q8 -59 56 -96t124 -37
q77 0 124.5 37t55.5 96h170q-8 -54 -31 -103t-63.5 -92.5t-106.5 -69.5t-149 -26z" />
    <glyph glyph-name="ubreve" unicode="&#x16d;" horiz-adv-x="1120" 
d="M492 -20q-165 0 -264 102.5t-99 267.5v551h197v-495q0 -116 56.5 -181t162.5 -65q108 0 173.5 69t65.5 185v487h197v-901h-190v127q-43 -68 -122 -107.5t-177 -39.5zM555 1051q-83 0 -148.5 26.5t-105 71t-61.5 94.5t-29 105h168q8 -61 55 -101.5t121 -40.5t121 40.5
t55 101.5h168q-7 -55 -29 -105t-61.5 -94.5t-105 -71t-148.5 -26.5z" />
    <glyph glyph-name="Uring" unicode="&#x16e;" horiz-adv-x="1552" 
d="M776 -23q-175 0 -310 66.5t-215.5 205t-80.5 333.5v852h217v-824q0 -214 103.5 -322t287.5 -108t287.5 108t103.5 322v824h215v-852q0 -195 -81 -333.5t-216.5 -205t-310.5 -66.5zM778 1649q46 0 77.5 30.5t31.5 77.5t-31.5 78t-77.5 31t-76 -31t-30 -78t30 -77.5
t76 -30.5zM778 1540q-96 0 -160.5 62.5t-64.5 154.5q0 94 64 156.5t161 62.5t161.5 -62.5t64.5 -156.5q0 -92 -64.5 -154.5t-161.5 -62.5z" />
    <glyph glyph-name="uring" unicode="&#x16f;" horiz-adv-x="1120" 
d="M492 -20q-165 0 -264 102.5t-99 267.5v551h197v-495q0 -116 56.5 -181t162.5 -65q108 0 173.5 69t65.5 185v487h197v-901h-190v127q-43 -68 -122 -107.5t-177 -39.5zM555 1032q-95 0 -159 62.5t-64 154.5t64 154.5t159 62.5q96 0 159.5 -62t63.5 -155t-63.5 -155
t-159.5 -62zM555 1141q47 0 78 30.5t31 77.5t-31 78t-78 31t-78 -31t-31 -78t31 -77.5t78 -30.5z" />
    <glyph glyph-name="Uhungarumlaut" unicode="&#x170;" horiz-adv-x="1552" 
d="M776 -23q-175 0 -310 66.5t-215.5 205t-80.5 333.5v852h217v-824q0 -214 103.5 -322t287.5 -108t287.5 108t103.5 322v824h215v-852q0 -195 -81 -333.5t-216.5 -205t-310.5 -66.5zM827 1825l-215 -287l-114 64l157 325zM1219 1825l-215 -287l-115 64l158 325z" />
    <glyph glyph-name="uhungarumlaut" unicode="&#x171;" horiz-adv-x="1120" 
d="M492 -20q-165 0 -264 102.5t-99 267.5v551h197v-495q0 -116 56.5 -181t162.5 -65q108 0 173.5 69t65.5 185v487h197v-901h-190v127q-43 -68 -122 -107.5t-177 -39.5zM961 1354l-224 -305l-112 63l168 342zM588 1354l-223 -305l-113 63l168 342z" />
    <glyph glyph-name="Uogonek" unicode="&#x172;" horiz-adv-x="1552" 
d="M776 -23q-175 0 -310 66.5t-215.5 205t-80.5 333.5v852h217v-824q0 -214 103.5 -322t287.5 -108t287.5 108t103.5 322v824h215v-852q0 -216 -96.5 -359.5t-263.5 -204.5q-73 -37 -115.5 -85t-42.5 -97q0 -80 88 -80q59 0 123 31l51 -106q-94 -78 -221 -78
q-98 0 -159.5 48t-61.5 136q0 105 98 190h-8z" />
    <glyph glyph-name="uogonek" unicode="&#x173;" horiz-adv-x="1120" 
d="M991 -213l51 -109q-34 -29 -92 -50t-119 -21q-92 0 -152.5 43.5t-60.5 120.5q0 132 173 229v127q-43 -68 -122 -107.5t-177 -39.5q-165 0 -264 102.5t-99 267.5v551h197v-495q0 -116 56.5 -181t162.5 -65q108 0 173.5 69t65.5 185v487h197v-901q-92 -43 -138 -87t-46 -95
q0 -29 22.5 -45.5t59.5 -16.5q55 0 112 31z" />
    <glyph glyph-name="Wcircumflex" unicode="&#x174;" horiz-adv-x="2275" 
d="M1239 1434l373 -1125l379 1125h219l-494 -1438h-207l-372 1104l-373 -1104h-205l-493 1438h229l369 -1117l378 1117h197zM1034 1847h209l252 -299h-192l-164 156l-164 -156h-193z" />
    <glyph glyph-name="wcircumflex" unicode="&#x175;" horiz-adv-x="1593" 
d="M1030 -2l-231 639l-240 -639h-170l-342 903h211l225 -635l240 635h174l221 -639l236 639h192l-342 -903h-174zM694 1362h209l246 -305h-191l-159 166l-160 -166h-190z" />
    <glyph glyph-name="Ycircumflex" unicode="&#x176;" horiz-adv-x="1413" 
d="M268 1434l439 -684l440 684h244l-578 -887v-547h-215v545l-575 889h245zM602 1847h209l252 -299h-193l-163 156l-164 -156h-193z" />
    <glyph glyph-name="ycircumflex" unicode="&#x177;" horiz-adv-x="1034" 
d="M250 901l276 -577l262 577h213l-630 -1343h-211l264 557l-389 786h215zM422 1362h209l246 -305h-191l-160 166l-159 -166h-191z" />
    <glyph glyph-name="Ydieresis" unicode="&#x178;" horiz-adv-x="1413" 
d="M268 1434l439 -684l440 684h244l-578 -887v-547h-215v545l-575 889h245zM358 1663q0 54 35 89.5t90 35.5q57 0 92 -35t35 -90q0 -56 -35 -91.5t-92 -35.5q-55 0 -90 35.5t-35 91.5zM803 1663q0 55 35.5 90t91.5 35q55 0 90 -35.5t35 -89.5q0 -56 -35 -91.5t-90 -35.5
q-57 0 -92 35.5t-35 91.5z" />
    <glyph glyph-name="Zacute" unicode="&#x179;" horiz-adv-x="1392" 
d="M1264 197v-197h-1139v156l840 1081h-830v197h1118v-156l-837 -1081h848zM864 1917l140 -148l-312 -229l-90 92z" />
    <glyph glyph-name="zacute" unicode="&#x17a;" horiz-adv-x="980" 
d="M115 729v172h770v-135l-516 -592h520v-174h-795v137l518 592h-497zM690 1440l139 -144l-325 -256l-90 90z" />
    <glyph glyph-name="Zdotaccent" unicode="&#x17b;" horiz-adv-x="1392" 
d="M1264 197v-197h-1139v156l840 1081h-830v197h1118v-156l-837 -1081h848zM561 1669q0 57 36 94t93 37t93 -37t36 -94q0 -56 -36 -92.5t-93 -36.5t-93 36.5t-36 92.5z" />
    <glyph glyph-name="zdotaccent" unicode="&#x17c;" horiz-adv-x="980" 
d="M115 729v172h770v-135l-516 -592h520v-174h-795v137l518 592h-497zM377 1192q0 56 34.5 90.5t90.5 34.5t90.5 -34.5t34.5 -90.5q0 -54 -35 -89.5t-90 -35.5t-90 35.5t-35 89.5z" />
    <glyph glyph-name="Zcaron" unicode="&#x17d;" horiz-adv-x="1392" 
d="M1264 197v-197h-1139v156l840 1081h-830v197h1118v-156l-837 -1081h848zM795 1548h-209l-252 299h192l164 -155l164 155h193z" />
    <glyph glyph-name="zcaron" unicode="&#x17e;" horiz-adv-x="980" 
d="M115 729v172h770v-135l-516 -592h520v-174h-795v137l518 592h-497zM606 1057h-209l-245 305h190l160 -166l160 166h190z" />
    <glyph glyph-name="longs" unicode="&#x17f;" horiz-adv-x="532" 
d="M336 1024v-1024h-197v1049q0 401 340 401q90 0 156 -20v-168q-49 8 -117 8q-99 0 -140.5 -58.5t-41.5 -187.5z" />
    <glyph glyph-name="Schwa" unicode="&#x18f;" horiz-adv-x="1689" 
d="M825 1456q214 0 383.5 -95.5t264 -264t94.5 -379.5q0 -158 -55 -295t-151.5 -235t-233 -154t-293.5 -56q-154 0 -286 52.5t-227 146t-148.5 230.5t-53.5 299q0 61 8 108h1208q-28 206 -166 323t-348 117q-174 0 -290.5 -73t-155.5 -199h-225q46 208 234.5 341.5
t440.5 133.5zM834 180q198 0 336 119.5t165 325.5h-995q14 -199 148.5 -322t345.5 -123z" />
    <glyph glyph-name="florin" unicode="&#x192;" horiz-adv-x="1341" 
d="M385 723h197l43 328q27 206 117.5 302.5t267.5 96.5q91 0 157 -20l-20 -177q-68 11 -115 11q-101 0 -146 -53.5t-63 -182.5l-39 -305h281l-21 -176h-282l-86 -670q-21 -163 -98.5 -247.5t-225.5 -84.5q-40 0 -133 15l23 178q40 -6 77 -6q75 0 110.5 40t47.5 134l82 641
h-197z" />
    <glyph glyph-name="Aringacute" unicode="&#x1fa;" horiz-adv-x="1542" 
d="M1274 0l-154 358h-702l-152 -358h-219l629 1438h192l627 -1438h-221zM770 1188l-268 -631h534zM770 1530q-96 0 -160.5 62.5t-64.5 154.5q0 94 64 156.5t161 62.5t161 -62.5t64 -156.5q0 -92 -64.5 -154.5t-160.5 -62.5zM942 2408l139 -147l-311 -229l-90 92zM770 1638
q46 0 77.5 31t31.5 78t-31.5 77.5t-77.5 30.5t-76 -30.5t-30 -77.5t30 -78t76 -31z" />
    <glyph glyph-name="aringacute" unicode="&#x1fb;" horiz-adv-x="1163" 
d="M84 451q0 199 126.5 335t317.5 136q187 0 306 -142v121h190v-901h-190v121q-118 -141 -306 -141q-192 0 -318 135.5t-126 335.5zM287 451q0 -130 75.5 -213.5t192.5 -83.5q115 0 193.5 84t78.5 213t-78.5 213t-193.5 84q-117 0 -192.5 -83.5t-75.5 -213.5zM551 1026
q-95 0 -159 62.5t-64 154.5t64 154.5t159 62.5q96 0 159.5 -62t63.5 -155t-63.5 -155t-159.5 -62zM737 1931l140 -143l-326 -256l-90 90zM551 1135q47 0 77.5 30.5t30.5 77.5t-30.5 78t-77.5 31t-78 -31t-31 -78t31 -77.5t78 -30.5z" />
    <glyph glyph-name="AEacute" unicode="&#x1fc;" horiz-adv-x="2293" 
d="M2157 1434v-197h-803v-418h753v-194h-753v-428h813v-197h-1030v352h-619l-250 -352h-245l1028 1434h1106zM653 545h484v680zM1358 1917l139 -148l-311 -229l-90 92z" />
    <glyph glyph-name="aeacute" unicode="&#x1fd;" horiz-adv-x="1683" 
d="M1599 373h-684q21 -106 92.5 -166t168.5 -60q85 0 143.5 35.5t75.5 96.5h188q-27 -129 -139 -214t-277 -85q-107 0 -197 45t-151 125q-119 -166 -385 -166q-71 0 -132 15t-111.5 46t-79.5 84.5t-29 124.5q0 125 89 193.5t255 68.5h299q2 22 10 57q-8 86 -61.5 133.5
t-151.5 47.5q-88 0 -138.5 -31t-61.5 -80h-191q11 119 114.5 198t280.5 79q222 0 320 -140q61 67 144 104.5t175 37.5q124 0 225.5 -62.5t157.5 -169.5t56 -235q0 -14 -5 -82zM1169 754q-100 0 -169.5 -63.5t-86.5 -174.5h494q-15 111 -82 174.5t-156 63.5zM735 326
q-4 13 -8 47h-264q-101 0 -145 -28.5t-44 -88.5q0 -115 175 -115q125 0 201 47.5t85 137.5zM1038 1440l140 -144l-326 -256l-90 90z" />
    <glyph glyph-name="Oslashacute" unicode="&#x1fe;" horiz-adv-x="1740" 
d="M870 1456q251 0 451 -147l135 143l117 -113l-135 -141q178 -207 178 -481q0 -153 -58.5 -290t-158 -235.5t-238 -156.5t-291.5 -58q-251 0 -452 148l-133 -143l-119 112l133 142q-174 206 -174 481q0 153 58.5 290t157.5 235.5t237.5 156t291.5 57.5zM870 182
q108 0 204 41t166 111.5t110.5 170t40.5 212.5q0 184 -105 327l-725 -763q135 -99 309 -99zM350 717q0 -188 103 -328l725 764q-138 98 -308 98q-144 0 -263 -69t-188 -191.5t-69 -273.5zM1042 1919l140 -147l-312 -230l-90 92z" />
    <glyph glyph-name="oslashacute" unicode="&#x1ff;" horiz-adv-x="1120" 
d="M559 922q150 0 277 -86l69 73l92 -86l-69 -73q106 -125 106 -299q0 -197 -138 -334t-337 -137q-152 0 -274 83l-70 -73l-92 86l70 74q-107 129 -107 301q0 198 137.5 334.5t335.5 136.5zM289 451q0 -93 41 -164l385 409q-71 49 -156 49q-117 0 -193.5 -82.5t-76.5 -211.5
zM559 156q117 0 194.5 83t77.5 212q0 89 -40 161l-383 -409q65 -47 151 -47zM754 1448l139 -143l-326 -256l-90 90z" />
    <glyph glyph-name="Scommaaccent" unicode="&#x218;" horiz-adv-x="1302" 
d="M657 172q145 0 231.5 58.5t86.5 162.5q0 80 -59.5 132t-190.5 81l-184 41q-209 45 -312.5 144.5t-103.5 261.5q0 188 135.5 294.5t372.5 106.5q226 0 359.5 -99t154.5 -272h-209q-15 86 -95 132.5t-210 46.5q-137 0 -214 -52.5t-77 -154.5q0 -88 68.5 -138.5t214.5 -82.5
l184 -41q201 -44 292 -139t91 -251q0 -137 -69.5 -233.5t-188.5 -143t-277 -46.5q-245 0 -394.5 104t-168.5 293h211q13 -100 105 -152.5t247 -52.5zM764 -88l-90 -369h-168l45 369h213z" />
    <glyph glyph-name="scommaaccent" unicode="&#x219;" horiz-adv-x="856" 
d="M430 139q78 0 125 28.5t47 82.5q0 51 -32.5 75.5t-125.5 43.5l-90 20q-137 27 -204.5 90.5t-67.5 171.5q0 123 92.5 196t245.5 73q89 0 156.5 -20.5t108 -58t62.5 -83.5t27 -103h-180q-14 107 -168 107q-70 0 -112 -28t-42 -77q0 -54 37.5 -77.5t124.5 -40.5l88 -19
q136 -25 204.5 -89t68.5 -175q0 -128 -96.5 -201t-266.5 -73q-174 0 -268 74.5t-107 197.5h181q8 -55 56.5 -85t135.5 -30zM549 -88l-88 -361h-162l45 361h205z" />
    <glyph glyph-name="uni021A" unicode="&#x21a;" horiz-adv-x="1259" 
d="M1204 1434v-199h-467v-1235h-215v1235h-467v199h1149zM737 -88l-90 -369h-168l45 369h213z" />
    <glyph glyph-name="uni021B" unicode="&#x21b;" horiz-adv-x="815" 
d="M55 901h172v277h191v-277h315v-174h-315v-397q0 -94 40.5 -130t131.5 -36q74 0 149 22v-172q-81 -30 -188 -30q-160 0 -245 72.5t-85 242.5v428h-166v174zM627 -88l-88 -361h-162l45 361h205z" />
    <glyph glyph-name="dotlessj" unicode="&#x237;" horiz-adv-x="485" 
d="M147 -98v999h197v-1024q0 -332 -287 -332q-39 0 -127 15v172q44 -6 80 -6q74 0 105.5 42t31.5 134z" />
    <glyph glyph-name="schwa" unicode="&#x259;" horiz-adv-x="1067" 
d="M522 922q200 0 330.5 -133.5t130.5 -337.5q0 -203 -129.5 -337t-325.5 -134q-197 0 -322.5 133t-125.5 329q0 51 4 78h698q-19 111 -91 173.5t-177 62.5q-89 0 -149.5 -35.5t-75.5 -95.5h-189q27 129 140.5 213t281.5 84zM524 145q102 0 170.5 61t87.5 171h-506
q15 -110 82 -171t166 -61z" />
    <glyph glyph-name="circumflex" unicode="&#x2c6;" 
d="M408 1362h208l246 -305h-190l-160 166l-160 -166h-190z" />
    <glyph glyph-name="caron" unicode="&#x2c7;" 
d="M616 1057h-208l-246 305h190l160 -166l160 166h190z" />
    <glyph glyph-name="uni02C9" unicode="&#x2c9;" 
d="M821 1245v-158h-618v158h618z" />
    <glyph glyph-name="breve" unicode="&#x2d8;" 
d="M512 1053q-83 0 -148.5 26.5t-105 71t-61.5 94.5t-29 105h168q8 -61 55 -101.5t121 -40.5t121 40.5t55 101.5h168q-7 -55 -29 -105t-61.5 -94.5t-105 -71t-148.5 -26.5z" />
    <glyph glyph-name="dotaccent" unicode="&#x2d9;" 
d="M387 1192q0 56 34.5 90.5t90.5 34.5t90.5 -34.5t34.5 -90.5q0 -54 -35 -89.5t-90 -35.5t-90 35.5t-35 89.5z" />
    <glyph glyph-name="ring" unicode="&#x2da;" 
d="M512 1141q47 0 78 30.5t31 77.5t-31 78t-78 31t-78 -31t-31 -78t31 -77.5t78 -30.5zM512 1032q-95 0 -159 62.5t-64 154.5t64 154.5t159 62.5q96 0 159.5 -62t63.5 -155t-63.5 -155t-159.5 -62z" />
    <glyph glyph-name="ogonek" unicode="&#x2db;" 
d="M668 -213l51 -109q-34 -29 -92 -50t-119 -21q-92 0 -152.5 43.5t-60.5 120.5q0 52 25 97.5t73 82t97.5 63.5t117.5 56l49 -70q-92 -43 -138 -87t-46 -95q0 -29 22.5 -45.5t59.5 -16.5q56 0 113 31z" />
    <glyph glyph-name="tilde" unicode="&#x2dc;" 
d="M852 1268q-46 -219 -203 -219q-50 0 -137.5 40.5t-124.5 40.5q-64 0 -88 -75l-127 20q21 97 70.5 157t132.5 60q50 0 137.5 -41t124.5 -41q35 0 55.5 18.5t32.5 57.5z" />
    <glyph glyph-name="hungarumlaut" unicode="&#x2dd;" 
d="M508 1354l-223 -305l-113 63l168 342zM881 1354l-224 -305l-112 63l168 342z" />
    <glyph glyph-name="uni03A9" unicode="&#x3a9;" horiz-adv-x="1689" 
d="M844 1456q161 0 298.5 -51.5t232 -141t147.5 -213t53 -264.5q0 -197 -87.5 -355t-219.5 -247h268v-184h-551v141q367 265 367 594q0 225 -139.5 371.5t-368.5 146.5t-367.5 -146.5t-138.5 -371.5q0 -329 367 -594v-141h-551v184h268q-132 89 -219.5 247t-87.5 355
q0 141 53 264.5t147.5 213t231.5 141t297 51.5z" />
    <glyph glyph-name="uni03BC" unicode="&#x3bc;" horiz-adv-x="1128" 
d="M545 -20q-142 0 -209 77v-497h-197v1341h197v-498q0 -116 57 -179.5t162 -63.5q108 0 174 69t66 185v487h196v-901h-190v125q-43 -68 -113.5 -106.5t-142.5 -38.5z" />
    <glyph glyph-name="pi" unicode="&#x3c0;" horiz-adv-x="1388" 
d="M74 901h1220v-174h-286v-401q0 -93 38 -130.5t111 -37.5t141 22v-168q-75 -28 -180 -28q-145 0 -226 73t-81 242v428h-276l-121 -727h-203l121 727h-258v174z" />
    <glyph glyph-name="Wgrave" unicode="&#x1e80;" horiz-adv-x="2275" 
d="M1239 1434l373 -1125l379 1125h219l-494 -1438h-207l-372 1104l-373 -1104h-205l-493 1438h229l369 -1117l378 1117h197zM825 1769l140 148l262 -285l-90 -92z" />
    <glyph glyph-name="wgrave" unicode="&#x1e81;" horiz-adv-x="1593" 
d="M1030 -2l-231 639l-240 -639h-170l-342 903h211l225 -635l240 635h174l221 -639l236 639h192l-342 -903h-174zM473 1296l139 144l277 -310l-90 -90z" />
    <glyph glyph-name="Wacute" unicode="&#x1e82;" horiz-adv-x="2275" 
d="M1239 1434l373 -1125l379 1125h219l-494 -1438h-207l-372 1104l-373 -1104h-205l-493 1438h229l369 -1117l378 1117h197zM1311 1917l139 -148l-311 -229l-90 92z" />
    <glyph glyph-name="wacute" unicode="&#x1e83;" horiz-adv-x="1593" 
d="M1030 -2l-231 639l-240 -639h-170l-342 903h211l225 -635l240 635h174l221 -639l236 639h192l-342 -903h-174zM985 1440l139 -144l-325 -256l-90 90z" />
    <glyph glyph-name="Wdieresis" unicode="&#x1e84;" horiz-adv-x="2275" 
d="M1239 1434l373 -1125l379 1125h219l-494 -1438h-207l-372 1104l-373 -1104h-205l-493 1438h229l369 -1117l378 1117h197zM791 1663q0 54 34.5 89.5t89.5 35.5q57 0 92 -35t35 -90q0 -56 -35 -91.5t-92 -35.5q-55 0 -89.5 35.5t-34.5 91.5zM1235 1663q0 55 35.5 90
t91.5 35q55 0 90 -35.5t35 -89.5q0 -56 -35 -91.5t-90 -35.5q-57 0 -92 35.5t-35 91.5z" />
    <glyph glyph-name="wdieresis" unicode="&#x1e85;" horiz-adv-x="1593" 
d="M1030 -2l-231 639l-240 -639h-170l-342 903h211l225 -635l240 635h174l221 -639l236 639h192l-342 -903h-174zM469 1184q0 54 34 88.5t89 34.5t90 -34.5t35 -88.5q0 -56 -34.5 -90.5t-90.5 -34.5q-55 0 -89 34.5t-34 90.5zM881 1184q0 54 35 88.5t90 34.5t88.5 -34.5
t33.5 -88.5q0 -56 -33.5 -90.5t-88.5 -34.5q-56 0 -90.5 34.5t-34.5 90.5z" />
    <glyph glyph-name="Ygrave" unicode="&#x1ef2;" horiz-adv-x="1413" 
d="M268 1434l439 -684l440 684h244l-578 -887v-547h-215v545l-575 889h245zM393 1769l139 148l263 -285l-90 -92z" />
    <glyph glyph-name="ygrave" unicode="&#x1ef3;" horiz-adv-x="1034" 
d="M250 901l276 -577l262 577h213l-630 -1343h-211l264 557l-389 786h215zM201 1296l139 144l276 -310l-90 -90z" />
    <glyph glyph-name="enspace" unicode="&#x2002;" 
 />
    <glyph glyph-name="emspace" unicode="&#x2003;" horiz-adv-x="1937" 
 />
    <glyph glyph-name="endash" unicode="&#x2013;" horiz-adv-x="972" 
d="M57 365v172h861v-172h-861z" />
    <glyph glyph-name="emdash" unicode="&#x2014;" horiz-adv-x="1198" 
d="M31 365v172h1136v-172h-1136z" />
    <glyph glyph-name="quoteleft" unicode="&#x2018;" horiz-adv-x="528" 
d="M453 1454l-95 -608h-235l166 608h164z" />
    <glyph glyph-name="quoteright" unicode="&#x2019;" horiz-adv-x="530" 
d="M78 846l94 608h236l-166 -608h-164z" />
    <glyph glyph-name="quotesinglbase" unicode="&#x201a;" horiz-adv-x="530" 
d="M78 -313l94 608h236l-166 -608h-164z" />
    <glyph glyph-name="quotedblleft" unicode="&#x201c;" horiz-adv-x="933" 
d="M453 1454l-95 -608h-235l166 608h164zM858 1454l-94 -608h-236l166 608h164z" />
    <glyph glyph-name="quotedblright" unicode="&#x201d;" horiz-adv-x="933" 
d="M78 846l94 608h236l-166 -608h-164zM483 846l95 608h235l-166 -608h-164z" />
    <glyph glyph-name="quotedblbase" unicode="&#x201e;" horiz-adv-x="933" 
d="M78 -313l94 608h236l-166 -608h-164zM483 -313l95 608h235l-166 -608h-164z" />
    <glyph glyph-name="dagger" unicode="&#x2020;" horiz-adv-x="1134" 
d="M1061 1028v-178h-395v-1186h-197v1186h-393v178h393v406h197v-406h395z" />
    <glyph glyph-name="daggerdbl" unicode="&#x2021;" horiz-adv-x="1134" 
d="M1061 238v-179h-395v-395h-197v395h-393v179h393v632h-393v179h393v395h197v-395h395v-179h-395v-632h395z" />
    <glyph glyph-name="bullet" unicode="&#x2022;" horiz-adv-x="858" 
d="M324 371q-42 27 -65 71.5t-23 92.5q0 55 30 102q27 40 70 62t90 22q58 0 109 -31q42 -29 65 -72.5t23 -91.5q0 -54 -31 -102q-28 -41 -70 -63.5t-90 -22.5q-61 0 -108 33z" />
    <glyph glyph-name="onedotenleader" unicode="&#x2024;" horiz-adv-x="520" 
d="M119 129q0 60 40 100.5t101 40.5t101 -40.5t40 -100.5t-40 -100.5t-101 -40.5t-101 40.5t-40 100.5z" />
    <glyph glyph-name="twodotenleader" unicode="&#x2025;" horiz-adv-x="1116" 
d="M694 129q0 60 40.5 100.5t101.5 40.5q62 0 102.5 -40t40.5 -101t-40.5 -101t-102.5 -40q-61 0 -101.5 40.5t-40.5 100.5zM137 129q0 60 40.5 100.5t101.5 40.5t101 -40.5t40 -100.5t-40 -100.5t-101 -40.5t-101.5 40.5t-40.5 100.5z" />
    <glyph glyph-name="ellipsis" unicode="&#x2026;" horiz-adv-x="1673" 
d="M137 129q0 60 40.5 100.5t101.5 40.5t101 -40.5t40 -100.5t-40 -100.5t-101 -40.5t-101.5 40.5t-40.5 100.5zM694 129q0 60 40.5 100.5t101.5 40.5q62 0 102.5 -40t40.5 -101t-40.5 -101t-102.5 -40q-61 0 -101.5 40.5t-40.5 100.5zM1253 129q0 60 40.5 100.5t101.5 40.5
t101 -40.5t40 -100.5t-40 -100.5t-101 -40.5t-101.5 40.5t-40.5 100.5z" />
    <glyph glyph-name="perthousand" unicode="&#x2030;" horiz-adv-x="2899" 
d="M668 0h-203l878 1434h203zM467 1446q163 0 271 -109t108 -270q0 -162 -108 -271.5t-271 -109.5q-162 0 -270.5 109.5t-108.5 271.5q0 160 108.5 269.5t270.5 109.5zM467 850q89 0 146 61.5t57 155.5q0 93 -57 154t-146 61t-145 -61t-56 -154q0 -94 56 -155.5t145 -61.5z
M1544 748q162 0 270.5 -109.5t108.5 -271.5q0 -160 -108.5 -269.5t-270.5 -109.5q-163 0 -271 109t-108 270q0 162 108 271.5t271 109.5zM1544 152q89 0 145 61t56 154q0 94 -56 155.5t-145 61.5t-146 -61.5t-57 -155.5q0 -93 57 -154t146 -61zM2433 748q162 0 270.5 -109.5
t108.5 -271.5q0 -160 -108.5 -269.5t-270.5 -109.5t-270.5 109.5t-108.5 269.5q0 162 108.5 271.5t270.5 109.5zM2433 152q89 0 146 61t57 154q0 94 -57 155.5t-146 61.5t-146 -61.5t-57 -155.5q0 -93 57 -154t146 -61z" />
    <glyph glyph-name="minute" unicode="&#x2032;" horiz-adv-x="518" 
d="M221 1434h205l-137 -668h-197z" />
    <glyph glyph-name="second" unicode="&#x2033;" horiz-adv-x="892" 
d="M221 1434h205l-137 -668h-197zM596 1434h205l-137 -668h-197z" />
    <glyph glyph-name="uni2034" unicode="&#x2034;" horiz-adv-x="1267" 
d="M221 1434h205l-137 -668h-197zM596 1434h205l-137 -668h-197zM971 1434h205l-138 -668h-196z" />
    <glyph glyph-name="guilsinglleft" unicode="&#x2039;" horiz-adv-x="606" 
d="M516 846l-223 -379l223 -377h-207l-225 377l225 379h207z" />
    <glyph glyph-name="guilsinglright" unicode="&#x203a;" horiz-adv-x="606" 
d="M90 90l223 377l-223 379h207l223 -379l-223 -377h-207z" />
    <glyph glyph-name="fraction" unicode="&#x2044;" horiz-adv-x="557" 
d="M-59 0h-203l878 1434h203z" />
    <glyph glyph-name="zero.superior" unicode="&#x2070;" horiz-adv-x="806" 
d="M403 1829q159 0 259 -111.5t100 -283.5t-100.5 -284t-258.5 -112t-257 112t-99 284t99 283.5t257 111.5zM403 1188q84 0 136.5 68.5t52.5 177.5t-52 177t-137 68q-84 0 -136 -68t-52 -177t52 -177.5t136 -68.5z" />
    <glyph glyph-name="four.superior" unicode="&#x2074;" horiz-adv-x="806" 
d="M643 1815v-461h121v-144h-121v-155h-164v155h-418v123l441 482h141zM246 1354h235v254z" />
    <glyph glyph-name="five.superior" unicode="&#x2075;" horiz-adv-x="806" 
d="M410 1184q70 0 108.5 31t38.5 85q0 57 -38 90t-118 33q-88 0 -141 -39l-143 31l24 397h535v-147h-395l-11 -154q65 35 164 35q140 0 215.5 -68t75.5 -178q0 -126 -86.5 -194t-228.5 -68q-149 0 -228.5 66.5t-85.5 185.5h156q9 -106 158 -106z" />
    <glyph glyph-name="six.superior" unicode="&#x2076;" horiz-adv-x="806" 
d="M461 1561q125 0 206 -72t81 -182q0 -118 -89 -193.5t-227 -75.5q-152 0 -247 92t-95 267q0 210 90.5 321t261.5 111q124 0 197.5 -60t89.5 -155h-156q-7 36 -42 57t-87 21q-172 0 -186 -205q65 74 203 74zM428 1178q72 0 115 34.5t43 94.5q0 59 -42.5 93t-115.5 34
t-116.5 -34t-43.5 -93q0 -60 43.5 -94.5t116.5 -34.5z" />
    <glyph glyph-name="seven.superior" unicode="&#x2077;" horiz-adv-x="806" 
d="M707 1683l-347 -628h-192l336 610h-406v147h609v-129z" />
    <glyph glyph-name="eight.superior" unicode="&#x2078;" horiz-adv-x="806" 
d="M403 1829q146 0 229 -59.5t83 -157.5q0 -58 -32 -101.5t-85 -62.5q58 -19 98.5 -66.5t40.5 -113.5q0 -107 -90.5 -168.5t-243.5 -61.5t-243 61.5t-90 168.5q0 66 41 113.5t100 66.5q-54 19 -85.5 62t-31.5 102q0 98 82 157.5t227 59.5zM403 1180q168 0 168 98
q0 47 -44 72.5t-124 25.5t-123.5 -25.5t-43.5 -72.5q0 -49 44.5 -73.5t122.5 -24.5zM403 1501q70 0 109 25.5t39 68.5q0 93 -148 93q-145 0 -145 -93q0 -43 38.5 -68.5t106.5 -25.5z" />
    <glyph glyph-name="nine.superior" unicode="&#x2079;" horiz-adv-x="806" 
d="M348 1307q-125 0 -206 72t-81 182q0 118 88 193t226 75q153 0 248.5 -92t95.5 -267q0 -209 -91 -320.5t-263 -111.5q-123 0 -196 60t-89 155h153q7 -36 43.5 -56.5t88.5 -20.5q174 0 184 204q-61 -73 -201 -73zM381 1690q-73 0 -116.5 -34.5t-43.5 -94.5q0 -59 43.5 -93
t116.5 -34q72 0 115 34t43 93t-43.5 94t-114.5 35z" />
    <glyph glyph-name="parenleft.superior" unicode="&#x207d;" horiz-adv-x="579" 
d="M102 1434q0 183 114.5 325t301.5 178v-147q-113 -28 -179.5 -125t-66.5 -231q0 -135 66.5 -232t179.5 -125v-147q-187 36 -301.5 178.5t-114.5 325.5z" />
    <glyph glyph-name="parenright.superior" unicode="&#x207e;" horiz-adv-x="579" 
d="M477 1434q0 -183 -114.5 -325.5t-301.5 -178.5v147q113 28 179.5 125t66.5 232q0 134 -66.5 231t-179.5 125v147q187 -36 301.5 -178t114.5 -325z" />
    <glyph glyph-name="n.superior" unicode="&#x207f;" horiz-adv-x="911" 
d="M514 1831q141 0 227 -84.5t86 -228.5v-463h-165v415q0 100 -49 153.5t-144 53.5q-96 0 -153.5 -60t-57.5 -161v-401h-166v757h162v-104q37 58 105 90.5t155 32.5z" />
    <glyph glyph-name="zero.inferior" unicode="&#x2080;" horiz-adv-x="806" 
d="M403 395q159 0 259 -111.5t100 -283.5t-100 -283.5t-259 -111.5q-158 0 -257 111.5t-99 283.5t99 283.5t257 111.5zM403 -246q84 0 136.5 68.5t52.5 177.5t-52.5 177.5t-136.5 68.5t-136 -68.5t-52 -177.5t52 -177.5t136 -68.5z" />
    <glyph glyph-name="one.inferior" unicode="&#x2081;" horiz-adv-x="806" 
d="M391 -379v586l-201 -64l-45 142l275 96h135v-760h-164z" />
    <glyph glyph-name="two.inferior" unicode="&#x2082;" horiz-adv-x="806" 
d="M399 246q-142 0 -151 -135h-160q6 128 85 206t233 78q139 0 217.5 -68.5t78.5 -176.5q0 -83 -44.5 -146.5t-131.5 -126.5l-143 -108h338v-148h-621v117l299 221q76 58 107 96t31 86t-37 76.5t-101 28.5z" />
    <glyph glyph-name="three.inferior" unicode="&#x2083;" horiz-adv-x="806" 
d="M395 250q-146 0 -153 -121h-158q6 124 87.5 195t229.5 71q129 0 213 -58t84 -167q0 -57 -27 -97t-67 -53q54 -16 85.5 -60t31.5 -116q0 -109 -88 -174t-225 -65q-315 0 -334 266h159q9 -121 166 -121q154 0 154 107q0 92 -123 92h-82v127h82q53 0 79 21t26 57
q0 96 -140 96z" />
    <glyph glyph-name="four.inferior" unicode="&#x2084;" horiz-adv-x="806" 
d="M643 381v-461h121v-143h-121v-156h-164v156h-418v123l441 481h141zM246 -80h235v254z" />
    <glyph glyph-name="five.inferior" unicode="&#x2085;" horiz-adv-x="806" 
d="M410 -250q70 0 108.5 31t38.5 86q0 57 -38 90t-118 33q-88 0 -141 -39l-143 31l24 397h535v-148h-395l-11 -153q65 35 164 35q140 0 215.5 -68t75.5 -178q0 -126 -86.5 -194t-228.5 -68q-149 0 -228.5 66.5t-85.5 185.5h156q9 -107 158 -107z" />
    <glyph glyph-name="six.inferior" unicode="&#x2086;" horiz-adv-x="806" 
d="M461 127q125 0 206 -72t81 -182q0 -118 -89 -193t-227 -75q-152 0 -247 91.5t-95 266.5q0 210 90.5 321t261.5 111q124 0 197.5 -60t89.5 -155h-156q-7 36 -42 57t-87 21q-172 0 -186 -205q65 74 203 74zM428 -256q72 0 115 34.5t43 94.5q0 59 -42.5 93t-115.5 34
t-116.5 -34t-43.5 -93q0 -60 43.5 -94.5t116.5 -34.5z" />
    <glyph glyph-name="seven.inferior" unicode="&#x2087;" horiz-adv-x="806" 
d="M707 250l-347 -629h-192l336 610h-406v148h609v-129z" />
    <glyph glyph-name="eight.inferior" unicode="&#x2088;" horiz-adv-x="806" 
d="M403 395q146 0 229 -59.5t83 -157.5q0 -58 -32 -101.5t-85 -62.5q58 -19 98.5 -66.5t40.5 -113.5q0 -107 -90.5 -168t-243.5 -61t-243 61t-90 168q0 66 41 113.5t100 66.5q-54 19 -85.5 62t-31.5 102q0 98 82 157.5t227 59.5zM403 -254q168 0 168 98q0 47 -44 73t-124 26
t-123.5 -26t-43.5 -73q0 -49 44.5 -73.5t122.5 -24.5zM403 68q70 0 109 25.5t39 68.5q0 92 -148 92q-145 0 -145 -92q0 -43 38.5 -68.5t106.5 -25.5z" />
    <glyph glyph-name="nine.inferior" unicode="&#x2089;" horiz-adv-x="806" 
d="M348 -127q-125 0 -206 72t-81 182q0 118 88 193t226 75q153 0 248.5 -91.5t95.5 -266.5q0 -209 -91 -320.5t-263 -111.5q-123 0 -196 60t-89 155h153q7 -36 43.5 -57t88.5 -21q174 0 184 205q-61 -74 -201 -74zM381 256q-73 0 -116.5 -34.5t-43.5 -94.5q0 -59 43.5 -93
t116.5 -34q72 0 115 34t43 93t-43.5 94t-114.5 35z" />
    <glyph glyph-name="parenleft.inferior" unicode="&#x208d;" horiz-adv-x="579" 
d="M102 0q0 183 114.5 325.5t301.5 178.5v-148q-113 -28 -179.5 -125t-66.5 -231t66.5 -231t179.5 -125v-148q-187 36 -301.5 178.5t-114.5 325.5z" />
    <glyph glyph-name="parenright.inferior" unicode="&#x208e;" horiz-adv-x="579" 
d="M477 0q0 -183 -114.5 -325.5t-301.5 -178.5v148q113 28 179.5 125t66.5 231t-66.5 231t-179.5 125v148q187 -36 301.5 -178.5t114.5 -325.5z" />
    <glyph glyph-name="Euro" unicode="&#x20ac;" horiz-adv-x="1341" 
d="M14 647h142q-2 23 -2 70q0 46 2 69h-142v168h174q69 225 255 363.5t434 138.5q245 0 423 -104l-94 -174q-119 73 -317 73q-164 0 -285.5 -79.5t-179.5 -217.5h649v-168h-692q-2 -23 -2 -69q0 -47 2 -70h510v-168h-467q58 -139 179 -218t286 -79q90 0 176.5 19t144.5 55
l93 -174q-83 -50 -195 -77.5t-229 -27.5q-250 0 -436 138.5t-255 363.5h-174v168z" />
    <glyph glyph-name="afii61289" unicode="&#x2113;" horiz-adv-x="1028" 
d="M907 1118q0 -210 -146.5 -392t-375.5 -286v-12q0 -140 54 -193t173 -53q103 0 207 64l68 -160q-140 -100 -318 -100q-64 0 -117.5 11t-103.5 39.5t-84.5 73.5t-54.5 116t-19 163v569q0 145 40 256t128 178.5t215 67.5q162 0 248 -95t86 -247zM385 926v-305
q144 81 239 209.5t95 265.5q0 186 -146 186q-188 0 -188 -356z" />
    <glyph glyph-name="numerosign" unicode="&#x2116;" horiz-adv-x="2553" 
d="M178 1436h201l829 -1096v1094h211v-1436h-198l-830 1092v-1090h-213v1436zM2071 1450q172 0 290.5 -116.5t118.5 -286.5t-118.5 -287t-290.5 -117q-171 0 -289.5 117t-118.5 287t118.5 286.5t289.5 116.5zM2071 801q99 0 164 69t65 177t-65 175.5t-164 67.5
q-97 0 -161.5 -68t-64.5 -175q0 -108 65 -177t161 -69zM1726 346v154h705v-154h-705z" />
    <glyph glyph-name="published" unicode="&#x2117;" horiz-adv-x="1720" 
d="M860 1456q153 0 291 -58t237.5 -156.5t158.5 -235.5t59 -289q0 -203 -99.5 -373t-271 -268.5t-375.5 -98.5q-153 0 -291 58t-237.5 157t-158 236t-58.5 289t58.5 289t158 235.5t237.5 156.5t291 58zM860 135q161 0 293.5 76.5t208.5 210t76 295.5t-76 295t-208.5 209.5
t-293.5 76.5t-293 -76.5t-207 -209.5t-75 -295q0 -121 44.5 -229t120.5 -185.5t183 -122.5t227 -45zM754 725h164q147 0 147 115q0 112 -147 112h-164v-227zM754 580v-242h-164v760h348q139 0 215 -71t76 -187q0 -118 -76 -189t-215 -71h-184z" />
    <glyph glyph-name="servicemark" unicode="&#x2120;" horiz-adv-x="1591" 
d="M762 1434h147l213 -369l215 369h146v-631h-137v428l-181 -307h-88l-176 299v-420h-139v631zM360 905q136 0 136 76q0 37 -25.5 56t-87.5 26l-94 12q-197 31 -197 180q0 87 72.5 139t185.5 52q126 0 192 -54t74 -137h-133q-10 76 -131 76q-123 0 -123 -71
q0 -37 28.5 -53.5t88.5 -24.5l92 -13q195 -27 195 -186q0 -91 -74.5 -140.5t-200.5 -49.5t-198 54t-80 140h135q9 -82 145 -82z" />
    <glyph glyph-name="trademark" unicode="&#x2122;" horiz-adv-x="1548" 
d="M719 1434h149l213 -369l215 369h146v-631h-137v428l-181 -307h-88l-178 301v-422h-139v631zM598 1434v-127h-201v-504h-141v504h-201v127h543z" />
    <glyph glyph-name="Omega" unicode="&#x2126;" horiz-adv-x="1689" 
d="M844 1456q161 0 298.5 -51.5t232 -141t147.5 -213t53 -264.5q0 -197 -87.5 -355t-219.5 -247h268v-184h-551v141q367 265 367 594q0 225 -139.5 371.5t-368.5 146.5t-367.5 -146.5t-138.5 -371.5q0 -329 367 -594v-141h-551v184h268q-132 89 -219.5 247t-87.5 355
q0 141 53 264.5t147.5 213t231.5 141t297 51.5z" />
    <glyph glyph-name="estimated" unicode="&#x212e;" horiz-adv-x="1720" 
d="M860 1372q-135 0 -253 -51t-206 -143v-420h928v409q-89 96 -209.5 150.5t-259.5 54.5zM1382 289l72 -53q-242 -256 -586 -256q-155 0 -293 57.5t-237 156t-157 235t-58 288.5t57.5 288.5t156 235t235 156t288.5 57.5q151 0 287.5 -57.5t235 -155.5t156.5 -234.5
t58 -289.5q0 -7 -1 -20.5t-1 -20.5h-1194v-420q185 -195 467 -195q317 0 514 228z" />
    <glyph glyph-name="oneseventh" unicode="&#x2150;" horiz-adv-x="1888" 
d="M551 0h-193l881 1434h193zM1786 629l-346 -629h-193l336 610h-405v148h608v-129zM391 676v586l-201 -64l-45 141l275 97h135v-760h-164z" />
    <glyph glyph-name="oneninth" unicode="&#x2151;" horiz-adv-x="1888" 
d="M563 0h-192l880 1434h193zM1427 252q-124 0 -205 72t-81 182q0 118 87.5 193t225.5 75q153 0 248.5 -91.5t95.5 -266.5q0 -209 -91 -320.5t-263 -111.5q-123 0 -196 60t-89 155h154q7 -36 43 -57t88 -21q174 0 184 205q-61 -74 -201 -74zM1460 635q-73 0 -116.5 -34.5
t-43.5 -94.5q0 -59 43.5 -93t116.5 -34q72 0 115 34t43 93t-43.5 94t-114.5 35zM391 676v586l-201 -64l-45 141l275 97h135v-760h-164z" />
    <glyph glyph-name="onetenth" unicode="&#x2152;" horiz-adv-x="2512" 
d="M391 676v586l-201 -64l-45 141l275 97h135v-760h-164zM547 0h-193l881 1434h192zM1411 0v586l-201 -64l-45 142l275 96h135v-760h-164zM2107 774q159 0 259 -111.5t100 -283.5t-100 -283.5t-259 -111.5q-158 0 -257 111.5t-99 283.5t99 283.5t257 111.5zM2107 133
q84 0 136.5 68.5t52.5 177.5t-52.5 177.5t-136.5 68.5t-136 -68.5t-52 -177.5t52 -177.5t136 -68.5z" />
    <glyph glyph-name="onethird" unicode="&#x2153;" horiz-adv-x="1888" 
d="M563 0h-192l880 1434h193zM1475 629q-147 0 -154 -121h-158q6 124 88 195t230 71q129 0 213 -58t84 -167q0 -57 -27 -97t-68 -53q54 -16 85.5 -60t31.5 -116q0 -109 -88 -174t-225 -65q-315 0 -334 266h160q9 -121 166 -121q153 0 153 107q0 92 -123 92h-82v127h82
q105 0 105 77q0 97 -139 97zM391 676v586l-201 -64l-45 141l275 97h135v-760h-164z" />
    <glyph glyph-name="twothirds" unicode="&#x2154;" horiz-adv-x="1888" 
d="M399 1300q-142 0 -151 -135h-160q6 128 85 206.5t233 78.5q139 0 217.5 -69t78.5 -177q0 -83 -44.5 -145.5t-131.5 -126.5l-143 -109h338v-147h-621v117l299 221q76 58 107 96t31 86t-37 76t-101 28zM645 0h-192l880 1434h193zM1475 629q-147 0 -154 -121h-158
q6 124 88 195t230 71q129 0 213 -58t84 -167q0 -57 -27 -97t-68 -53q54 -16 85.5 -60t31.5 -116q0 -109 -88 -174t-225 -65q-315 0 -334 266h160q9 -121 166 -121q153 0 153 107q0 92 -123 92h-82v127h82q105 0 105 77q0 97 -139 97z" />
    <glyph glyph-name="onefifth" unicode="&#x2155;" horiz-adv-x="1888" 
d="M553 0h-193l881 1434h193zM1489 129q70 0 108.5 31t38.5 86q0 57 -37.5 90t-117.5 33q-89 0 -142 -39l-143 30l25 398h534v-148h-395l-10 -153q65 35 163 35q140 0 215.5 -68t75.5 -178q0 -126 -86.5 -194t-228.5 -68q-149 0 -228 66.5t-85 185.5h155q9 -107 158 -107z
M391 676v586l-201 -64l-45 141l275 97h135v-760h-164z" />
    <glyph glyph-name="twofifths" unicode="&#x2156;" horiz-adv-x="1888" 
d="M399 1300q-142 0 -151 -135h-160q6 128 85 206.5t233 78.5q139 0 217.5 -69t78.5 -177q0 -83 -44.5 -145.5t-131.5 -126.5l-143 -109h338v-147h-621v117l299 221q76 58 107 96t31 86t-37 76t-101 28zM635 0h-193l881 1434h193zM1489 129q70 0 108.5 31t38.5 86
q0 57 -37.5 90t-117.5 33q-89 0 -142 -39l-143 30l25 398h534v-148h-395l-10 -153q65 35 163 35q140 0 215.5 -68t75.5 -178q0 -126 -86.5 -194t-228.5 -68q-149 0 -228 66.5t-85 185.5h155q9 -107 158 -107z" />
    <glyph glyph-name="threefifths" unicode="&#x2157;" horiz-adv-x="1888" 
d="M395 1305q-146 0 -153 -121h-158q6 124 87.5 195t229.5 71q129 0 213 -58t84 -167q0 -57 -27 -97t-67 -53q54 -16 85.5 -60t31.5 -116q0 -109 -88 -174.5t-225 -65.5q-159 0 -242 69t-92 198h159q9 -121 166 -121q154 0 154 106q0 93 -123 93h-82v126h82q53 0 79 21
t26 57q0 97 -140 97zM580 0h-193l881 1434h192zM1489 129q70 0 108.5 31t38.5 86q0 57 -37.5 90t-117.5 33q-89 0 -142 -39l-143 30l25 398h534v-148h-395l-10 -153q65 35 163 35q140 0 215.5 -68t75.5 -178q0 -126 -86.5 -194t-228.5 -68q-149 0 -228 66.5t-85 185.5h155
q9 -107 158 -107z" />
    <glyph glyph-name="fourfifths" unicode="&#x2158;" horiz-adv-x="1888" 
d="M643 1436v-461h121v-144h-121v-155h-164v155h-418v123l441 482h141zM246 975h235v254zM598 0h-192l880 1434h193zM1489 129q70 0 108.5 31t38.5 86q0 57 -37.5 90t-117.5 33q-89 0 -142 -39l-143 30l25 398h534v-148h-395l-10 -153q65 35 163 35q140 0 215.5 -68
t75.5 -178q0 -126 -86.5 -194t-228.5 -68q-149 0 -228 66.5t-85 185.5h155q9 -107 158 -107z" />
    <glyph glyph-name="onesixth" unicode="&#x2159;" horiz-adv-x="1888" 
d="M586 0h-193l881 1434h192zM1540 506q125 0 206 -72t81 -182q0 -118 -89 -193t-227 -75q-152 0 -247 91.5t-95 266.5q0 209 90.5 320.5t262.5 111.5q124 0 197 -60t89 -155h-155q-7 36 -42 57t-87 21q-173 0 -187 -205q65 74 203 74zM1507 123q72 0 115 34.5t43 94.5
q0 59 -42.5 93t-115.5 34t-116 -34t-43 -93q0 -60 43.5 -94.5t115.5 -34.5zM391 676v586l-201 -64l-45 141l275 97h135v-760h-164z" />
    <glyph glyph-name="fivesixths" unicode="&#x215a;" horiz-adv-x="1888" 
d="M616 0h-192l881 1434h192zM410 805q70 0 108.5 31t38.5 86q0 57 -38 89.5t-118 32.5q-90 0 -141 -38l-143 30l24 398h535v-148h-395l-11 -153q63 34 164 34q140 0 215.5 -67.5t75.5 -177.5q0 -126 -86.5 -194.5t-228.5 -68.5q-149 0 -228.5 66.5t-85.5 185.5h156
q9 -106 158 -106zM1540 506q125 0 206 -72t81 -182q0 -118 -89 -193t-227 -75q-152 0 -247 91.5t-95 266.5q0 209 90.5 320.5t262.5 111.5q124 0 197 -60t89 -155h-155q-7 36 -42 57t-87 21q-173 0 -187 -205q65 74 203 74zM1507 123q72 0 115 34.5t43 94.5q0 59 -42.5 93
t-115.5 34t-116 -34t-43 -93q0 -60 43.5 -94.5t115.5 -34.5z" />
    <glyph glyph-name="oneeighth" unicode="&#x215b;" horiz-adv-x="1888" 
d="M578 0h-193l881 1434h192zM1483 774q146 0 228.5 -59.5t82.5 -157.5q0 -58 -32 -101.5t-85 -62.5q58 -19 99 -66.5t41 -113.5q0 -107 -90.5 -168t-243.5 -61t-243.5 61t-90.5 168q0 66 41 113.5t100 66.5q-54 19 -85 62t-31 102q0 98 82 157.5t227 59.5zM1483 125
q168 0 168 98q0 47 -44 73t-124 26t-124 -26t-44 -73q0 -49 45 -73.5t123 -24.5zM1483 446q69 0 108 26t39 69q0 92 -147 92q-146 0 -146 -92q0 -43 39 -69t107 -26zM391 676v586l-201 -64l-45 141l275 97h135v-760h-164z" />
    <glyph glyph-name="threeeighths" unicode="&#x215c;" horiz-adv-x="1888" 
d="M395 1305q-146 0 -153 -121h-158q6 124 87.5 195t229.5 71q129 0 213 -58t84 -167q0 -57 -27 -97t-67 -53q54 -16 85.5 -60t31.5 -116q0 -109 -88 -174.5t-225 -65.5q-159 0 -242 69t-92 198h159q9 -121 166 -121q154 0 154 106q0 93 -123 93h-82v126h82q53 0 79 21
t26 57q0 97 -140 97zM600 0h-192l880 1434h193zM1483 774q146 0 228.5 -59.5t82.5 -157.5q0 -58 -32 -101.5t-85 -62.5q58 -19 99 -66.5t41 -113.5q0 -107 -90.5 -168t-243.5 -61t-243.5 61t-90.5 168q0 66 41 113.5t100 66.5q-54 19 -85 62t-31 102q0 98 82 157.5t227 59.5
zM1483 125q168 0 168 98q0 47 -44 73t-124 26t-124 -26t-44 -73q0 -49 45 -73.5t123 -24.5zM1483 446q69 0 108 26t39 69q0 92 -147 92q-146 0 -146 -92q0 -43 39 -69t107 -26z" />
    <glyph glyph-name="fiveeighths" unicode="&#x215d;" horiz-adv-x="1888" 
d="M410 805q70 0 108.5 31t38.5 86q0 57 -38 89.5t-118 32.5q-90 0 -141 -38l-143 30l24 398h535v-148h-395l-11 -153q63 34 164 34q140 0 215.5 -67.5t75.5 -177.5q0 -126 -86.5 -194.5t-228.5 -68.5q-149 0 -228.5 66.5t-85.5 185.5h156q9 -106 158 -106zM600 0h-192
l880 1434h193zM1483 774q146 0 228.5 -59.5t82.5 -157.5q0 -58 -32 -101.5t-85 -62.5q58 -19 99 -66.5t41 -113.5q0 -107 -90.5 -168t-243.5 -61t-243.5 61t-90.5 168q0 66 41 113.5t100 66.5q-54 19 -85 62t-31 102q0 98 82 157.5t227 59.5zM1483 125q168 0 168 98
q0 47 -44 73t-124 26t-124 -26t-44 -73q0 -49 45 -73.5t123 -24.5zM1483 446q69 0 108 26t39 69q0 92 -147 92q-146 0 -146 -92q0 -43 39 -69t107 -26z" />
    <glyph glyph-name="seveneighths" unicode="&#x215e;" horiz-adv-x="1888" 
d="M707 1305l-347 -629h-192l336 610h-406v148h609v-129zM524 0h-192l880 1434h193zM1483 774q146 0 228.5 -59.5t82.5 -157.5q0 -58 -32 -101.5t-85 -62.5q58 -19 99 -66.5t41 -113.5q0 -107 -90.5 -168t-243.5 -61t-243.5 61t-90.5 168q0 66 41 113.5t100 66.5
q-54 19 -85 62t-31 102q0 98 82 157.5t227 59.5zM1483 125q168 0 168 98q0 47 -44 73t-124 26t-124 -26t-44 -73q0 -49 45 -73.5t123 -24.5zM1483 446q69 0 108 26t39 69q0 92 -147 92q-146 0 -146 -92q0 -43 39 -69t107 -26z" />
    <glyph glyph-name="arrowleft" unicode="&#x2190;" horiz-adv-x="1382" 
d="M72 496l475 477l69 -37l-120 -352l804 6v-187l-806 5l122 -353l-69 -35z" />
    <glyph glyph-name="arrowup" unicode="&#x2191;" horiz-adv-x="1447" 
d="M723 1167l477 -475l-35 -69l-354 122l6 -747h-186l6 747l-354 -122l-35 69z" />
    <glyph glyph-name="arrowright" unicode="&#x2192;" horiz-adv-x="1382" 
d="M836 973l475 -477l-475 -476l-70 35l121 353l-805 -5v187l805 -6l-121 352z" />
    <glyph glyph-name="arrowdown" unicode="&#x2193;" horiz-adv-x="1447" 
d="M725 -164l-477 475l35 70l352 -123l-4 748h186l-6 -750l354 125l35 -70z" />
    <glyph glyph-name="arrowboth" unicode="&#x2194;" horiz-adv-x="1748" 
d="M72 481l475 475l69 -34l-120 -353h757l-120 353l69 34l477 -475l-477 -477l-69 37l120 352h-757l120 -352l-69 -37z" />
    <glyph glyph-name="arrowupdn" unicode="&#x2195;" horiz-adv-x="1447" 
d="M723 -276l-475 477l35 69l352 -123l-2 682l-350 -120l-35 69l475 477l477 -477l-35 -69l-352 120v-682l352 123l35 -69z" />
    <glyph glyph-name="arrowupleft" unicode="&#x2196;" horiz-adv-x="1382" 
d="M242 938h673l25 -76l-336 -162l576 -567l-133 -131l-568 573l-162 -333l-75 22v674z" />
    <glyph glyph-name="arrowupright" unicode="&#x2197;" horiz-adv-x="1382" 
d="M467 938h674v-674l-76 -22l-164 333l-565 -573l-133 131l575 567l-336 162z" />
    <glyph glyph-name="arrowdownright" unicode="&#x2198;" horiz-adv-x="1382" 
d="M1141 8h-674l-25 76l336 162l-575 567l133 131l565 -575l164 336l76 -23v-674z" />
    <glyph glyph-name="arrowdownleft" unicode="&#x2199;" horiz-adv-x="1382" 
d="M915 8h-673v674l75 23l162 -336l568 575l133 -131l-576 -567l336 -162z" />
    <glyph glyph-name="partialdiff" unicode="&#x2202;" horiz-adv-x="1282" 
d="M604 944q125 0 220 -47.5t145 -132.5v29q0 99 -15.5 182t-49 153t-93.5 110t-141 40q-77 0 -138 -39t-83 -104h-203q33 134 148.5 227.5t283.5 93.5q107 0 192 -36t141.5 -97.5t94 -147.5t54 -183t16.5 -208q0 -96 -13 -188t-40 -184.5t-74 -169.5t-111 -137.5
t-155.5 -94t-202.5 -33.5q-213 0 -350.5 128.5t-137.5 330.5q0 133 66 249.5t184.5 187.5t261.5 71zM590 160q83 0 160 40.5t127.5 118.5t50.5 173q0 123 -83.5 202.5t-211.5 79.5q-136 0 -235 -95.5t-99 -234.5q2 -125 83 -204.5t208 -79.5z" />
    <glyph glyph-name="Delta" unicode="&#x2206;" horiz-adv-x="1445" 
d="M1124 186l-401 942l-401 -942h802zM1370 0h-1294v90l598 1366h98l598 -1366v-90z" />
    <glyph glyph-name="product" unicode="&#x220f;" horiz-adv-x="1542" 
d="M72 1237v197h1398v-197h-249v-1237h-217v1237h-467v-1237h-215v1237h-250z" />
    <glyph glyph-name="summation" unicode="&#x2211;" horiz-adv-x="1370" 
d="M664 723l-517 563v148h1096v-195h-788l411 -451v-129l-428 -464h819v-195h-1126v147z" />
    <glyph glyph-name="minus" unicode="&#x2212;" horiz-adv-x="1255" 
d="M1049 590v-170h-840v170h840z" />
    <glyph glyph-name="radical" unicode="&#x221a;" horiz-adv-x="1327" 
d="M111 549v168h321l227 -608l420 1476h203l-512 -1753h-192l-287 717h-180z" />
    <glyph glyph-name="infinity" unicode="&#x221e;" horiz-adv-x="1619" 
d="M1528 672q0 -140 -94.5 -231t-243.5 -91q-111 0 -193.5 48t-191.5 167q-107 -119 -186.5 -167t-188.5 -48q-151 0 -244.5 92t-93.5 232t94 230.5t244 90.5q110 0 191 -49t190 -170q108 120 188.5 169.5t190.5 49.5q152 0 245 -91.5t93 -231.5zM1356 676q0 83 -46.5 128.5
t-133.5 45.5q-71 0 -127.5 -36.5t-145.5 -137.5q95 -103 148.5 -138.5t124.5 -35.5q87 0 133.5 45.5t46.5 128.5zM442 496q72 0 129 35.5t146 136.5q-94 103 -149 139.5t-126 36.5q-85 0 -131.5 -46.5t-46.5 -127.5q0 -82 46 -128t132 -46z" />
    <glyph glyph-name="integral" unicode="&#x222b;" horiz-adv-x="851" 
d="M365 170q0 138 -37 416t-37 426q0 272 81.5 401t227.5 129q73 0 139 -16v-170q-66 8 -88 8q-164 0 -164 -369q0 -139 37 -417t37 -426q0 -271 -81.5 -400t-227.5 -129q-69 0 -139 17v170q74 -9 88 -9q164 0 164 369z" />
    <glyph glyph-name="approxequal" unicode="&#x2248;" horiz-adv-x="1255" 
d="M924 449l139 -19q-40 -254 -242 -254q-59 0 -126.5 28t-130 55.5t-107.5 27.5q-55 0 -83.5 -27.5t-41.5 -79.5l-139 19q18 118 77 186t164 68q60 0 128 -27.5t130 -55.5t107 -28q56 0 85 27.5t40 79.5zM924 838l139 -17q-39 -256 -242 -256q-59 0 -126.5 28.5t-130 56.5
t-107.5 28q-55 0 -83.5 -28t-41.5 -79l-139 17q39 256 241 256q47 0 101 -17.5t93.5 -39t87 -39t83.5 -17.5q56 0 84.5 28t40.5 79z" />
    <glyph glyph-name="notequal" unicode="&#x2260;" horiz-adv-x="1255" 
d="M1012 989l-121 -201h180v-170h-283l-135 -227h418v-170h-520l-160 -266l-147 78l112 188h-172v170h273l137 227h-410v170h512l168 281z" />
    <glyph glyph-name="lessequal" unicode="&#x2264;" horiz-adv-x="1255" 
d="M211 563v170l823 350v-206l-596 -230l596 -229v-207zM1034 160v-160h-823v160h823z" />
    <glyph glyph-name="greaterequal" unicode="&#x2265;" horiz-adv-x="1255" 
d="M1044 733v-170l-823 -352v207l596 229l-596 230v206zM221 0v160h823v-160h-823z" />
    <glyph glyph-name="triagup" unicode="&#x25b2;" horiz-adv-x="1136" 
d="M950 203h-764l383 651z" />
    <glyph glyph-name="triagrt" unicode="&#x25ba;" horiz-adv-x="1136" 
d="M276 150v747l685 -373z" />
    <glyph glyph-name="triagdn" unicode="&#x25bc;" horiz-adv-x="1136" 
d="M186 848h764l-381 -649z" />
    <glyph glyph-name="triaglf" unicode="&#x25c4;" horiz-adv-x="1136" 
d="M860 897v-747l-684 372z" />
    <glyph glyph-name="lozenge" unicode="&#x25ca;" horiz-adv-x="1308" 
d="M1176 717l-471 -740h-101l-471 740l471 739h101zM969 717l-314 502l-315 -502l315 -502z" />
    <glyph glyph-name="uni25E2" unicode="&#x25e2;" horiz-adv-x="1136" 
d="M870 193h-704l704 704v-704z" />
    <glyph glyph-name="uni25E3" unicode="&#x25e3;" horiz-adv-x="1136" 
d="M971 193h-705v704z" />
    <glyph glyph-name="uni25E4" unicode="&#x25e4;" horiz-adv-x="1136" 
d="M266 893h705l-705 -705v705z" />
    <glyph glyph-name="uni25E5" unicode="&#x25e5;" horiz-adv-x="1136" 
d="M166 893h704v-705z" />
    <glyph glyph-name="uniE000" unicode="&#xe000;" horiz-adv-x="0" 
 />
    <glyph glyph-name="a.alt" unicode="&#xe001;" horiz-adv-x="1056" 
d="M522 754q-89 0 -139 -31t-61 -80h-191q11 119 114.5 198t282.5 79q199 0 299.5 -96.5t100.5 -248.5v-575h-195v117q-47 -60 -131.5 -96.5t-195.5 -36.5q-63 0 -118.5 15t-103 45.5t-75 84t-27.5 123.5q0 125 89 193.5t255 68.5h307v29q0 211 -211 211zM449 141
q132 0 208 53.5t76 155.5v21h-270q-100 0 -144.5 -28.5t-44.5 -86.5q0 -115 175 -115z" />
    <glyph glyph-name="g.alt" unicode="&#xe002;" horiz-adv-x="1062" 
d="M522 922q68 0 142 -23l368 2v-160h-158q54 -87 54 -174q0 -152 -113.5 -254t-292.5 -102q-102 0 -188 39q-53 -22 -53 -80q0 -86 133 -86h264q152 0 231.5 -63.5t79.5 -182.5q0 -147 -123 -230t-340 -83q-213 0 -329.5 72t-116.5 200q0 65 32.5 116t88.5 73
q-46 21 -74.5 62.5t-28.5 96.5q0 65 35 112.5t86 72.5q-102 102 -102 237q0 150 113 252.5t292 102.5zM522 371q98 0 158.5 54t60.5 142t-60.5 142.5t-158.5 54.5t-158.5 -54.5t-60.5 -142.5t60.5 -142t158.5 -54zM635 -66h-236q-70 0 -103.5 -30.5t-33.5 -83.5
q0 -142 273 -142q128 0 200 36.5t72 109.5q0 59 -42.5 84.5t-129.5 25.5z" />
    <glyph glyph-name="aacute.alt" unicode="&#xe003;" horiz-adv-x="1056" 
d="M522 754q-89 0 -139 -31t-61 -80h-191q11 119 114.5 198t282.5 79q199 0 299.5 -96.5t100.5 -248.5v-575h-195v117q-47 -60 -131.5 -96.5t-195.5 -36.5q-63 0 -118.5 15t-103 45.5t-75 84t-27.5 123.5q0 125 89 193.5t255 68.5h307v29q0 211 -211 211zM449 141
q132 0 208 53.5t76 155.5v21h-270q-100 0 -144.5 -28.5t-44.5 -86.5q0 -115 175 -115zM719 1440l139 -144l-326 -256l-90 90z" />
    <glyph glyph-name="agrave.alt" unicode="&#xe004;" horiz-adv-x="1056" 
d="M522 754q-89 0 -139 -31t-61 -80h-191q11 119 114.5 198t282.5 79q199 0 299.5 -96.5t100.5 -248.5v-575h-195v117q-47 -60 -131.5 -96.5t-195.5 -36.5q-63 0 -118.5 15t-103 45.5t-75 84t-27.5 123.5q0 125 89 193.5t255 68.5h307v29q0 211 -211 211zM449 141
q132 0 208 53.5t76 155.5v21h-270q-100 0 -144.5 -28.5t-44.5 -86.5q0 -115 175 -115zM205 1296l139 144l277 -310l-91 -90z" />
    <glyph glyph-name="acircumflex.alt" unicode="&#xe005;" horiz-adv-x="1056" 
d="M522 754q-89 0 -139 -31t-61 -80h-191q11 119 114.5 198t282.5 79q199 0 299.5 -96.5t100.5 -248.5v-575h-195v117q-47 -60 -131.5 -96.5t-195.5 -36.5q-63 0 -118.5 15t-103 45.5t-75 84t-27.5 123.5q0 125 89 193.5t255 68.5h307v29q0 211 -211 211zM426 1362h209
l246 -305h-191l-160 166l-159 -166h-191zM449 141q132 0 208 53.5t76 155.5v21h-270q-100 0 -144.5 -28.5t-44.5 -86.5q0 -115 175 -115z" />
    <glyph glyph-name="adieresis.alt" unicode="&#xe006;" horiz-adv-x="1056" 
d="M522 754q-89 0 -139 -31t-61 -80h-191q11 119 114.5 198t282.5 79q199 0 299.5 -96.5t100.5 -248.5v-575h-195v117q-47 -60 -131.5 -96.5t-195.5 -36.5q-63 0 -118.5 15t-103 45.5t-75 84t-27.5 123.5q0 125 89 193.5t255 68.5h307v29q0 211 -211 211zM449 141
q132 0 208 53.5t76 155.5v21h-270q-100 0 -144.5 -28.5t-44.5 -86.5q0 -115 175 -115zM201 1184q0 54 34 88.5t89 34.5t90 -34.5t35 -88.5q0 -56 -34.5 -90.5t-90.5 -34.5q-55 0 -89 34.5t-34 90.5zM612 1184q0 54 35 88.5t90 34.5t89 -34.5t34 -88.5q0 -56 -34 -90.5
t-89 -34.5t-90 34.5t-35 90.5z" />
    <glyph glyph-name="atilde.alt" unicode="&#xe007;" horiz-adv-x="1056" 
d="M522 754q-89 0 -139 -31t-61 -80h-191q11 119 114.5 198t282.5 79q199 0 299.5 -96.5t100.5 -248.5v-575h-195v117q-47 -60 -131.5 -96.5t-195.5 -36.5q-63 0 -118.5 15t-103 45.5t-75 84t-27.5 123.5q0 125 89 193.5t255 68.5h307v29q0 211 -211 211zM870 1268
q-46 -219 -202 -219q-50 0 -137.5 40.5t-124.5 40.5q-65 0 -89 -75l-127 20q21 97 70.5 157t132.5 60q50 0 137.5 -41t124.5 -41q35 0 55.5 18.5t32.5 57.5zM449 141q132 0 208 53.5t76 155.5v21h-270q-100 0 -144.5 -28.5t-44.5 -86.5q0 -115 175 -115z" />
    <glyph glyph-name="aring.alt" unicode="&#xe008;" horiz-adv-x="1056" 
d="M522 754q-89 0 -139 -31t-61 -80h-191q11 119 114.5 198t282.5 79q199 0 299.5 -96.5t100.5 -248.5v-575h-195v117q-47 -60 -131.5 -96.5t-195.5 -36.5q-63 0 -118.5 15t-103 45.5t-75 84t-27.5 123.5q0 125 89 193.5t255 68.5h307v29q0 211 -211 211zM530 1032
q-95 0 -159 62.5t-64 154.5t64 154.5t159 62.5q96 0 160 -62t64 -155t-64 -155t-160 -62zM449 141q132 0 208 53.5t76 155.5v21h-270q-100 0 -144.5 -28.5t-44.5 -86.5q0 -115 175 -115zM530 1141q47 0 78 30.5t31 77.5t-31 78t-78 31t-77.5 -31t-30.5 -78t30.5 -77.5
t77.5 -30.5z" />
    <glyph glyph-name="amacron.alt" unicode="&#xe009;" horiz-adv-x="1056" 
d="M522 754q-89 0 -139 -31t-61 -80h-191q11 119 114.5 198t282.5 79q199 0 299.5 -96.5t100.5 -248.5v-575h-195v117q-47 -60 -131.5 -96.5t-195.5 -36.5q-63 0 -118.5 15t-103 45.5t-75 84t-27.5 123.5q0 125 89 193.5t255 68.5h307v29q0 211 -211 211zM856 1243v-160
h-651v160h651zM449 141q132 0 208 53.5t76 155.5v21h-270q-100 0 -144.5 -28.5t-44.5 -86.5q0 -115 175 -115z" />
    <glyph glyph-name="abreve.alt" unicode="&#xe00a;" horiz-adv-x="1056" 
d="M522 754q-89 0 -139 -31t-61 -80h-191q11 119 114.5 198t282.5 79q199 0 299.5 -96.5t100.5 -248.5v-575h-195v117q-47 -60 -131.5 -96.5t-195.5 -36.5q-63 0 -118.5 15t-103 45.5t-75 84t-27.5 123.5q0 125 89 193.5t255 68.5h307v29q0 211 -211 211zM530 1051
q-83 0 -148.5 26.5t-105 71t-61.5 94.5t-29 105h168q8 -61 55 -101.5t121 -40.5t121.5 40.5t55.5 101.5h167q-7 -55 -29 -105t-61.5 -94.5t-105 -71t-148.5 -26.5zM449 141q132 0 208 53.5t76 155.5v21h-270q-100 0 -144.5 -28.5t-44.5 -86.5q0 -115 175 -115z" />
    <glyph glyph-name="aogonek.alt" unicode="&#xe00b;" horiz-adv-x="1056" 
d="M926 -213l51 -109q-34 -29 -92 -50t-119 -21q-92 0 -152.5 43.5t-60.5 120.5q0 134 180 235v111q-47 -60 -131.5 -96.5t-195.5 -36.5q-63 0 -118.5 15t-103 45.5t-75 84t-27.5 123.5q0 125 89 193.5t255 68.5h307v29q0 211 -211 211q-89 0 -139 -31t-61 -80h-191
q11 119 114.5 198t282.5 79q199 0 299.5 -96.5t100.5 -248.5v-575h-13q-92 -43 -138 -87t-46 -95q0 -29 22.5 -45.5t59.5 -16.5q56 0 113 31zM449 141q132 0 208 53.5t76 155.5v21h-270q-100 0 -144.5 -28.5t-44.5 -86.5q0 -115 175 -115z" />
    <glyph glyph-name="aringacute.alt" unicode="&#xe00c;" horiz-adv-x="1056" 
d="M522 754q-89 0 -139 -31t-61 -80h-191q11 119 114.5 198t282.5 79q199 0 299.5 -96.5t100.5 -248.5v-575h-195v117q-47 -60 -131.5 -96.5t-195.5 -36.5q-63 0 -118.5 15t-103 45.5t-75 84t-27.5 123.5q0 125 89 193.5t255 68.5h307v29q0 211 -211 211zM530 1026
q-95 0 -159 62.5t-64 154.5t64 154.5t159 62.5q96 0 160 -62t64 -155t-64 -155t-160 -62zM449 141q132 0 208 53.5t76 155.5v21h-270q-100 0 -144.5 -28.5t-44.5 -86.5q0 -115 175 -115zM719 1931l139 -143l-326 -256l-90 90zM530 1135q47 0 78 30.5t31 77.5t-31 78t-78 31
t-77.5 -31t-30.5 -78t30.5 -77.5t77.5 -30.5z" />
    <glyph glyph-name="gcircumflex.alt" unicode="&#xe00d;" horiz-adv-x="1062" 
d="M522 922q68 0 142 -23l368 2v-160h-158q54 -87 54 -174q0 -152 -113.5 -254t-292.5 -102q-102 0 -188 39q-53 -22 -53 -80q0 -86 133 -86h264q152 0 231.5 -63.5t79.5 -182.5q0 -147 -123 -230t-340 -83q-213 0 -329.5 72t-116.5 200q0 65 32.5 116t88.5 73
q-46 21 -74.5 62.5t-28.5 96.5q0 65 35 112.5t86 72.5q-102 102 -102 237q0 150 113 252.5t292 102.5zM522 371q98 0 158.5 54t60.5 142t-60.5 142.5t-158.5 54.5t-158.5 -54.5t-60.5 -142.5t60.5 -142t158.5 -54zM635 -66h-236q-70 0 -103.5 -30.5t-33.5 -83.5
q0 -142 273 -142q128 0 200 36.5t72 109.5q0 59 -42.5 84.5t-129.5 25.5zM426 1362h209l246 -305h-191l-160 166l-159 -166h-191z" />
    <glyph glyph-name="gbreve.alt" unicode="&#xe00e;" horiz-adv-x="1062" 
d="M522 922q68 0 142 -23l368 2v-160h-158q54 -87 54 -174q0 -152 -113.5 -254t-292.5 -102q-102 0 -188 39q-53 -22 -53 -80q0 -86 133 -86h264q152 0 231.5 -63.5t79.5 -182.5q0 -147 -123 -230t-340 -83q-213 0 -329.5 72t-116.5 200q0 65 32.5 116t88.5 73
q-46 21 -74.5 62.5t-28.5 96.5q0 65 35 112.5t86 72.5q-102 102 -102 237q0 150 113 252.5t292 102.5zM522 371q98 0 158.5 54t60.5 142t-60.5 142.5t-158.5 54.5t-158.5 -54.5t-60.5 -142.5t60.5 -142t158.5 -54zM530 1051q-83 0 -148.5 26.5t-105 71t-61.5 94.5t-29 105
h168q8 -61 55 -101.5t121 -40.5t121.5 40.5t55.5 101.5h167q-7 -55 -29 -105t-61.5 -94.5t-105 -71t-148.5 -26.5zM635 -66h-236q-70 0 -103.5 -30.5t-33.5 -83.5q0 -142 273 -142q128 0 200 36.5t72 109.5q0 59 -42.5 84.5t-129.5 25.5z" />
    <glyph glyph-name="gdotaccent.alt" unicode="&#xe00f;" horiz-adv-x="1062" 
d="M522 922q68 0 142 -23l368 2v-160h-158q54 -87 54 -174q0 -152 -113.5 -254t-292.5 -102q-102 0 -188 39q-53 -22 -53 -80q0 -86 133 -86h264q152 0 231.5 -63.5t79.5 -182.5q0 -147 -123 -230t-340 -83q-213 0 -329.5 72t-116.5 200q0 65 32.5 116t88.5 73
q-46 21 -74.5 62.5t-28.5 96.5q0 65 35 112.5t86 72.5q-102 102 -102 237q0 150 113 252.5t292 102.5zM522 371q98 0 158.5 54t60.5 142t-60.5 142.5t-158.5 54.5t-158.5 -54.5t-60.5 -142.5t60.5 -142t158.5 -54zM635 -66h-236q-70 0 -103.5 -30.5t-33.5 -83.5
q0 -142 273 -142q128 0 200 36.5t72 109.5q0 59 -42.5 84.5t-129.5 25.5zM406 1192q0 56 34.5 90.5t89.5 34.5q56 0 90.5 -34.5t34.5 -90.5q0 -54 -35 -89.5t-90 -35.5t-89.5 35.5t-34.5 89.5z" />
    <glyph glyph-name="gcommaaccent.alt" unicode="&#xe010;" horiz-adv-x="1062" 
d="M522 922q68 0 142 -23l368 2v-160h-158q54 -87 54 -174q0 -152 -113.5 -254t-292.5 -102q-102 0 -188 39q-53 -22 -53 -80q0 -86 133 -86h264q152 0 231.5 -63.5t79.5 -182.5q0 -147 -123 -230t-340 -83q-213 0 -329.5 72t-116.5 200q0 65 32.5 116t88.5 73
q-46 21 -74.5 62.5t-28.5 96.5q0 65 35 112.5t86 72.5q-102 102 -102 237q0 150 113 252.5t292 102.5zM522 371q98 0 158.5 54t60.5 142t-60.5 142.5t-158.5 54.5t-158.5 -54.5t-60.5 -142.5t60.5 -142t158.5 -54zM635 -66h-236q-70 0 -103.5 -30.5t-33.5 -83.5
q0 -142 273 -142q128 0 200 36.5t72 109.5q0 59 -42.5 84.5t-129.5 25.5zM426 1059l86 360h162l-45 -360h-203z" />
    <glyph glyph-name="grave.cap" unicode="&#xe011;" 
d="M229 1769l140 148l262 -285l-90 -92z" />
    <glyph glyph-name="acute.cap" unicode="&#xe012;" 
d="M655 1917l140 -148l-312 -229l-90 92z" />
    <glyph glyph-name="dieresis.cap" unicode="&#xe013;" 
d="M164 1667q0 54 35 89.5t90 35.5q57 0 92 -35t35 -90q0 -56 -35 -91.5t-92 -35.5q-55 0 -90 35.5t-35 91.5zM608 1667q0 55 35 90t92 35q55 0 90 -35.5t35 -89.5q0 -56 -35 -91.5t-90 -35.5q-57 0 -92 35.5t-35 91.5z" />
    <glyph glyph-name="circumflex.cap" unicode="&#xe014;" 
d="M408 1847h208l252 -299h-192l-164 156l-164 -156h-192z" />
    <glyph glyph-name="tilde.cap" unicode="&#xe015;" 
d="M731 1778l129 -23q-21 -97 -71.5 -156t-135.5 -59q-55 0 -143.5 40t-126.5 40q-65 0 -90 -76l-129 21q21 98 71.5 157.5t135.5 59.5q55 0 143.5 -40t126.5 -40q66 0 90 76z" />
    <glyph glyph-name="macron.cap" unicode="&#xe016;" 
d="M848 1708v-160h-672v160h672z" />
    <glyph glyph-name="breve.cap" unicode="&#xe017;" 
d="M512 1540q-83 0 -149 26t-106.5 69.5t-63.5 92.5t-31 103h170q8 -59 56 -96t124 -37q77 0 124.5 37t55.5 96h170q-8 -54 -31 -103t-63.5 -92.5t-106.5 -69.5t-149 -26z" />
    <glyph glyph-name="dotaccent.cap" unicode="&#xe018;" 
d="M383 1669q0 57 36 94t93 37t93 -37t36 -94q0 -56 -36 -92.5t-93 -36.5t-93 36.5t-36 92.5z" />
    <glyph glyph-name="ring.cap" unicode="&#xe019;" 
d="M512 1649q46 0 77.5 30.5t31.5 77.5t-31.5 78t-77.5 31t-76 -31t-30 -78t30 -77.5t76 -30.5zM512 1540q-96 0 -160.5 62.5t-64.5 154.5q0 94 64 156.5t161 62.5t161 -62.5t64 -156.5q0 -92 -64.5 -154.5t-160.5 -62.5z" />
    <glyph glyph-name="cedilla.cap" unicode="&#xe01a;" 
d="M547 -336h-209l129 340h180z" />
    <glyph glyph-name="hungarumlaut.cap" unicode="&#xe01b;" 
d="M492 1827l-216 -287l-114 64l157 325zM883 1827l-215 -287l-115 64l158 325z" />
    <glyph glyph-name="ogonek.cap" unicode="&#xe01c;" 
d="M674 -215l51 -109q-36 -31 -94.5 -52t-122.5 -21q-97 0 -158 43t-61 125q0 52 26 97.5t75 81.5t101 63t121 53l45 -66q-190 -81 -190 -180q0 -31 24 -47.5t64 -16.5q63 0 119 29z" />
    <glyph glyph-name="caron.cap" unicode="&#xe01d;" 
d="M616 1548h-208l-252 299h192l164 -155l164 155h192z" />
    <glyph glyph-name="commaaccent.cap" unicode="&#xe01e;" 
d="M641 -88l-90 -369h-168l45 369h213z" />
    <glyph glyph-name="bar.cap" unicode="&#xe01f;" 
d="M885 1239v-162h-746v162h746z" />
    <glyph glyph-name="dieresis.alt" unicode="&#xe020;" 
d="M197 1184q0 54 35 88.5t90 34.5t88.5 -34.5t33.5 -88.5q0 -56 -33.5 -90.5t-88.5 -34.5q-56 0 -90.5 34.5t-34.5 90.5zM580 1184q0 54 33.5 88.5t88.5 34.5t90 -34.5t35 -88.5q0 -56 -34.5 -90.5t-90.5 -34.5q-55 0 -88.5 34.5t-33.5 90.5z" />
    <glyph glyph-name="circumflex.alt" unicode="&#xe021;" 
d="M410 1362h204l220 -303h-187l-135 166l-135 -166h-187z" />
    <glyph glyph-name="tilde.alt" unicode="&#xe022;" 
d="M829 1268q-45 -215 -194 -215q-45 0 -123 36.5t-111 36.5q-30 0 -47.5 -16.5t-29.5 -54.5l-129 20q21 96 68.5 154.5t125.5 58.5q45 0 123.5 -37t110.5 -37q30 0 47.5 16.5t31.5 55.5z" />
    <glyph glyph-name="macron.alt" unicode="&#xe023;" 
d="M801 1249v-157h-578v157h578z" />
    <glyph glyph-name="breve.alt" unicode="&#xe024;" 
d="M512 1051q-76 0 -136.5 26.5t-97.5 71t-57.5 95t-25.5 104.5h167q5 -60 45 -101t105 -41t105 41t45 101h167q-5 -54 -25.5 -104.5t-57.5 -95t-97.5 -71t-136.5 -26.5z" />
    <glyph glyph-name="ogonek.alt" unicode="&#xe025;" 
d="M870 -303q-44 -38 -106.5 -62t-126.5 -24q-109 0 -177.5 55t-68.5 141q0 52 24 97t70.5 81t98.5 63t123 54l32 -61q-92 -46 -135 -89.5t-43 -98.5q0 -44 32.5 -68.5t82.5 -24.5q69 0 125 43z" />
    <glyph glyph-name="ogonek.alt01" unicode="&#xe026;" 
d="M717 -215l51 -102q-34 -31 -88.5 -53.5t-116.5 -22.5q-95 0 -154 46.5t-59 129.5q0 62 41 120.5t95.5 97.5t121.5 69l49 -70q-76 -37 -106.5 -76t-30.5 -90q0 -38 24.5 -58t63.5 -20q61 0 109 29z" />
    <glyph glyph-name="caron.alt" unicode="&#xe027;" 
d="M408 1010l14 424h207l-70 -424h-151z" />
    <glyph glyph-name="croat.alt" unicode="&#xe028;" 
d="M879 1227v-158h-734v158h734z" />
    <glyph glyph-name="bar.alt" unicode="&#xe029;" 
d="M879 1227v-158h-734v158h734z" />
    <glyph glyph-name="commaaccent.alt" unicode="&#xe02a;" 
d="M389 1059l86 360h162l-45 -360h-203z" />
    <glyph glyph-name="ogonek.calt" unicode="&#xe02b;" 
d="M678 -213l51 -106q-94 -78 -221 -78q-98 0 -159.5 48t-61.5 136q0 197 336 319l49 -67q-93 -37 -149 -92t-56 -111q0 -80 88 -80q59 0 123 31z" />
    <glyph glyph-name="ogonek.calt01" unicode="&#xe02c;" 
d="M676 -219l51 -109q-88 -69 -211 -69q-96 0 -157.5 44.5t-61.5 127.5q0 180 293 291l47 -66q-160 -69 -160 -176q0 -33 23 -50.5t63 -17.5q61 0 113 25z" />
    <glyph glyph-name="caron.calt" unicode="&#xe02d;" 
d="M406 1004l14 430h211l-72 -430h-153z" />
    <glyph glyph-name="quadspace" unicode="&#xe02e;" horiz-adv-x="116" 
 />
    <glyph glyph-name="halfspace" unicode="&#xe02f;" horiz-adv-x="235" 
 />
    <glyph glyph-name="zero.old" unicode="&#xe030;" horiz-adv-x="1284" 
d="M643 1014q144 0 264 -67.5t190 -186t70 -262.5q0 -145 -70 -264t-190 -186.5t-264 -67.5q-145 0 -265.5 67.5t-190.5 186.5t-70 264q0 144 70 262.5t190.5 186t265.5 67.5zM643 162q135 0 225 94t90 242q0 146 -90 239.5t-225 93.5t-226 -93.5t-91 -239.5
q0 -147 91 -241.5t226 -94.5z" />
    <glyph glyph-name="one.old" unicode="&#xe031;" horiz-adv-x="980" 
d="M129 176h293v617l-248 -74l-51 160l330 116h172v-819h280v-176h-776v176z" />
    <glyph glyph-name="two.old" unicode="&#xe032;" horiz-adv-x="1052" 
d="M522 836q-218 0 -231 -189h-197q10 165 115 266t315 101q199 0 304.5 -88.5t105.5 -227.5q0 -66 -17 -117t-57.5 -96.5t-81 -78t-114.5 -82.5l-218 -148h517v-176h-854v154l405 270q113 76 163 133t50 125q0 70 -51 112t-154 42z" />
    <glyph glyph-name="three.old" unicode="&#xe033;" horiz-adv-x="1247" 
d="M612 825q-135 0 -206.5 -65t-79.5 -168h-207q6 87 39 161.5t92 134.5t153 94t213 34q127 0 232.5 -44t171 -132.5t65.5 -206.5t-51 -196.5t-139 -108.5q110 -25 183 -116.5t73 -231.5q0 -102 -41.5 -186.5t-113.5 -141t-168.5 -87t-206.5 -30.5q-249 0 -387 120.5
t-152 319.5h207q11 -117 94.5 -183t237.5 -66q146 0 229.5 69.5t83.5 194.5q0 116 -77.5 173.5t-211.5 57.5h-145v176h127q241 0 241 219q0 100 -70 154.5t-186 54.5z" />
    <glyph glyph-name="four.old" unicode="&#xe034;" horiz-adv-x="1353" 
d="M1028 993v-815h275v-178h-275v-440h-213v440h-737v158l749 835h201zM319 178h496v551z" />
    <glyph glyph-name="five.old" unicode="&#xe035;" horiz-adv-x="1245" 
d="M141 303l35 690h866v-188h-671l-23 -379q43 30 128 50t171 20q230 0 367 -130.5t137 -334.5q0 -147 -71.5 -261t-191.5 -174.5t-267 -60.5q-252 0 -387 120.5t-148 319.5h207q11 -115 93 -184.5t230 -69.5q142 0 232 86.5t90 219.5q0 129 -84 213t-242 84
q-86 0 -163.5 -22t-122.5 -56z" />
    <glyph glyph-name="six.old" unicode="&#xe036;" horiz-adv-x="1290" 
d="M709 938q208 0 347.5 -134t139.5 -331q0 -220 -142.5 -358t-365.5 -138q-118 0 -217.5 39.5t-179 119.5t-125 217.5t-45.5 318.5q0 121 18 230.5t62 212t109.5 177t167 119.5t229.5 45q98 0 180.5 -30t138 -80.5t90.5 -112t45 -129.5h-207q-15 77 -81 124.5t-168 47.5
q-81 0 -144.5 -29.5t-103.5 -77t-67.5 -116.5t-39.5 -139t-16 -152q59 80 157.5 128t217.5 48zM678 164q139 0 222 85t83 222q0 128 -84.5 211.5t-220.5 83.5q-134 0 -228 -85t-94 -210q0 -131 93.5 -219t228.5 -88z" />
    <glyph glyph-name="seven.old" unicode="&#xe037;" horiz-adv-x="1155" 
d="M1063 840l-643 -1280h-238l633 1247h-729v186h977v-153z" />
    <glyph glyph-name="eight.old" unicode="&#xe038;" horiz-adv-x="1308" 
d="M653 1456q229 0 366.5 -111t137.5 -286q0 -107 -60.5 -195t-166.5 -127q126 -39 197 -130t71 -220q0 -189 -150 -299.5t-395 -110.5q-244 0 -393 110.5t-149 299.5q0 129 70.5 220t197.5 130q-106 39 -167.5 127t-61.5 195q0 176 137 286.5t366 110.5zM653 162
q154 0 244 61t90 172q0 110 -91 178t-243 68q-151 0 -241 -68t-90 -178q0 -111 89 -172t242 -61zM653 1276q-130 0 -212.5 -61.5t-82.5 -172.5q0 -100 79.5 -165.5t215.5 -65.5q137 0 217 65.5t80 165.5q0 111 -83 172.5t-214 61.5z" />
    <glyph glyph-name="nine.old" unicode="&#xe039;" horiz-adv-x="1288" 
d="M586 55q-209 0 -348.5 134t-139.5 331q0 220 142.5 358t365.5 138q118 0 218 -39.5t180 -120t126 -217t46 -317.5q0 -121 -18.5 -231t-62.5 -213t-109.5 -178t-167.5 -120t-230 -45q-98 0 -181 30.5t-138.5 81t-90.5 112t-45 128.5h207q15 -76 82 -123t170 -47
q79 0 142 29.5t103 77t67.5 115.5t40 137.5t16.5 150.5q-59 -79 -157.5 -125.5t-217.5 -46.5zM618 829q-140 0 -223.5 -84.5t-83.5 -222.5q0 -128 85 -212.5t222 -84.5q133 0 226.5 86t93.5 211q0 130 -93.5 218.5t-226.5 88.5z" />
    <glyph glyph-name="zero.tab" unicode="&#xe03a;" horiz-adv-x="1300" 
d="M1219 717q0 -340 -156.5 -540t-411.5 -200q-256 0 -412.5 199.5t-156.5 540.5t156.5 540t412.5 199q255 0 411.5 -199.5t156.5 -539.5zM999 717q0 257 -95 401t-253 144q-159 0 -254.5 -144t-95.5 -401t95.5 -401t254.5 -144q158 0 253 144t95 401z" />
    <glyph glyph-name="one.tab" unicode="&#xe03b;" horiz-adv-x="1300" 
d="M662 0v1229l-377 -115l-62 172l467 154h187v-1440h-215z" />
    <glyph glyph-name="two.tab" unicode="&#xe03c;" horiz-adv-x="1300" 
d="M643 1266q-290 0 -309 -275h-213q5 100 38 182t95 146.5t162.5 100.5t230.5 36q232 0 367 -121.5t135 -312.5q0 -67 -17.5 -127.5t-42.5 -107.5t-73 -100.5t-89 -92t-110 -96.5l-352 -305h711v-193h-1043v154l520 450q77 68 120 110.5t84 95t58 102t17 106.5
q0 112 -76.5 180t-212.5 68z" />
    <glyph glyph-name="three.tab" unicode="&#xe03d;" horiz-adv-x="1300" 
d="M645 1266q-147 0 -225 -66t-86 -184h-211q14 199 147 319.5t379 120.5q134 0 246 -43.5t183 -133.5t71 -210q0 -122 -55.5 -203t-145.5 -112q108 -23 176 -110.5t68 -227.5q0 -134 -72.5 -235t-193.5 -152.5t-273 -51.5q-259 0 -397 120t-152 321h209q22 -250 338 -250
q152 0 238 67t86 189q0 227 -283 227h-160v176h142q258 0 258 226q0 101 -81.5 157t-205.5 56z" />
    <glyph glyph-name="four.tab" unicode="&#xe03e;" horiz-adv-x="1300" 
d="M1044 1436v-906h230v-188h-230v-342h-213v342h-782v164l795 930h200zM299 530h532v623z" />
    <glyph glyph-name="five.tab" unicode="&#xe03f;" horiz-adv-x="1300" 
d="M655 168q139 0 228.5 81.5t89.5 207.5q0 122 -84 201t-240 79q-87 0 -166 -22t-125 -56l-184 58l33 717h885v-193h-691l-18 -397q43 30 128 49.5t173 19.5q229 0 367.5 -126t138.5 -326q0 -144 -72 -255.5t-192.5 -170t-268.5 -58.5q-250 0 -387.5 121.5t-150.5 315.5
h207q11 -108 96 -177t233 -69z" />
    <glyph glyph-name="six.tab" unicode="&#xe040;" horiz-adv-x="1300" 
d="M719 946q214 0 358 -136t144 -335q0 -220 -147.5 -359t-377.5 -139q-95 0 -178.5 24.5t-157 79t-126 134.5t-83 198t-30.5 263q0 122 18 231t61.5 211t109 176t167.5 118t230 44q98 0 183 -30t143.5 -80t95.5 -113t47 -131h-207q-15 76 -88.5 123t-178.5 47
q-79 0 -141 -28t-101.5 -74t-66.5 -112t-39 -134t-16 -148q59 79 157 124.5t224 45.5zM686 164q146 0 234 84.5t88 222.5q0 130 -89 213.5t-233 83.5q-139 0 -234.5 -84t-95.5 -211q0 -132 96 -220.5t234 -88.5z" />
    <glyph glyph-name="seven.tab" unicode="&#xe041;" horiz-adv-x="1300" 
d="M1155 1278l-643 -1278h-229l626 1241h-772v193h1018v-156z" />
    <glyph glyph-name="eight.tab" unicode="&#xe042;" horiz-adv-x="1300" 
d="M651 -23q-253 0 -408 111.5t-155 298.5q0 128 73 220.5t201 127.5q-108 35 -169.5 122.5t-61.5 199.5q0 176 142 287.5t378 111.5t379.5 -112t143.5 -287q0 -113 -62 -200t-172 -122q129 -36 203 -128t74 -220q0 -187 -156.5 -298.5t-409.5 -111.5zM651 637
q-159 0 -253.5 -66.5t-94.5 -173.5q0 -110 93 -172.5t255 -62.5t255 62.5t93 172.5q0 107 -94.5 173.5t-253.5 66.5zM651 813q144 0 225.5 64.5t81.5 164.5q0 110 -85.5 171t-221.5 61t-221.5 -61t-85.5 -171q0 -100 82.5 -164.5t224.5 -64.5z" />
    <glyph glyph-name="nine.tab" unicode="&#xe043;" horiz-adv-x="1300" 
d="M588 487q-214 0 -357 136t-143 335q0 221 146.5 359.5t375.5 138.5q95 0 179 -24.5t158 -79t127 -134.5t83.5 -197.5t30.5 -262.5q0 -122 -18.5 -231t-62 -211.5t-109 -176t-168 -118t-230.5 -44.5q-191 0 -318 105.5t-149 249.5h205q15 -75 88.5 -122.5t177.5 -47.5
q339 0 367 497q-59 -79 -158.5 -125.5t-224.5 -46.5zM621 1270q-146 0 -234 -84.5t-88 -222.5q0 -130 89 -213.5t233 -83.5q139 0 235 84.5t96 210.5q0 132 -96 220.5t-235 88.5z" />
    <glyph glyph-name="zero.otab" unicode="&#xe044;" horiz-adv-x="1300" 
d="M651 1014q144 0 264.5 -67.5t190.5 -186t70 -262.5q0 -145 -70 -264t-190.5 -186.5t-264.5 -67.5q-145 0 -265.5 67.5t-190.5 186.5t-70 264q0 144 70 262.5t190.5 186t265.5 67.5zM651 162q135 0 225.5 94t90.5 242q0 146 -90.5 239.5t-225.5 93.5t-226 -93.5
t-91 -239.5q0 -147 91 -241.5t226 -94.5z" />
    <glyph glyph-name="one.otab" unicode="&#xe045;" horiz-adv-x="1300" 
d="M270 176h334v617l-293 -82l-51 159l373 125h174v-819h321v-176h-858v176z" />
    <glyph glyph-name="two.otab" unicode="&#xe046;" horiz-adv-x="1300" 
d="M645 836q-218 0 -231 -189h-197q10 165 115 266t315 101q199 0 304.5 -88.5t105.5 -227.5q0 -53 -13.5 -98t-33 -78t-58.5 -70t-73 -62.5t-93 -65.5l-217 -148h516v-176h-854v154l406 270q113 76 163 133t50 125q0 70 -51 112t-154 42z" />
    <glyph glyph-name="three.otab" unicode="&#xe047;" horiz-adv-x="1300" 
d="M647 825q-135 0 -207 -65t-80 -168h-206q6 87 39 161.5t92 134.5t153 94t213 34q127 0 232.5 -44t171 -132.5t65.5 -206.5t-51 -196.5t-139 -108.5q110 -25 183 -116.5t73 -231.5q0 -136 -72 -238.5t-191.5 -154.5t-267.5 -52q-249 0 -386.5 120.5t-151.5 319.5h207
q11 -118 94 -183.5t237 -65.5q146 0 230 69.5t84 194.5q0 116 -77.5 173.5t-211.5 57.5h-145v176h127q241 0 241 219q0 100 -70 154.5t-186 54.5z" />
    <glyph glyph-name="four.otab" unicode="&#xe048;" horiz-adv-x="1300" 
d="M1001 993v-815h275v-178h-275v-440h-213v440h-737v158l750 835h200zM293 178h495v551z" />
    <glyph glyph-name="five.otab" unicode="&#xe049;" horiz-adv-x="1300" 
d="M182 303l35 690h866v-188h-671l-23 -379q43 30 128 50t171 20q230 0 367 -130.5t137 -334.5q0 -147 -71.5 -261t-191.5 -174.5t-267 -60.5q-252 0 -387 120.5t-148 319.5h207q11 -115 93 -184.5t230 -69.5q142 0 232 86.5t90 219.5q0 129 -84 213t-242 84
q-86 0 -163.5 -22t-122.5 -56z" />
    <glyph glyph-name="six.otab" unicode="&#xe04a;" horiz-adv-x="1300" 
d="M723 938q208 0 347.5 -134t139.5 -331q0 -220 -142.5 -358t-365.5 -138q-118 0 -217.5 39.5t-179 119.5t-125 217.5t-45.5 318.5q0 121 18 230.5t62 212t109.5 177t167 119.5t229.5 45q98 0 181 -30t138.5 -80.5t90.5 -112t45 -129.5h-207q-15 77 -81.5 124.5
t-168.5 47.5q-81 0 -144.5 -29.5t-103.5 -77t-67.5 -116.5t-39.5 -139t-16 -152q59 80 157.5 128t217.5 48zM692 164q139 0 222 85t83 222q0 128 -84.5 211.5t-220.5 83.5q-134 0 -227.5 -85t-93.5 -210q0 -131 93 -219t228 -88z" />
    <glyph glyph-name="seven.otab" unicode="&#xe04b;" horiz-adv-x="1300" 
d="M1139 840l-643 -1280h-238l633 1247h-729v186h977v-153z" />
    <glyph glyph-name="eight.otab" unicode="&#xe04c;" horiz-adv-x="1300" 
d="M649 1456q229 0 366.5 -111t137.5 -286q0 -107 -60.5 -195t-166.5 -127q126 -39 197 -130t71 -220q0 -189 -150 -299.5t-395 -110.5q-244 0 -393.5 110.5t-149.5 299.5q0 129 71 220t198 130q-106 39 -168 127t-62 195q0 175 137.5 286t366.5 111zM649 162q154 0 244 61
t90 172q0 110 -91 178t-243 68q-151 0 -241.5 -68t-90.5 -178q0 -111 89.5 -172t242.5 -61zM649 1276q-130 0 -212.5 -61.5t-82.5 -172.5q0 -100 79.5 -165.5t215.5 -65.5q137 0 217 65.5t80 165.5q0 111 -83 172.5t-214 61.5z" />
    <glyph glyph-name="nine.otab" unicode="&#xe04d;" horiz-adv-x="1300" 
d="M588 55q-209 0 -348.5 134t-139.5 331q0 220 142.5 358t365.5 138q118 0 218 -39.5t180 -120t126 -217t46 -317.5q0 -121 -18.5 -231t-62.5 -213t-109.5 -178t-167.5 -120t-230 -45q-98 0 -181 30.5t-138.5 81t-90.5 112t-45 128.5h207q15 -76 82 -123t170 -47
q79 0 142 29.5t103 77t67.5 115.5t40 137.5t16.5 150.5q-59 -79 -157.5 -125.5t-217.5 -46.5zM621 829q-140 0 -224 -85t-84 -222q0 -128 85.5 -212.5t222.5 -84.5q133 0 226 86t93 211q0 130 -93 218.5t-226 88.5z" />
    <glyph glyph-name="fraction.alt" unicode="&#xe04e;" horiz-adv-x="557" 
d="M-66 0h-192l881 1434h192z" />
    <glyph glyph-name="dollar.inferior" unicode="&#xe050;" horiz-adv-x="806" 
d="M483 487v-100q108 -17 167.5 -74t68.5 -145h-158q-6 60 -78 78v-185l31 -6q114 -22 168.5 -75t54.5 -144q0 -97 -66.5 -154t-187.5 -71v-98h-137v98q-125 12 -196 72.5t-82 160.5h157q14 -81 121 -96v195l-16 2q-125 25 -186.5 75.5t-61.5 147.5t67 155t197 68v96h137z
M250 172q0 -33 24 -52t72 -30v162q-96 -12 -96 -80zM569 -168q0 33 -20.5 51t-65.5 31v-164q86 15 86 82z" />
    <glyph glyph-name="cent.inferior" unicode="&#xe051;" horiz-adv-x="806" 
d="M485 487v-98q124 -20 203 -101t88 -184h-174q-8 44 -38.5 78t-78.5 49v-462q48 14 79 49t40 80h172q-9 -105 -87 -186.5t-204 -100.5v-98h-135v98q-138 25 -229.5 134t-91.5 255t91.5 255t229.5 134v98h135zM203 0q0 -85 40 -146t107 -83v458q-67 -22 -107 -83t-40 -146z
" />
    <glyph glyph-name="sterling.inferior" unicode="&#xe052;" horiz-adv-x="806" 
d="M55 51h95v35q0 139 82.5 224t228.5 85q137 0 211 -72t84 -184h-160q-3 50 -35 81.5t-94 31.5q-152 0 -152 -178v-23h248v-131h-248v-158h441v-141h-701v141h95v158h-95v131z" />
    <glyph glyph-name="yen.inferior" unicode="&#xe053;" horiz-adv-x="806" 
d="M104 -127h215v16l-34 56h-181v116h111l-192 318h186l194 -342l195 342h186l-190 -318h106v-116h-178l-33 -56v-16h211v-117h-211v-135h-170v135h-215v117z" />
    <glyph glyph-name="Euro.inferior" unicode="&#xe054;" horiz-adv-x="806" 
d="M109 0v29h-76v112h98q40 116 142.5 185t242.5 69q148 0 260 -69l-65 -123q-81 51 -183 51q-71 0 -126.5 -30t-86.5 -83h303v-112h-335q-2 -10 -2 -29t2 -29h258v-112h-226q31 -53 86.5 -83t126.5 -30q100 0 183 49l65 -121q-112 -69 -260 -69q-140 0 -242.5 69
t-142.5 185h-98v112h76v29z" />
    <glyph glyph-name="comma.inferior" unicode="&#xe055;" horiz-adv-x="405" 
d="M72 -518l55 323h188l-104 -323h-139z" />
    <glyph glyph-name="period.inferior" unicode="&#xe056;" horiz-adv-x="405" 
d="M203 -385q-54 0 -86.5 33t-32.5 80t32.5 79.5t86.5 32.5q53 0 86 -32.5t33 -79.5t-33 -80t-86 -33z" />
    <glyph glyph-name="hyphen.inferior" unicode="&#xe057;" horiz-adv-x="522" 
d="M53 -78v156h416v-156h-416z" />
    <glyph glyph-name="dollar.superior" unicode="&#xe058;" horiz-adv-x="806" 
d="M483 1921v-100q108 -17 167.5 -74t68.5 -145h-158q-6 59 -78 77v-184l31 -6q114 -22 168.5 -75t54.5 -144q0 -98 -67 -156t-187 -70v-98h-137v96q-125 12 -196 73.5t-82 162.5h157q15 -83 121 -98v194l-16 4q-124 25 -186 76t-62 148t67 155t197 68v96h137zM250 1606
q0 -33 24 -52t72 -30v162q-96 -12 -96 -80zM569 1266q0 32 -21 50.5t-65 29.5v-162q86 15 86 82z" />
    <glyph glyph-name="cent.superior" unicode="&#xe059;" horiz-adv-x="806" 
d="M485 1921v-98q124 -20 203 -101t88 -184h-174q-8 44 -38.5 78t-78.5 49v-465q48 15 79 50t40 81h172q-9 -105 -87.5 -187.5t-203.5 -101.5v-96h-135v98q-138 24 -229.5 133t-91.5 257q0 146 91.5 255t229.5 134v98h135zM203 1434q0 -85 40 -146.5t107 -85.5v461
q-67 -22 -107 -83t-40 -146z" />
    <glyph glyph-name="sterling.superior" unicode="&#xe05a;" horiz-adv-x="806" 
d="M55 1485h95v35q0 139 82.5 224t228.5 85q137 0 211 -72t84 -184h-160q-3 50 -35 81.5t-94 31.5q-152 0 -152 -179v-22h248v-131h-248v-158h441v-141h-701v141h95v158h-95v131z" />
    <glyph glyph-name="yen.superior" unicode="&#xe05b;" horiz-adv-x="806" 
d="M104 1307h215v16l-34 55h-181v117h111l-192 317h186l194 -342l195 342h186l-190 -317h106v-117h-178l-33 -55v-16h211v-117h-211v-135h-170v135h-215v117z" />
    <glyph glyph-name="Euro.superior" unicode="&#xe05c;" horiz-adv-x="806" 
d="M109 1434v28h-76v113h98q40 116 142.5 185t242.5 69q146 0 260 -70l-65 -123q-82 52 -183 52q-71 0 -126.5 -30t-86.5 -83h303v-113h-335q-2 -10 -2 -28q0 -21 2 -29h258v-113h-226q31 -53 86.5 -82.5t126.5 -29.5q100 0 183 49l65 -121q-114 -70 -260 -70
q-140 0 -242.5 69t-142.5 185h-98v113h76v29z" />
    <glyph glyph-name="comma.superior" unicode="&#xe05d;" horiz-adv-x="405" 
d="M72 915l55 324h188l-104 -324h-139z" />
    <glyph glyph-name="period.superior" unicode="&#xe05e;" horiz-adv-x="405" 
d="M203 1049q-54 0 -86.5 32.5t-32.5 79.5t32.5 80t86.5 33q53 0 86 -33t33 -80t-33 -79.5t-86 -32.5z" />
    <glyph glyph-name="hyphen.superior" unicode="&#xe05f;" horiz-adv-x="522" 
d="M53 1356v155h416v-155h-416z" />
    <glyph glyph-name="zero.denom" unicode="&#xe060;" horiz-adv-x="806" 
d="M403 774q159 0 259 -111.5t100 -283.5t-100 -283.5t-259 -111.5q-158 0 -257 111.5t-99 283.5t99 283.5t257 111.5zM403 133q84 0 136.5 68.5t52.5 177.5t-52.5 177.5t-136.5 68.5t-136 -68.5t-52 -177.5t52 -177.5t136 -68.5z" />
    <glyph glyph-name="one.denom" unicode="&#xe061;" horiz-adv-x="806" 
d="M391 0v586l-201 -64l-45 142l275 96h135v-760h-164z" />
    <glyph glyph-name="two.denom" unicode="&#xe062;" horiz-adv-x="806" 
d="M399 625q-142 0 -151 -136h-160q6 128 85 206.5t233 78.5q139 0 217.5 -69t78.5 -177q0 -83 -44.5 -145.5t-131.5 -126.5l-143 -109h338v-147h-621v117l299 221q76 58 107 96t31 86t-37 76.5t-101 28.5z" />
    <glyph glyph-name="three.denom" unicode="&#xe063;" horiz-adv-x="806" 
d="M395 629q-146 0 -153 -121h-158q6 124 87.5 195t229.5 71q129 0 213 -58t84 -167q0 -57 -27 -97t-67 -53q54 -16 85.5 -60t31.5 -116q0 -109 -88 -174t-225 -65q-315 0 -334 266h159q9 -121 166 -121q154 0 154 107q0 92 -123 92h-82v127h82q105 0 105 77q0 97 -140 97z
" />
    <glyph glyph-name="four.denom" unicode="&#xe064;" horiz-adv-x="806" 
d="M643 760v-461h121v-143h-121v-156h-164v156h-418v123l441 481h141zM246 299h235v254z" />
    <glyph glyph-name="five.denom" unicode="&#xe065;" horiz-adv-x="806" 
d="M410 129q70 0 108.5 31t38.5 86q0 57 -38 90t-118 33q-88 0 -141 -39l-143 30l24 398h535v-148h-395l-11 -153q65 35 164 35q140 0 215.5 -68t75.5 -178q0 -126 -86.5 -194t-228.5 -68q-149 0 -228.5 66.5t-85.5 185.5h156q9 -107 158 -107z" />
    <glyph glyph-name="six.denom" unicode="&#xe066;" horiz-adv-x="806" 
d="M461 506q125 0 206 -72t81 -182q0 -118 -89 -193t-227 -75q-152 0 -247 91.5t-95 266.5q0 210 90.5 321t261.5 111q124 0 197.5 -60t89.5 -155h-156q-7 36 -42 57t-87 21q-172 0 -186 -205q65 74 203 74zM428 123q72 0 115 34.5t43 94.5q0 59 -42.5 93t-115.5 34
t-116.5 -34t-43.5 -93q0 -60 43.5 -94.5t116.5 -34.5z" />
    <glyph glyph-name="seven.denom" unicode="&#xe067;" horiz-adv-x="806" 
d="M707 629l-347 -629h-192l336 610h-406v148h609v-129z" />
    <glyph glyph-name="eight.denom" unicode="&#xe068;" horiz-adv-x="806" 
d="M403 774q146 0 229 -59.5t83 -157.5q0 -58 -32 -101.5t-85 -62.5q58 -19 98.5 -66.5t40.5 -113.5q0 -107 -90.5 -168t-243.5 -61t-243 61t-90 168q0 66 41 113.5t100 66.5q-54 19 -85.5 62t-31.5 102q0 98 82 157.5t227 59.5zM403 125q168 0 168 98q0 47 -44 73t-124 26
t-123.5 -26t-43.5 -73q0 -49 44.5 -73.5t122.5 -24.5zM403 446q70 0 109 26t39 69q0 92 -148 92q-145 0 -145 -92q0 -43 38.5 -69t106.5 -26z" />
    <glyph glyph-name="nine.denom" unicode="&#xe069;" horiz-adv-x="806" 
d="M348 252q-125 0 -206 72t-81 182q0 118 88 193t226 75q153 0 248.5 -91.5t95.5 -266.5q0 -209 -91 -320.5t-263 -111.5q-123 0 -196 60t-89 155h153q7 -36 43.5 -57t88.5 -21q174 0 184 205q-61 -74 -201 -74zM381 635q-73 0 -116.5 -34.5t-43.5 -94.5q0 -59 43.5 -93
t116.5 -34q72 0 115 34t43 93t-43.5 94t-114.5 35z" />
    <glyph glyph-name="parenleft.denom" unicode="&#xe06a;" horiz-adv-x="579" 
d="M102 379q0 183 114.5 325.5t301.5 178.5v-148q-113 -28 -179.5 -125t-66.5 -231t66.5 -231t179.5 -125v-148q-187 36 -301.5 178.5t-114.5 325.5z" />
    <glyph glyph-name="parenright.denom" unicode="&#xe06b;" horiz-adv-x="579" 
d="M477 379q0 -183 -114.5 -325.5t-301.5 -178.5v148q113 28 179.5 125t66.5 231t-66.5 231t-179.5 125v148q187 -36 301.5 -178.5t114.5 -325.5z" />
    <glyph glyph-name="dollar.denom" unicode="&#xe06c;" horiz-adv-x="806" 
d="M483 866v-100q108 -17 167.5 -74t68.5 -145h-158q-6 60 -78 78v-185l31 -6q114 -22 168.5 -75t54.5 -144q0 -98 -66.5 -155.5t-187.5 -69.5v-99h-137v99q-125 10 -196 71t-82 162h157q15 -83 121 -98v194l-16 5q-125 25 -186.5 75.5t-61.5 147.5t67 155t197 68v96h137z
M250 551q0 -33 24 -52t72 -30v162q-96 -12 -96 -80zM569 211q0 32 -21 50.5t-65 29.5v-162q86 15 86 82z" />
    <glyph glyph-name="cent.denom" unicode="&#xe06d;" horiz-adv-x="806" 
d="M485 866v-98q124 -20 203 -101t88 -184h-174q-8 44 -38.5 78t-78.5 49v-465q48 15 79 50t40 81h172q-9 -105 -87.5 -186.5t-203.5 -99.5v-99h-135v99q-138 24 -229.5 132.5t-91.5 256.5q0 146 91.5 255t229.5 134v98h135zM203 379q0 -85 40 -146.5t107 -85.5v461
q-67 -22 -107 -83t-40 -146z" />
    <glyph glyph-name="sterling.denom" unicode="&#xe06e;" horiz-adv-x="806" 
d="M55 430h95v35q0 139 82.5 224t228.5 85q137 0 211 -72t84 -184h-160q-3 50 -35 81.5t-94 31.5q-152 0 -152 -178v-23h248v-131h-248v-158h441v-141h-701v141h95v158h-95v131z" />
    <glyph glyph-name="yen.denom" unicode="&#xe06f;" horiz-adv-x="806" 
d="M104 252h215v16l-34 56h-181v116h111l-192 318h186l194 -342l195 342h186l-190 -318h106v-116h-178l-33 -56v-16h211v-117h-211v-135h-170v135h-215v117z" />
    <glyph glyph-name="Euro.denom" unicode="&#xe070;" horiz-adv-x="806" 
d="M109 379v29h-76v112h98q40 116 142.5 185t242.5 69q148 0 260 -69l-65 -123q-81 51 -183 51q-71 0 -126.5 -30t-86.5 -83h303v-112h-335q-2 -10 -2 -29q0 -21 2 -29h258v-112h-226q31 -53 86.5 -83t126.5 -30q100 0 183 49l65 -121q-112 -69 -260 -69q-140 0 -242.5 69
t-142.5 185h-98v112h76v29z" />
    <glyph glyph-name="comma.denom" unicode="&#xe071;" horiz-adv-x="405" 
d="M72 -139l55 323h188l-104 -323h-139z" />
    <glyph glyph-name="period.denom" unicode="&#xe072;" horiz-adv-x="405" 
d="M203 -6q-54 0 -86.5 32.5t-32.5 79.5t32.5 80t86.5 33q53 0 86 -33t33 -80t-33 -79.5t-86 -32.5z" />
    <glyph glyph-name="hyphen.denom" unicode="&#xe073;" horiz-adv-x="522" 
d="M53 301v156h416v-156h-416z" />
    <glyph glyph-name="zero.num" unicode="&#xe074;" horiz-adv-x="806" 
d="M403 1450q159 0 259 -111.5t100 -283.5t-100.5 -284t-258.5 -112t-257 112t-99 284t99 283.5t257 111.5zM403 809q84 0 136.5 68.5t52.5 177.5t-52 177t-137 68q-84 0 -136 -68t-52 -177t52 -177.5t136 -68.5z" />
    <glyph glyph-name="one.num" unicode="&#xe075;" horiz-adv-x="806" 
d="M391 676v586l-201 -64l-45 141l275 97h135v-760h-164z" />
    <glyph glyph-name="two.num" unicode="&#xe076;" horiz-adv-x="806" 
d="M399 1300q-142 0 -151 -135h-160q6 128 85 206.5t233 78.5q139 0 217.5 -69t78.5 -177q0 -83 -44.5 -145.5t-131.5 -126.5l-143 -109h338v-147h-621v117l299 221q76 58 107 96t31 86t-37 76t-101 28z" />
    <glyph glyph-name="three.num" unicode="&#xe077;" horiz-adv-x="806" 
d="M395 1305q-146 0 -153 -121h-158q6 124 87.5 195t229.5 71q129 0 213 -58t84 -167q0 -57 -27 -97t-67 -53q54 -16 85.5 -60t31.5 -116q0 -109 -88 -174.5t-225 -65.5q-159 0 -242 69t-92 198h159q9 -121 166 -121q154 0 154 106q0 93 -123 93h-82v126h82q53 0 79 21
t26 57q0 97 -140 97z" />
    <glyph glyph-name="four.num" unicode="&#xe078;" horiz-adv-x="806" 
d="M643 1436v-461h121v-144h-121v-155h-164v155h-418v123l441 482h141zM246 975h235v254z" />
    <glyph glyph-name="five.num" unicode="&#xe079;" horiz-adv-x="806" 
d="M410 805q70 0 108.5 31t38.5 86q0 57 -38 89.5t-118 32.5q-90 0 -141 -38l-143 30l24 398h535v-148h-395l-11 -153q63 34 164 34q140 0 215.5 -67.5t75.5 -177.5q0 -126 -86.5 -194.5t-228.5 -68.5q-149 0 -228.5 66.5t-85.5 185.5h156q9 -106 158 -106z" />
    <glyph glyph-name="six.num" unicode="&#xe07a;" horiz-adv-x="806" 
d="M461 1182q125 0 206 -72t81 -182q0 -118 -89 -193.5t-227 -75.5q-152 0 -247 92t-95 267q0 210 90.5 321t261.5 111q124 0 197.5 -60t89.5 -155h-156q-7 36 -42 57t-87 21q-172 0 -186 -205q65 74 203 74zM428 799q72 0 115 34.5t43 94.5q0 59 -42.5 93t-115.5 34
t-116.5 -34t-43.5 -93q0 -60 43.5 -94.5t116.5 -34.5z" />
    <glyph glyph-name="seven.num" unicode="&#xe07b;" horiz-adv-x="806" 
d="M707 1305l-347 -629h-192l336 610h-406v148h609v-129z" />
    <glyph glyph-name="eight.num" unicode="&#xe07c;" horiz-adv-x="806" 
d="M403 1450q146 0 229 -59.5t83 -157.5q0 -58 -32 -101.5t-85 -62.5q58 -19 98.5 -66.5t40.5 -113.5q0 -107 -90.5 -168.5t-243.5 -61.5t-243 61.5t-90 168.5q0 66 41 113.5t100 66.5q-54 19 -85.5 62t-31.5 102q0 98 82 157.5t227 59.5zM403 801q168 0 168 98
q0 47 -44 72.5t-124 25.5t-123.5 -25.5t-43.5 -72.5q0 -49 44.5 -73.5t122.5 -24.5zM403 1122q70 0 109 26t39 69q0 92 -148 92q-145 0 -145 -92q0 -43 38.5 -69t106.5 -26z" />
    <glyph glyph-name="nine.num" unicode="&#xe07d;" horiz-adv-x="806" 
d="M348 928q-125 0 -206 72t-81 182q0 118 88 193t226 75q153 0 248.5 -91.5t95.5 -266.5q0 -209 -91 -321t-263 -112q-123 0 -196 60t-89 155h153q7 -36 43.5 -56.5t88.5 -20.5q174 0 184 204q-61 -73 -201 -73zM381 1311q-73 0 -116.5 -34.5t-43.5 -94.5q0 -59 43.5 -93
t116.5 -34q72 0 115 34t43 93t-43.5 94t-114.5 35z" />
    <glyph glyph-name="parenleft.num" unicode="&#xe07e;" horiz-adv-x="579" 
d="M102 1055q0 183 114.5 325.5t301.5 178.5v-148q-113 -28 -179.5 -125t-66.5 -231q0 -135 66.5 -232t179.5 -125v-147q-187 36 -301.5 178.5t-114.5 325.5z" />
    <glyph glyph-name="parenright.num" unicode="&#xe07f;" horiz-adv-x="579" 
d="M477 1055q0 -183 -114.5 -325.5t-301.5 -178.5v147q113 28 179.5 125t66.5 232q0 134 -66.5 231t-179.5 125v148q187 -36 301.5 -178.5t114.5 -325.5z" />
    <glyph glyph-name="dollar.num" unicode="&#xe080;" horiz-adv-x="806" 
d="M483 1542v-100q108 -17 167.5 -74t68.5 -145h-158q-6 59 -78 77v-184l31 -6q114 -22 168.5 -75t54.5 -144q0 -98 -66.5 -155.5t-187.5 -69.5v-99h-137v97q-125 12 -196 73t-82 162h157q15 -83 121 -98v194l-16 4q-124 25 -186 76t-62 148t67 155t197 68v96h137zM250 1227
q0 -33 24 -52t72 -30v162q-96 -12 -96 -80zM569 887q0 32 -21 50.5t-65 29.5v-162q86 15 86 82z" />
    <glyph glyph-name="cent.num" unicode="&#xe081;" horiz-adv-x="806" 
d="M485 1542v-98q124 -20 203 -101t88 -184h-174q-8 44 -38.5 78t-78.5 49v-465q48 15 79 50t40 81h172q-6 -68 -41 -127.5t-100.5 -103.5t-149.5 -57v-97h-135v99q-138 24 -229.5 132.5t-91.5 256.5q0 146 91.5 255t229.5 134v98h135zM203 1055q0 -85 40 -146.5t107 -85.5
v461q-67 -22 -107 -83t-40 -146z" />
    <glyph glyph-name="sterling.num" unicode="&#xe082;" horiz-adv-x="806" 
d="M55 1106h95v35q0 139 82.5 224t228.5 85q137 0 211 -72t84 -184h-160q-3 50 -35 81.5t-94 31.5q-152 0 -152 -179v-22h248v-131h-248v-158h441v-141h-701v141h95v158h-95v131z" />
    <glyph glyph-name="yen.num" unicode="&#xe083;" horiz-adv-x="806" 
d="M104 928h215v16l-34 55h-181v117h111l-192 318h186l194 -342l195 342h186l-190 -318h106v-117h-178l-33 -55v-16h211v-117h-211v-135h-170v135h-215v117z" />
    <glyph glyph-name="Euro.num" unicode="&#xe084;" horiz-adv-x="806" 
d="M109 1055v28h-76v113h98q40 116 142.5 185t242.5 69q146 0 260 -70l-65 -123q-82 52 -183 52q-71 0 -126.5 -30t-86.5 -83h303v-113h-335q-2 -10 -2 -28q0 -21 2 -29h258v-113h-224q66 -112 211 -112q100 0 183 49l65 -121q-114 -70 -260 -70q-140 0 -242.5 69
t-142.5 185h-98v113h76v29z" />
    <glyph glyph-name="comma.num" unicode="&#xe085;" horiz-adv-x="405" 
d="M72 537l55 323h188l-104 -323h-139z" />
    <glyph glyph-name="period.num" unicode="&#xe086;" horiz-adv-x="405" 
d="M203 670q-54 0 -86.5 32.5t-32.5 79.5t32.5 80t86.5 33q53 0 86 -33t33 -80t-33 -79.5t-86 -32.5z" />
    <glyph glyph-name="hyphen.num" unicode="&#xe087;" horiz-adv-x="522" 
d="M53 977v156h416v-156h-416z" />
    <glyph glyph-name="at.case" unicode="&#xe088;" horiz-adv-x="1986" 
d="M1393 109v-154q-169 -76 -404 -76q-185 0 -345.5 64.5t-273 175.5t-177 264.5t-64.5 325.5q0 179 65.5 335.5t180.5 268.5t278.5 176.5t352.5 64.5q187 0 346 -59t270 -163.5t173.5 -252t62.5 -319.5q0 -209 -98.5 -334t-258.5 -125q-83 0 -144.5 42t-90.5 120
q-112 -160 -295 -160q-165 0 -278 118.5t-113 295.5q0 174 113 292.5t278 118.5q157 0 260 -118v104h166v-471q0 -102 26.5 -147t85.5 -45q77 0 124.5 80.5t47.5 228.5q0 293 -184.5 466t-490.5 173q-309 0 -505 -193t-196 -497q0 -191 87 -345t244 -241.5t353 -87.5
q221 0 404 74zM760 715q0 -114 65 -185t170 -71q99 0 167.5 72t68.5 184t-68.5 184t-167.5 72q-105 0 -170 -71t-65 -185z" />
    <glyph glyph-name="parenleft.case" unicode="&#xe089;" horiz-adv-x="819" 
d="M141 717q0 289 168 494.5t436 261.5v-197q-171 -47 -275.5 -190t-104.5 -369t104.5 -369t275.5 -190v-197q-268 56 -436 261.5t-168 494.5z" />
    <glyph glyph-name="parenright.case" unicode="&#xe08a;" horiz-adv-x="819" 
d="M678 717q0 -289 -167 -494.5t-435 -261.5v197q171 46 275 189.5t104 369.5t-104 369.5t-275 189.5v197q268 -56 435 -261.5t167 -494.5z" />
    <glyph glyph-name="bracketleft.case" unicode="&#xe08b;" horiz-adv-x="792" 
d="M184 1434h535v-189h-320v-1057h320v-188h-535v1434z" />
    <glyph glyph-name="bracketright.case" unicode="&#xe08c;" horiz-adv-x="792" 
d="M76 1434h534v-1434h-534v188h319v1057h-319v189z" />
    <glyph glyph-name="braceleft.case" unicode="&#xe08d;" horiz-adv-x="866" 
d="M113 623v188q108 0 168 52.5t51 146.5l-6 86q-13 170 66.5 254t293.5 84h105v-189h-78q-107 0 -142 -39t-30 -129l4 -86q5 -101 -41 -173.5t-144 -100.5q98 -28 144 -101t41 -174l-4 -86q-5 -90 30 -129t142 -39h78v-188h-105q-214 0 -293.5 84t-66.5 254l6 86
q9 94 -51 146.5t-168 52.5z" />
    <glyph glyph-name="braceright.case" unicode="&#xe08e;" horiz-adv-x="866" 
d="M754 811v-188q-107 0 -166.5 -52.5t-52.5 -146.5l8 -86q5 -83 -9.5 -143t-54.5 -105t-114 -67.5t-183 -22.5h-106v188h80q107 0 142 39t30 129l-4 86q-6 101 39 174t143 101q-98 28 -143 100.5t-39 173.5l4 86q5 90 -30 129t-142 39h-80v189h106q109 0 183 -22.5
t114 -67.5t54.5 -105t9.5 -143l-8 -86q-7 -94 52.5 -146.5t166.5 -52.5z" />
    <glyph glyph-name="plus.case" unicode="&#xe08f;" horiz-adv-x="1255" 
d="M717 295h-178v336h-336v170h336v338h178v-338h336v-170h-336v-336z" />
    <glyph glyph-name="minus.case" unicode="&#xe090;" horiz-adv-x="1255" 
d="M1049 801v-170h-840v170h840z" />
    <glyph glyph-name="multiply.case" unicode="&#xe091;" horiz-adv-x="1255" 
d="M250 971l123 123l254 -256l256 256l125 -123l-256 -256l256 -254l-125 -123l-256 254l-254 -254l-123 123l254 254z" />
    <glyph glyph-name="divide.case" unicode="&#xe092;" horiz-adv-x="1255" 
d="M1049 801v-170h-840v170h840zM487 1075q0 60 40.5 99.5t101.5 39.5q60 0 99.5 -39.5t39.5 -99.5q0 -59 -39.5 -99t-99.5 -40q-61 0 -101.5 40t-40.5 99zM487 356q0 60 40.5 101t101.5 41q60 0 99.5 -41t39.5 -101q0 -59 -39.5 -99t-99.5 -40q-61 0 -101.5 40t-40.5 99z
" />
    <glyph glyph-name="equal.case" unicode="&#xe093;" horiz-adv-x="1255" 
d="M1049 999v-170h-840v170h840zM1049 602v-170h-840v170h840z" />
    <glyph glyph-name="notequal.case" unicode="&#xe094;" horiz-adv-x="1255" 
d="M1012 1200l-121 -201h180v-170h-283l-135 -227h418v-170h-520l-160 -266l-147 78l112 188h-172v170h273l137 227h-410v170h512l168 281z" />
    <glyph glyph-name="approxequal.case" unicode="&#xe095;" horiz-adv-x="1255" 
d="M934 655l139 -18q-40 -254 -242 -254q-47 0 -100 17.5t-92.5 38t-87 38t-84.5 17.5q-55 0 -83.5 -27.5t-41.5 -79.5l-139 19q40 253 241 253q60 0 128 -27.5t130 -55t107 -27.5q56 0 85 27.5t40 78.5zM934 1044l139 -16q-39 -256 -242 -256q-47 0 -100 17.5t-92.5 39
t-87 39t-84.5 17.5q-55 0 -83.5 -28t-41.5 -79l-139 17q39 256 241 256q60 0 128 -28.5t130 -56.5t107 -28q101 0 125 106z" />
    <glyph glyph-name="infinity.case" unicode="&#xe096;" horiz-adv-x="1619" 
d="M1528 717q0 -140 -94.5 -231t-243.5 -91q-111 0 -193.5 48t-191.5 167q-107 -119 -186.5 -167t-188.5 -48q-151 0 -244.5 92t-93.5 232t94 230.5t244 90.5q110 0 191 -49t190 -170q108 120 188.5 169.5t190.5 49.5q152 0 245 -91.5t93 -231.5zM1356 721q0 83 -46.5 128.5
t-133.5 45.5q-71 0 -127.5 -36.5t-145.5 -137.5q95 -103 148.5 -138.5t124.5 -35.5q87 0 133.5 45.5t46.5 128.5zM442 541q72 0 129 35.5t146 136.5q-94 103 -149 139.5t-126 36.5q-85 0 -131.5 -46.5t-46.5 -127.5q0 -82 46 -128t132 -46z" />
    <glyph glyph-name="less.case" unicode="&#xe097;" horiz-adv-x="1255" 
d="M211 631v170l823 403v-211l-596 -276l596 -279v-211z" />
    <glyph glyph-name="greater.case" unicode="&#xe098;" horiz-adv-x="1255" 
d="M1044 801v-170l-823 -404v211l596 279l-596 276v211z" />
    <glyph glyph-name="guilsinglleft.case" unicode="&#xe099;" horiz-adv-x="606" 
d="M516 1096l-223 -379l223 -377h-207l-225 377l225 379h207z" />
    <glyph glyph-name="guilsinglright.case" unicode="&#xe09a;" horiz-adv-x="606" 
d="M90 340l223 377l-223 379h207l223 -379l-223 -377h-207z" />
    <glyph glyph-name="guillemotleft.case" unicode="&#xe09b;" horiz-adv-x="1026" 
d="M516 1096l-223 -379l223 -377h-207l-225 377l225 379h207zM936 1096l-223 -379l223 -377h-207l-225 377l225 379h207z" />
    <glyph glyph-name="guillemotright.case" unicode="&#xe09c;" horiz-adv-x="1026" 
d="M90 340l223 377l-223 379h207l223 -379l-223 -377h-207zM510 340l223 377l-223 379h207l223 -379l-223 -377h-207z" />
    <glyph glyph-name="bar.case" unicode="&#xe09d;" horiz-adv-x="694" 
d="M451 1769v-2105h-205v2105h205z" />
    <glyph glyph-name="brokenbar.case" unicode="&#xe09e;" horiz-adv-x="694" 
d="M451 1769v-880h-205v880h205zM451 545v-881h-205v881h205z" />
    <glyph glyph-name="asciitilde.case" unicode="&#xe09f;" horiz-adv-x="1026" 
d="M774 846l129 -19q-16 -103 -70.5 -170t-144.5 -67q-32 0 -66 8t-55 16.5t-59 24.5q-8 3 -34 15t-38.5 17t-33.5 10t-40 5q-85 0 -110 -98l-129 18q16 104 70.5 171t144.5 67q32 0 66 -8t55 -16.5t59 -24.5q8 -3 34 -15t38.5 -17t33.5 -10t40 -5q85 0 110 98z" />
    <glyph glyph-name="bullet.case" unicode="&#xe0a0;" horiz-adv-x="858" 
d="M324 557q-42 27 -65 71.5t-23 92.5q0 56 30 102q27 40 70 62t90 22q60 0 109 -30q42 -29 65 -72.5t23 -91.5q0 -55 -31 -103q-28 -41 -70 -63.5t-90 -22.5q-61 0 -108 33z" />
    <glyph glyph-name="periodcentered.case" unicode="&#xe0a1;" horiz-adv-x="520" 
d="M119 717q0 60 40 99.5t101 39.5t101 -39.5t40 -99.5t-40 -101t-101 -41t-101 41t-40 101z" />
    <glyph glyph-name="hyphen.case" unicode="&#xe0a2;" horiz-adv-x="813" 
d="M92 629v176h633v-176h-633z" />
    <glyph glyph-name="endash.case" unicode="&#xe0a3;" horiz-adv-x="972" 
d="M57 631v172h861v-172h-861z" />
    <glyph glyph-name="emdash.case" unicode="&#xe0a4;" horiz-adv-x="1198" 
d="M31 631v172h1136v-172h-1136z" />
    <glyph glyph-name="questiondown.case" unicode="&#xe0a5;" horiz-adv-x="1226" 
d="M113 399q0 66 25 126.5t62.5 104.5t90.5 83t100.5 64t100.5 46l16 174h162l20 -262q-56 -20 -101 -39.5t-96 -50t-84.5 -62.5t-56 -76t-22.5 -93q0 -113 75.5 -178.5t219.5 -65.5q300 0 319 272h211q-5 -99 -38.5 -181t-96 -147t-164.5 -101t-235 -36
q-239 0 -373.5 118.5t-134.5 303.5zM449 1305q0 61 40.5 101t102.5 40q61 0 101 -40.5t40 -100.5t-40 -101t-101 -41q-62 0 -102.5 40.5t-40.5 101.5z" />
    <glyph glyph-name="exclamdown.case" unicode="&#xe0a6;" horiz-adv-x="591" 
d="M223 997h146q41 -410 41 -847v-150h-230v150q0 417 43 847zM154 1305q0 60 40 100.5t101 40.5t101 -40.5t40 -100.5t-40 -101t-101 -41t-101 41t-40 101z" />
    <glyph glyph-name="registered.case" unicode="&#xe0a7;" horiz-adv-x="1720" 
d="M860 1456q153 0 291 -58t237.5 -156.5t158.5 -235.5t59 -289q0 -203 -99.5 -373t-271 -268.5t-375.5 -98.5q-153 0 -291 58t-237.5 157t-158 236t-58.5 289t58.5 289t158 235.5t237.5 156.5t291 58zM860 135q161 0 293.5 76.5t208.5 210t76 295.5t-76 295t-208.5 209.5
t-293.5 76.5t-293 -76.5t-207 -209.5t-75 -295q0 -121 44.5 -229t120.5 -185.5t183 -122.5t227 -45zM739 592v-254h-161v760h350q135 0 213 -71t78 -183q0 -91 -48 -153t-137 -87l180 -266h-176l-170 254h-129zM739 731h172q144 0 144 113q0 114 -144 114h-172v-227z" />
    <glyph glyph-name="arrowleft.case" unicode="&#xe0a8;" horiz-adv-x="1382" 
d="M72 717l475 477l69 -37l-120 -352l804 6v-186l-806 4l122 -353l-69 -34z" />
    <glyph glyph-name="arrowup.case" unicode="&#xe0a9;" horiz-adv-x="1447" 
d="M723 1389l477 -476l-35 -69l-354 123l6 -748h-186l6 748l-354 -123l-35 69z" />
    <glyph glyph-name="arrowright.case" unicode="&#xe0aa;" horiz-adv-x="1382" 
d="M836 1194l475 -477l-475 -475l-70 34l121 353l-805 -4v186l805 -6l-121 352z" />
    <glyph glyph-name="arrowdown.case" unicode="&#xe0ab;" horiz-adv-x="1447" 
d="M725 0l-477 475l35 70l352 -123l-4 747h186l-6 -749l354 125l35 -70z" />
    <glyph glyph-name="arrowboth.case" unicode="&#xe0ac;" horiz-adv-x="1748" 
d="M72 702l475 476l69 -35l-120 -352h757l-120 352l69 35l477 -476l-477 -477l-69 37l120 352h-757l120 -352l-69 -37z" />
    <glyph glyph-name="arrowupdn.case" unicode="&#xe0ad;" horiz-adv-x="1447" 
d="M723 -55l-475 477l35 70l352 -123l-2 682l-350 -121l-35 69l475 478l477 -478l-35 -69l-352 121v-682l352 123l35 -70z" />
    <glyph glyph-name="arrowupleft.case" unicode="&#xe0ae;" horiz-adv-x="1382" 
d="M242 1159h673l25 -76l-336 -161l576 -568l-133 -131l-568 574l-162 -334l-75 22v674z" />
    <glyph glyph-name="arrowupright.case" unicode="&#xe0af;" horiz-adv-x="1382" 
d="M489 1159h674v-674l-76 -22l-163 334l-566 -574l-133 131l576 568l-336 161z" />
    <glyph glyph-name="arrowdownright.case" unicode="&#xe0b0;" horiz-adv-x="1382" 
d="M1163 233h-674l-24 76l336 162l-576 567l133 131l566 -575l163 336l76 -23v-674z" />
    <glyph glyph-name="arrowdownleft.case" unicode="&#xe0b1;" horiz-adv-x="1382" 
d="M915 233h-673v674l75 23l162 -336l568 575l133 -131l-576 -567l336 -162z" />
    <glyph glyph-name="triagup.case" unicode="&#xe0b2;" horiz-adv-x="1136" 
d="M950 424h-764l383 651z" />
    <glyph glyph-name="triagrt.case" unicode="&#xe0b3;" horiz-adv-x="1136" 
d="M276 371v747l685 -373z" />
    <glyph glyph-name="triagdn.case" unicode="&#xe0b4;" horiz-adv-x="1136" 
d="M186 1069h764l-381 -649z" />
    <glyph glyph-name="triaglf.case" unicode="&#xe0b5;" horiz-adv-x="1136" 
d="M860 1118v-747l-684 372z" />
    <glyph glyph-name="uni25E2.case" unicode="&#xe0b6;" horiz-adv-x="1136" 
d="M870 414h-704l704 704v-704z" />
    <glyph glyph-name="uni25E3.case" unicode="&#xe0b7;" horiz-adv-x="1136" 
d="M971 414h-705v704z" />
    <glyph glyph-name="uni25E4.case" unicode="&#xe0b8;" horiz-adv-x="1136" 
d="M266 1118h705l-705 -704v704z" />
    <glyph glyph-name="uni25E5.case" unicode="&#xe0b9;" horiz-adv-x="1136" 
d="M166 1118h704v-704z" />
    <glyph glyph-name="commaaccent" unicode="&#xf6c3;" 
d="M637 -88l-88 -361h-162l45 361h205z" />
    <glyph glyph-name="exclam.sc" unicode="&#xf720;" horiz-adv-x="532" 
d="M346 383h-160q-22 255 -22 516v156h205v-156q0 -205 -23 -516zM125 129q0 60 40 100.5t101 40.5t101.5 -40.5t40.5 -100.5t-40.5 -100.5t-101.5 -40.5t-101 40.5t-40 100.5z" />
    <glyph glyph-name="numbersign.sc" unicode="&#xf721;" horiz-adv-x="1226" 
d="M172 657v154h184l50 244h178l-49 -244h266l49 244h178l-49 -244h158v-154h-187l-51 -260h156v-153h-187l-47 -244h-176l47 244h-270l-47 -244h-178l47 244h-154v153h184l52 260h-154zM504 657l-51 -260h268l51 260h-268z" />
    <glyph glyph-name="dollar.sc" unicode="&#xf722;" horiz-adv-x="1112" 
d="M485 -205v189q-170 14 -271 94.5t-114 214.5h197q14 -118 188 -137v301h-2q-174 25 -268 104t-94 205q0 133 97 214t267 93v187h158v-191q149 -21 235 -99.5t97 -189.5h-193q-19 94 -139 117v-289l41 -6q328 -44 328 -301q0 -136 -100 -219t-269 -98v-189h-158zM809 291
q0 109 -166 141v-276q80 11 123 45t43 90zM324 772q0 -53 39 -86.5t122 -52.5v268q-161 -15 -161 -129z" />
    <glyph glyph-name="percent.sc" unicode="&#xf723;" horiz-adv-x="1671" 
d="M584 0h-185l693 1055h186zM395 1065q132 0 218.5 -84.5t86.5 -210.5q0 -125 -87 -210t-218 -85t-217 85t-86 210q0 127 86 211t217 84zM395 621q66 0 108 42t42 107q0 66 -42 109t-108 43t-107.5 -43t-41.5 -109q0 -65 41.5 -107t107.5 -42zM1274 580q131 0 218 -85
t87 -210t-87 -210t-218 -85q-130 0 -216.5 85t-86.5 210t86.5 210t216.5 85zM1274 133q67 0 108 43t41 109q0 65 -41 108t-108 43q-65 0 -106.5 -43t-41.5 -108t41.5 -108.5t106.5 -43.5z" />
    <glyph glyph-name="ampersand.sc" unicode="&#xf724;" horiz-adv-x="1163" 
d="M995 555l129 -109q-115 -142 -198 -225l207 -221h-213l-113 117q-177 -137 -356 -137q-153 0 -252 77t-99 217q0 36 7 67.5t16.5 55.5t30 49t34.5 40.5t43.5 37t45 32t49.5 32.5l22 14q-36 39 -58 67t-40.5 73t-18.5 92q0 112 75 174.5t202 62.5q120 0 195 -60t75 -167
q0 -89 -41 -144t-125 -110l-20 -15l219 -231q60 62 184 211zM461 154q116 0 231 84l-233 247l-17 -10q-81 -55 -103 -77q-46 -47 -46 -111q0 -62 46 -97.5t122 -35.5zM412 829q0 -59 71 -137l19 13q6 4 21 14.5l20 14t17 12t15.5 13t11.5 12.5t10.5 14.5t6.5 15.5t5 18.5
t1 20.5q0 38 -26 60t-70 22q-102 0 -102 -93z" />
    <glyph glyph-name="parenleft.sc" unicode="&#xf725;" horiz-adv-x="759" 
d="M125 528q0 266 149 468t398 251v-174q-157 -40 -248.5 -187.5t-91.5 -357.5q0 -212 91 -359t249 -187v-175q-165 33 -290.5 138t-191 256.5t-65.5 326.5z" />
    <glyph glyph-name="parenright.sc" unicode="&#xf726;" horiz-adv-x="759" 
d="M635 528q0 -175 -65.5 -326.5t-191.5 -256.5t-292 -138v175q159 40 250.5 187t91.5 359q0 211 -91.5 358t-250.5 187v174q250 -49 399.5 -250.5t149.5 -468.5z" />
    <glyph glyph-name="asterisk.sc" unicode="&#xf727;" horiz-adv-x="761" 
d="M457 1055l-19 -191l187 80l45 -141l-203 -41l141 -133l-112 -97l-115 162l-115 -162l-114 97l143 133l-203 41l45 141l187 -80l-21 191h154z" />
    <glyph glyph-name="slash.sc" unicode="&#xf728;" horiz-adv-x="901" 
d="M887 1198l-678 -1341h-197l680 1341h195z" />
    <glyph glyph-name="zero.sc" unicode="&#xf729;" horiz-adv-x="1114" 
d="M557 1075q208 0 343.5 -149.5t135.5 -397.5q0 -249 -135.5 -398.5t-343.5 -149.5t-343.5 149.5t-135.5 398.5q0 248 135.5 397.5t343.5 149.5zM557 164q122 0 198 95t76 269q0 172 -76 267.5t-198 95.5t-198 -95.5t-76 -267.5q0 -174 76 -269t198 -95z" />
    <glyph glyph-name="one.sc" unicode="&#xf72a;" horiz-adv-x="1114" 
d="M561 0v854l-289 -98l-57 151l385 152h162v-1059h-201z" />
    <glyph glyph-name="two.sc" unicode="&#xf72b;" horiz-adv-x="1114" 
d="M553 889q-112 0 -168 -51t-59 -142h-201q4 79 31 146t78 120t134 83t189 30q196 0 303 -94.5t107 -245.5q0 -61 -15.5 -111.5t-50 -96t-75.5 -83.5t-105 -86l-240 -174h506v-184h-848v150l422 313q107 81 155 138.5t48 127.5q0 74 -56 117t-155 43z" />
    <glyph glyph-name="three.sc" unicode="&#xf72c;" horiz-adv-x="1114" 
d="M541 893q-106 0 -161 -44.5t-58 -123.5h-199q9 157 117 253.5t307 96.5q81 0 153 -19t129 -55.5t90 -95.5t33 -133q0 -83 -37.5 -140t-97.5 -77q74 -16 123 -77.5t49 -153.5q0 -108 -58 -187.5t-153.5 -118t-216.5 -38.5q-217 0 -330 93.5t-122 256.5h200
q12 -168 248 -168q106 0 166.5 42.5t60.5 123.5q0 69 -48 100t-146 31h-119v164h102q92 0 134.5 31.5t42.5 95.5q0 72 -58 107.5t-151 35.5z" />
    <glyph glyph-name="four.sc" unicode="&#xf72d;" horiz-adv-x="1114" 
d="M877 1057v-639h174v-182h-174v-236h-201v236h-588v165l610 656h179zM315 418h361v389z" />
    <glyph glyph-name="five.sc" unicode="&#xf72e;" horiz-adv-x="1114" 
d="M573 164q100 0 160 47t60 133q0 87 -58 133.5t-174 46.5q-66 0 -125.5 -15t-95.5 -38l-168 49l25 535h731v-183h-553l-10 -237q32 21 93.5 35t135.5 14q193 0 298 -92.5t105 -249.5q0 -167 -119.5 -264.5t-302.5 -97.5q-206 0 -316 92.5t-118 246.5h203q5 -74 64 -114.5
t165 -40.5z" />
    <glyph glyph-name="six.sc" unicode="&#xf72f;" horiz-adv-x="1114" 
d="M631 698q166 0 273.5 -96t107.5 -252q0 -163 -118.5 -266.5t-303.5 -103.5q-96 0 -177 31t-143.5 92.5t-97.5 162t-35 230.5q0 93 15.5 176t51.5 157.5t89 128.5t133 85.5t180 31.5q155 0 255 -80t120 -200h-190q-9 48 -57 76t-124 28q-240 0 -266 -301q108 100 287 100z
M586 156q108 0 168.5 53.5t60.5 140.5q0 92 -60.5 141.5t-168.5 49.5q-100 0 -166 -51t-66 -138q0 -88 66 -142t166 -54z" />
    <glyph glyph-name="seven.sc" unicode="&#xf730;" horiz-adv-x="1114" 
d="M965 905l-480 -905h-225l465 872h-573v183h813v-150z" />
    <glyph glyph-name="eight.sc" unicode="&#xf731;" horiz-adv-x="1114" 
d="M557 1075q193 0 304.5 -83t111.5 -216q0 -83 -45.5 -148.5t-130.5 -90.5q91 -19 149 -86.5t58 -155.5q0 -150 -121 -232.5t-326 -82.5t-325.5 82.5t-120.5 232.5q0 88 57.5 155.5t148.5 86.5q-85 25 -130.5 90.5t-45.5 148.5q0 133 111.5 216t304.5 83zM557 156
q111 0 176.5 39t65.5 108q0 67 -64.5 107.5t-177.5 40.5t-177.5 -40.5t-64.5 -107.5q0 -69 65.5 -108t176.5 -39zM557 612q99 0 156 40t57 100q0 72 -58.5 109.5t-154.5 37.5t-154.5 -37.5t-58.5 -109.5q0 -60 57 -100t156 -40z" />
    <glyph glyph-name="nine.sc" unicode="&#xf732;" horiz-adv-x="1114" 
d="M483 356q-166 0 -273.5 97t-107.5 254q0 162 118.5 265t303.5 103q96 0 177 -31t143.5 -92.5t97.5 -162t35 -230.5q0 -93 -15.5 -176t-51.5 -157.5t-89 -128.5t-133 -85.5t-180 -31.5q-155 0 -255 80.5t-120 201.5h191q9 -48 57 -77t123 -29q237 0 266 301
q-112 -101 -287 -101zM528 899q-108 0 -168.5 -53t-60.5 -139q0 -93 60 -142t169 -49q100 0 166 49.5t66 136.5q0 88 -66 142.5t-166 54.5z" />
    <glyph glyph-name="question.sc" unicode="&#xf733;" horiz-adv-x="1019" 
d="M915 780q0 -53 -20 -99.5t-49 -78t-72 -59t-77 -43t-76 -31.5l-11 -86h-161l-9 160q57 19 94.5 34t82.5 41t68.5 59.5t23.5 74.5q0 149 -213 149q-220 0 -230 -182h-188q3 163 107.5 259.5t320.5 96.5q197 0 303 -81t106 -214zM383 129q0 61 40.5 101t102.5 40
q61 0 101.5 -40.5t40.5 -100.5t-40.5 -100.5t-101.5 -40.5q-62 0 -102.5 40t-40.5 101z" />
    <glyph glyph-name="at.sc" unicode="&#xf734;" horiz-adv-x="1484" 
d="M444 528q0 119 79 200t198 81q96 0 176 -66v56h133v-330q0 -115 76 -115q56 0 84.5 53t28.5 146q0 199 -129.5 311.5t-344.5 112.5q-213 0 -347 -126t-134 -327t132 -323.5t349 -122.5q168 0 283 43v-117q-100 -43 -287 -43q-273 0 -442.5 156.5t-169.5 406.5
q0 247 172 409.5t444 162.5q274 0 441.5 -148.5t167.5 -390.5q0 -145 -66.5 -234.5t-183.5 -89.5q-137 0 -184 109q-79 -96 -199 -96q-119 0 -198 81.5t-79 200.5zM586 528q0 -70 43.5 -114.5t111.5 -44.5q66 0 111 46t45 113q0 66 -45 112t-111 46q-68 0 -111.5 -44.5
t-43.5 -113.5z" />
    <glyph glyph-name="bracketleft.sc" unicode="&#xf735;" horiz-adv-x="712" 
d="M176 1247h449v-170h-250v-1097h250v-173h-449v1440z" />
    <glyph glyph-name="backslash.sc" unicode="&#xf736;" horiz-adv-x="901" 
d="M692 -143l-680 1341h197l678 -1341h-195z" />
    <glyph glyph-name="bracketright.sc" unicode="&#xf737;" horiz-adv-x="712" 
d="M86 1247h451v-1440h-451v173h252v1097h-252v170z" />
    <glyph glyph-name="braceleft.sc" unicode="&#xf738;" horiz-adv-x="794" 
d="M100 449v157q100 6 144 52.5t37 142.5l-9 121q-11 167 64.5 246t261.5 79h111v-170h-99q-89 0 -118 -36.5t-23 -122.5l8 -115q18 -234 -145 -275q85 -23 119.5 -91t25.5 -185l-8 -113q-6 -86 23 -122.5t118 -36.5h99v-173h-111q-186 0 -261.5 80.5t-64.5 247.5l9 119
q7 97 -37 143t-144 52z" />
    <glyph glyph-name="braceright.sc" unicode="&#xf739;" horiz-adv-x="794" 
d="M694 606v-157q-100 -6 -143.5 -52t-36.5 -143l8 -119q11 -167 -64 -247.5t-261 -80.5h-111v173h98q89 0 118.5 36.5t23.5 122.5l-9 113q-9 117 26 185t120 91q-164 41 -146 275l9 115q6 86 -23.5 122.5t-118.5 36.5h-98v170h111q186 0 261 -79t64 -246l-8 -121
q-7 -96 37 -142.5t143 -52.5z" />
    <glyph glyph-name="currency.sc" unicode="&#xf73a;" horiz-adv-x="1331" 
d="M295 997l119 -120q116 79 252 79t249 -79l121 120l101 -100l-121 -121q80 -110 80 -248q0 -139 -80 -249l121 -119l-101 -101l-121 119q-111 -78 -249 -78q-137 0 -252 78l-119 -119l-100 101l118 119q-77 110 -77 249q0 138 77 248l-118 121zM666 219q125 0 208.5 88
t83.5 221t-83.5 221.5t-208.5 88.5t-209 -88.5t-84 -221.5t84 -221t209 -88z" />
    <glyph glyph-name="cent.sc" unicode="&#xf73b;" horiz-adv-x="1112" 
d="M508 -205v189q-179 23 -296.5 155t-117.5 312t117 309.5t297 154.5v191h158v-193q158 -24 254.5 -120.5t107.5 -219.5h-201q-11 55 -53 97t-108 59v-559q66 18 108 61t53 99h201q-11 -125 -107.5 -222.5t-254.5 -119.5v-193h-158zM295 451q0 -108 58 -183.5t155 -97.5
v561q-98 -24 -155.5 -98t-57.5 -182z" />
    <glyph glyph-name="sterling.sc" unicode="&#xf73c;" horiz-adv-x="1112" 
d="M100 584h127v63q0 90 24.5 166t73.5 135.5t130 93t186 33.5q96 0 172 -29t123 -78.5t73 -112t29 -134.5h-196q-5 76 -54.5 122t-146.5 46q-111 0 -162 -65.5t-51 -192.5v-47h334v-166h-334v-234h612v-184h-940v184h127v234h-127v166z" />
    <glyph glyph-name="yen.sc" unicode="&#xf73d;" horiz-adv-x="1112" 
d="M158 340h297v51l-33 49h-264v146h170l-303 469h227l307 -482l307 482h221l-305 -469h172v-146h-266l-31 -49v-51h297v-143h-297v-197h-202v197h-297v143z" />
    <glyph glyph-name="Euro.sc" unicode="&#xf73e;" horiz-adv-x="1112" 
d="M152 528q0 29 2 43h-109v144h137q58 161 202.5 260.5t334.5 99.5q195 0 346 -100l-84 -150q-105 66 -254 66q-108 0 -191 -46.5t-128 -129.5h462v-144h-505q-3 -21 -3 -43q0 -24 3 -45h378v-143h-335q45 -82 128 -128t191 -46q154 0 254 63l84 -149q-156 -100 -346 -100
t-333.5 98.5t-201.5 261.5h-139v143h109q-2 14 -2 45z" />
    <glyph glyph-name="florin.sc" unicode="&#xf73f;" horiz-adv-x="1112" 
d="M317 545h156l29 213q22 163 98 237t225 74q100 0 154 -16l-18 -160q-49 6 -111 6q-78 0 -111 -36.5t-45 -127.5l-24 -190h235l-20 -176h-238l-55 -426q-33 -277 -285 -277q-65 0 -117 10l21 164q46 -4 63 -4q61 0 88 33.5t37 105.5l52 394h-156z" />
    <glyph glyph-name="section.sc" unicode="&#xf740;" horiz-adv-x="1112" 
d="M543 -113q95 0 146.5 30.5t51.5 84.5q0 46 -37 71.5t-118 43.5l-137 33q-139 34 -212 94t-73 157q0 145 147 217q-82 70 -82 191q0 125 94 195.5t273 70.5q168 0 252.5 -67.5t97.5 -180.5h-172q-10 50 -48.5 75.5t-129.5 25.5q-186 0 -186 -115q0 -51 37 -80.5t118 -48.5
l140 -33q134 -30 192.5 -83t58.5 -156q0 -140 -143 -213q109 -62 109 -187q0 -131 -103.5 -201.5t-277.5 -70.5q-176 0 -278 69.5t-113 190.5h178q13 -113 215 -113zM346 420q0 -55 39.5 -81t134.5 -48l113 -27q67 19 104 54.5t37 80.5t-28.5 69t-110.5 42l-141 33
q-9 0 -21 4q-59 -14 -93 -47.5t-34 -79.5z" />
    <glyph glyph-name="registered.sc" unicode="&#xf741;" horiz-adv-x="1361" 
d="M680 1075q157 0 287 -74.5t203 -200t73 -272.5q0 -148 -73 -273.5t-202.5 -200t-287.5 -74.5t-287 74.5t-201.5 200t-72.5 273.5q0 147 72.5 272.5t202 200t286.5 74.5zM680 96q190 0 315 123t125 309q0 185 -125 307.5t-315 122.5q-189 0 -313.5 -122.5t-124.5 -307.5
q0 -186 124.5 -309t313.5 -123zM596 420v-172h-145v561h272q118 0 179 -51.5t61 -143.5q0 -143 -134 -182l127 -184h-153l-117 172h-90zM594 543h117q57 0 80.5 15.5t23.5 55.5q0 39 -24 54.5t-80 15.5h-117v-141z" />
    <glyph glyph-name="copyright.sc" unicode="&#xf742;" horiz-adv-x="1361" 
d="M680 1075q157 0 287 -74.5t203 -200t73 -272.5q0 -148 -73 -273.5t-202.5 -200t-287.5 -74.5t-287 74.5t-201.5 200t-72.5 273.5q0 147 72.5 272.5t202 200t286.5 74.5zM680 96q190 0 315 123t125 309q0 185 -125 307.5t-315 122.5q-189 0 -313.5 -122.5t-124.5 -307.5
q0 -186 124.5 -309t313.5 -123zM391 528q0 124 87.5 208.5t213.5 84.5q123 0 200 -67t85 -162h-148q-7 37 -41.5 63.5t-93.5 26.5q-68 0 -109.5 -42.5t-41.5 -111.5q0 -70 41.5 -112.5t109.5 -42.5q59 0 93.5 27t41.5 65h148q-8 -97 -84.5 -164.5t-200.5 -67.5
q-126 0 -213.5 85.5t-87.5 209.5z" />
    <glyph glyph-name="ordfeminine.sc" unicode="&#xf743;" horiz-adv-x="862" 
d="M502 1057l334 -729h-164l-74 161h-336l-72 -161h-161l333 729h140zM428 862l-106 -239h215z" />
    <glyph glyph-name="ordmasculine.sc" unicode="&#xf744;" horiz-adv-x="954" 
d="M477 461q96 0 159.5 64.5t63.5 166.5t-63.5 167t-159.5 65t-160.5 -65t-64.5 -167t64.5 -166.5t160.5 -64.5zM477 313q-166 0 -277.5 107.5t-111.5 271.5t111.5 271.5t277.5 107.5t276.5 -107.5t110.5 -271.5t-110.5 -271.5t-276.5 -107.5z" />
    <glyph glyph-name="Omega.sc" unicode="&#xf745;" horiz-adv-x="1368" 
d="M684 1075q171 0 302.5 -67t201 -179.5t69.5 -250.5q0 -141 -67 -245t-166 -171h203v-162h-457v133q125 77 203 181t78 225q0 166 -99 260t-268 94t-268 -94t-99 -260q0 -121 77.5 -224.5t201.5 -181.5v-133h-455v162h201q-99 68 -166 172t-67 244q0 138 70 250.5
t202 179.5t303 67z" />
    <glyph glyph-name="questiondown.sc" unicode="&#xf746;" horiz-adv-x="1019" 
d="M104 274q0 202 295 312l11 86h161l9 -160q-45 -15 -74 -26t-70 -31t-65 -40t-42 -49.5t-18 -62.5q0 -149 213 -149q223 0 230 182h190q-5 -163 -109 -259.5t-321 -96.5q-196 0 -303 80.5t-107 213.5zM637 924q0 -59 -40 -99.5t-101 -40.5t-101.5 40.5t-40.5 99.5
q0 60 40.5 100.5t101.5 40.5t101 -40.5t40 -100.5z" />
    <glyph glyph-name="exclamdown.sc" unicode="&#xf747;" horiz-adv-x="532" 
d="M186 672h160q23 -307 23 -516v-156h-205v156q0 265 22 516zM408 926q0 -60 -40.5 -101t-101.5 -41t-101 41t-40 101t40 100.5t101 40.5t101.5 -40.5t40.5 -100.5z" />
    <glyph glyph-name="dagger.sc" unicode="&#xf748;" horiz-adv-x="985" 
d="M893 750v-170h-305v-785h-193v785h-303v170h303v305h193v-305h305z" />
    <glyph glyph-name="daggerdbl.sc" unicode="&#xf749;" horiz-adv-x="985" 
d="M893 244v-172h-305v-277h-193v277h-303v172h303v362h-303v172h303v277h193v-277h305v-172h-305v-362h305z" />
    <glyph glyph-name="quoteleft.sc" unicode="&#xf74a;" horiz-adv-x="475" 
d="M385 1069l-74 -467h-225l131 467h168z" />
    <glyph glyph-name="quoteright.sc" unicode="&#xf74b;" horiz-adv-x="475" 
d="M88 602l76 467h225l-131 -467h-170z" />
    <glyph glyph-name="quotesinglbase.sc" unicode="&#xf74c;" horiz-adv-x="475" 
d="M88 -250l76 467h225l-131 -467h-170z" />
    <glyph glyph-name="quotedblleft.sc" unicode="&#xf74d;" horiz-adv-x="860" 
d="M385 1069l-74 -467h-225l131 467h168zM770 1069l-74 -467h-225l131 467h168z" />
    <glyph glyph-name="quotedblright.sc" unicode="&#xf74e;" horiz-adv-x="860" 
d="M88 602l76 467h225l-131 -467h-170zM473 602l76 467h225l-131 -467h-170z" />
    <glyph glyph-name="quotedblbase.sc" unicode="&#xf74f;" horiz-adv-x="860" 
d="M88 -250l76 467h225l-131 -467h-170zM473 -250l76 467h225l-131 -467h-170z" />
    <glyph glyph-name="perthousand.sc" unicode="&#xf750;" horiz-adv-x="2398" 
d="M584 0h-185l693 1055h186zM395 1065q132 0 218.5 -84.5t86.5 -210.5q0 -125 -87 -210t-218 -85t-217 85t-86 210q0 127 86 211t217 84zM395 621q66 0 108 42t42 107q0 66 -42 109t-108 43t-107.5 -43t-41.5 -109q0 -65 41.5 -107t107.5 -42zM1274 580q131 0 218 -85
t87 -210t-87 -210t-218 -85q-130 0 -216.5 85t-86.5 210t86.5 210t216.5 85zM1274 133q67 0 108 43t41 109q0 65 -41 108t-108 43q-65 0 -106.5 -43t-41.5 -108t41.5 -108.5t106.5 -43.5zM2003 580q131 0 218 -85t87 -210t-87 -210t-218 -85t-217 85t-86 210t86 210t217 85z
M2003 133q65 0 107 43.5t42 108.5t-42 108t-107 43q-66 0 -108 -43t-42 -108t42.5 -108.5t107.5 -43.5z" />
    <glyph glyph-name="bullet.sc" unicode="&#xf751;" horiz-adv-x="858" 
d="M324 369q-42 27 -65 71t-23 92q0 56 30 103q27 40 70 62t90 22q58 0 109 -31q42 -29 65 -72.5t23 -91.5q0 -54 -31 -102q-28 -41 -70 -63.5t-90 -22.5q-61 0 -108 33z" />
    <glyph glyph-name="periodcentered.sc" unicode="&#xf752;" horiz-adv-x="520" 
d="M119 526q0 60 40 101t101 41t101 -41t40 -101t-40 -100.5t-101 -40.5t-101 40.5t-40 100.5z" />
    <glyph glyph-name="hyphen.sc" unicode="&#xf753;" horiz-adv-x="811" 
d="M90 440v176h633v-176h-633z" />
    <glyph glyph-name="endash.sc" unicode="&#xf754;" horiz-adv-x="972" 
d="M57 442v172h861v-172h-861z" />
    <glyph glyph-name="emdash.sc" unicode="&#xf755;" horiz-adv-x="1198" 
d="M31 442v172h1136v-172h-1136z" />
    <glyph glyph-name="plus.sc" unicode="&#xf756;" horiz-adv-x="1255" 
d="M717 106h-178v336h-336v170h336v338h178v-338h336v-170h-336v-336z" />
    <glyph glyph-name="minus.sc" unicode="&#xf757;" horiz-adv-x="1255" 
d="M1049 612v-170h-840v170h840z" />
    <glyph glyph-name="multiply.sc" unicode="&#xf758;" horiz-adv-x="1255" 
d="M250 782l123 123l254 -256l256 256l125 -123l-256 -256l256 -254l-125 -122l-256 253l-254 -253l-123 122l254 254z" />
    <glyph glyph-name="divide.sc" unicode="&#xf759;" horiz-adv-x="1255" 
d="M1049 612v-170h-840v170h840zM487 887q0 60 40.5 99.5t101.5 39.5q60 0 99.5 -39.5t39.5 -99.5q0 -59 -39.5 -99t-99.5 -40q-61 0 -101.5 40t-40.5 99zM487 168q0 60 40.5 100.5t101.5 40.5q60 0 99.5 -40.5t39.5 -100.5q0 -59 -39.5 -99t-99.5 -40q-61 0 -101.5 40
t-40.5 99z" />
    <glyph glyph-name="equal.sc" unicode="&#xf75a;" horiz-adv-x="1255" 
d="M1049 811v-170h-840v170h840zM1049 414v-170h-840v170h840z" />
    <glyph glyph-name="notequal.sc" unicode="&#xf75b;" horiz-adv-x="1255" 
d="M1012 1012l-121 -201h180v-170h-283l-135 -227h418v-170h-520l-160 -267l-147 78l112 189h-172v170h273l137 227h-410v170h512l168 281z" />
    <glyph glyph-name="approxequal.sc" unicode="&#xf75c;" horiz-adv-x="1255" 
d="M934 467l139 -18q-40 -254 -242 -254q-59 0 -126.5 27.5t-130 55t-107.5 27.5q-55 0 -83.5 -27t-41.5 -79l-139 18q18 118 77 186t164 68q60 0 128 -27.5t130 -55.5t107 -28q56 0 85 27.5t40 79.5zM934 856l139 -16q-39 -256 -242 -256q-59 0 -126.5 28t-130 56
t-107.5 28q-55 0 -83.5 -27.5t-41.5 -78.5l-139 16q39 256 241 256q60 0 128 -28t130 -56t107 -28q101 0 125 106z" />
    <glyph glyph-name="less.sc" unicode="&#xf75d;" horiz-adv-x="1255" 
d="M211 442v170l823 404v-211l-596 -277l596 -278v-211z" />
    <glyph glyph-name="greater.sc" unicode="&#xf75e;" horiz-adv-x="1255" 
d="M1044 612v-170l-823 -403v211l596 278l-596 277v211z" />
    <glyph glyph-name="guilsinglleft.sc" unicode="&#xf75f;" horiz-adv-x="606" 
d="M516 905l-223 -379l223 -376h-207l-225 376l225 379h207z" />
    <glyph glyph-name="guilsinglright.sc" unicode="&#xf760;" horiz-adv-x="606" 
d="M90 150l223 376l-223 379h207l223 -379l-223 -376h-207z" />
    <glyph glyph-name="guillemotleft.sc" unicode="&#xf761;" horiz-adv-x="1026" 
d="M516 905l-223 -379l223 -376h-207l-225 376l225 379h207zM936 905l-223 -379l223 -376h-207l-225 376l225 379h207z" />
    <glyph glyph-name="guillemotright.sc" unicode="&#xf762;" horiz-adv-x="1026" 
d="M90 150l223 376l-223 379h207l223 -379l-223 -376h-207zM510 150l223 376l-223 379h207l223 -379l-223 -376h-207z" />
    <glyph glyph-name="a.sc" unicode="&#xf763;" horiz-adv-x="1230" 
d="M698 1057l494 -1057h-205l-113 248h-522l-112 -248h-203l493 1057h168zM612 821l-180 -395h361z" />
    </font>
</defs>
</svg>
